<?xml version="1.0" encoding="UTF-8" standalone="no"?>
<!-- Created with Inkscape (http://www.inkscape.org/) -->

<svg
   version="1.1"
   id="svg1"
   width="156.317"
   height="156.31699"
   viewBox="0 0 156.317 156.31698"
   sodipodi:docname="Aero logo.svg"
   xml:space="preserve"
   inkscape:version="1.4 (86a8ad7, 2024-10-11)"
   xmlns:inkscape="http://www.inkscape.org/namespaces/inkscape"
   xmlns:sodipodi="http://sodipodi.sourceforge.net/DTD/sodipodi-0.dtd"
   xmlns="http://www.w3.org/2000/svg"
   xmlns:svg="http://www.w3.org/2000/svg"><defs
     id="defs1"><rect
       x="34.478989"
       y="177.80142"
       width="72.222267"
       height="25.502213"
       id="rect51" /><clipPath
       clipPathUnits="userSpaceOnUse"
       id="clipPath4"><path
         d="M 9.12e-6,0 H 612.00001 V 792 H 9.12e-6 Z"
         transform="matrix(1,0,0,-1,-284.21001,686.74001)"
         clip-rule="evenodd"
         id="path4" /></clipPath><clipPath
       clipPathUnits="userSpaceOnUse"
       id="clipPath5"><path
         d="M 9.12e-6,0 H 612.00001 V 792 H 9.12e-6 Z"
         transform="matrix(1,0,0,-1,-220.85001,668.26001)"
         clip-rule="evenodd"
         id="path5" /></clipPath><clipPath
       clipPathUnits="userSpaceOnUse"
       id="clipPath6"><path
         d="M 9.12e-6,0 H 612.00001 V 792 H 9.12e-6 Z"
         transform="matrix(1,0,0,-1,-260.81001,668.26001)"
         clip-rule="evenodd"
         id="path6" /></clipPath><clipPath
       clipPathUnits="userSpaceOnUse"
       id="clipPath7"><path
         d="M 9.12e-6,0 H 612.00001 V 792 H 9.12e-6 Z"
         transform="matrix(1,0,0,-1,-266.09001,668.26001)"
         clip-rule="evenodd"
         id="path7" /></clipPath><clipPath
       clipPathUnits="userSpaceOnUse"
       id="clipPath8"><path
         d="M 9.12e-6,0 H 612.00001 V 792 H 9.12e-6 Z"
         transform="matrix(1,0,0,-1,-281.45001,635.74001)"
         clip-rule="evenodd"
         id="path8" /></clipPath><clipPath
       clipPathUnits="userSpaceOnUse"
       id="clipPath10"><path
         d="M 9.12e-6,0 H 612.00001 V 792 H 9.12e-6 Z"
         transform="matrix(1,0,0,-1,-180.38001,601.66001)"
         clip-rule="evenodd"
         id="path10" /></clipPath><clipPath
       clipPathUnits="userSpaceOnUse"
       id="clipPath12"><path
         d="M 9.12e-6,0 H 612.00001 V 792 H 9.12e-6 Z"
         transform="matrix(1,0,0,-1,-277.01001,569.02001)"
         clip-rule="evenodd"
         id="path12" /></clipPath><clipPath
       clipPathUnits="userSpaceOnUse"
       id="clipPath13"><path
         d="M 9.12e-6,0 H 612.00001 V 792 H 9.12e-6 Z"
         transform="matrix(1,0,0,-1,-283.85001,569.02001)"
         clip-rule="evenodd"
         id="path13" /></clipPath><clipPath
       clipPathUnits="userSpaceOnUse"
       id="clipPath14"><path
         d="M 9.12e-6,0 H 612.00001 V 792 H 9.12e-6 Z"
         transform="matrix(1,0,0,-1,-285.41001,536.86001)"
         clip-rule="evenodd"
         id="path14" /></clipPath><clipPath
       clipPathUnits="userSpaceOnUse"
       id="clipPath16"><path
         d="M 9.12e-6,0 H 612.00001 V 792 H 9.12e-6 Z"
         transform="matrix(1,0,0,-1,-151.70001,502.63001)"
         clip-rule="evenodd"
         id="path16" /></clipPath><clipPath
       clipPathUnits="userSpaceOnUse"
       id="clipPath17"><path
         d="M 9.12e-6,0 H 612.00001 V 792 H 9.12e-6 Z"
         transform="matrix(1,0,0,-1,-338.83001,502.63001)"
         clip-rule="evenodd"
         id="path17" /></clipPath><clipPath
       clipPathUnits="userSpaceOnUse"
       id="clipPath18"><path
         d="M 9.12e-6,0 H 612.00001 V 792 H 9.12e-6 Z"
         transform="matrix(1,0,0,-1,-226.01001,486.19001)"
         clip-rule="evenodd"
         id="path18" /></clipPath><clipPath
       clipPathUnits="userSpaceOnUse"
       id="clipPath19"><path
         d="M 9.12e-6,0 H 612.00001 V 792 H 9.12e-6 Z"
         transform="matrix(1,0,0,-1,-265.49001,486.19001)"
         clip-rule="evenodd"
         id="path19" /></clipPath><clipPath
       clipPathUnits="userSpaceOnUse"
       id="clipPath20"><path
         d="M 9.12e-6,0 H 612.00001 V 792 H 9.12e-6 Z"
         transform="matrix(1,0,0,-1,-315.05001,486.19001)"
         clip-rule="evenodd"
         id="path20" /></clipPath><clipPath
       clipPathUnits="userSpaceOnUse"
       id="clipPath21"><path
         d="M 9.12e-6,0 H 612.00001 V 792 H 9.12e-6 Z"
         transform="matrix(1,0,0,-1,-321.29001,486.19001)"
         clip-rule="evenodd"
         id="path21" /></clipPath><clipPath
       clipPathUnits="userSpaceOnUse"
       id="clipPath22"><path
         d="M 9.12e-6,0 H 612.00001 V 792 H 9.12e-6 Z"
         transform="matrix(1,0,0,-1,-329.21001,486.19001)"
         clip-rule="evenodd"
         id="path22" /></clipPath><clipPath
       clipPathUnits="userSpaceOnUse"
       id="clipPath31"><path
         d="M 9.12e-6,0 H 612.00001 V 792 H 9.12e-6 Z"
         transform="matrix(1,0,0,-1,-268.73001,198.53001)"
         clip-rule="evenodd"
         id="path31" /></clipPath><clipPath
       clipPathUnits="userSpaceOnUse"
       id="clipPath32"><path
         d="M 9.12e-6,0 H 612.00001 V 792 H 9.12e-6 Z"
         transform="matrix(1,0,0,-1,-275.81001,198.53001)"
         clip-rule="evenodd"
         id="path32" /></clipPath><clipPath
       clipPathUnits="userSpaceOnUse"
       id="clipPath33"><path
         d="M 9.12e-6,0 H 612.00001 V 792 H 9.12e-6 Z"
         transform="matrix(1,0,0,-1,-315.41001,198.53001)"
         clip-rule="evenodd"
         id="path33" /></clipPath><clipPath
       clipPathUnits="userSpaceOnUse"
       id="clipPath36"><path
         d="M 9.12e-6,0 H 612.00001 V 792 H 9.12e-6 Z"
         transform="matrix(1,0,0,-1,-217.97001,134.18001)"
         clip-rule="evenodd"
         id="path36" /></clipPath><clipPath
       clipPathUnits="userSpaceOnUse"
       id="clipPath37"><path
         d="M 9.12e-6,0 H 612.00001 V 792 H 9.12e-6 Z"
         transform="matrix(1,0,0,-1,-384.07001,134.18001)"
         clip-rule="evenodd"
         id="path37" /></clipPath><clipPath
       clipPathUnits="userSpaceOnUse"
       id="clipPath38"><path
         d="M 9.12e-6,0 H 612.00001 V 792 H 9.12e-6 Z"
         transform="matrix(1,0,0,-1,-76.704002,119.78001)"
         clip-rule="evenodd"
         id="path38" /></clipPath><clipPath
       clipPathUnits="userSpaceOnUse"
       id="clipPath39"><path
         d="M 9.12e-6,0 H 612.00001 V 792 H 9.12e-6 Z"
         transform="matrix(1,0,0,-1,-264.53001,119.78001)"
         clip-rule="evenodd"
         id="path39" /></clipPath><clipPath
       clipPathUnits="userSpaceOnUse"
       id="clipPath40"><path
         d="M 9.12e-6,0 H 612.00001 V 792 H 9.12e-6 Z"
         transform="matrix(1,0,0,-1,-268.49001,119.78001)"
         clip-rule="evenodd"
         id="path40" /></clipPath><clipPath
       clipPathUnits="userSpaceOnUse"
       id="clipPath41"><path
         d="M 9.12e-6,0 H 612.00001 V 792 H 9.12e-6 Z"
         transform="matrix(1,0,0,-1,-388.75001,119.78001)"
         clip-rule="evenodd"
         id="path41" /></clipPath><clipPath
       clipPathUnits="userSpaceOnUse"
       id="clipPath42"><path
         d="M 9.12e-6,0 H 612.00001 V 792 H 9.12e-6 Z"
         transform="matrix(1,0,0,-1,-432.43001,119.78001)"
         clip-rule="evenodd"
         id="path42" /></clipPath><clipPath
       clipPathUnits="userSpaceOnUse"
       id="clipPath43"><path
         d="M 9.12e-6,0 H 612.00001 V 792 H 9.12e-6 Z"
         transform="matrix(1,0,0,-1,-93.864002,105.98001)"
         clip-rule="evenodd"
         id="path43" /></clipPath><clipPath
       clipPathUnits="userSpaceOnUse"
       id="clipPath44"><path
         d="M 9.12e-6,0 H 612.00001 V 792 H 9.12e-6 Z"
         transform="matrix(1,0,0,-1,-446.47001,105.98001)"
         clip-rule="evenodd"
         id="path44" /></clipPath><clipPath
       clipPathUnits="userSpaceOnUse"
       id="clipPath45"><path
         d="M 9.12e-6,0 H 612.00001 V 792 H 9.12e-6 Z"
         transform="matrix(1,0,0,-1,-450.43001,105.98001)"
         clip-rule="evenodd"
         id="path45" /></clipPath><clipPath
       clipPathUnits="userSpaceOnUse"
       id="clipPath46"><path
         d="M 9.12e-6,0 H 612.00001 V 792 H 9.12e-6 Z"
         transform="matrix(1,0,0,-1,-111.38001,92.184002)"
         clip-rule="evenodd"
         id="path46" /></clipPath><clipPath
       clipPathUnits="userSpaceOnUse"
       id="clipPath47"><path
         d="M 233.7,276 H 378.27 V 418.68 H 233.7 Z"
         transform="matrix(0.00691706,0,0,-0.00700525,-1.6165179,2.9333101)"
         clip-rule="evenodd"
         id="path47" /></clipPath></defs><sodipodi:namedview
     id="namedview1"
     pagecolor="#ffffff"
     bordercolor="#000000"
     borderopacity="0.25"
     inkscape:showpageshadow="2"
     inkscape:pageopacity="0.0"
     inkscape:pagecheckerboard="0"
     inkscape:deskcolor="#d1d1d1"
     inkscape:zoom="5.6568542"
     inkscape:cx="-2.2097087"
     inkscape:cy="40.570252"
     inkscape:window-width="3651"
     inkscape:window-height="2120"
     inkscape:window-x="-12"
     inkscape:window-y="-12"
     inkscape:window-maximized="1"
     inkscape:current-layer="g1"
     showgrid="false"><inkscape:page
       x="0"
       y="0"
       inkscape:label="1"
       id="page1"
       width="156.317"
       height="156.31699"
       margin="0"
       bleed="0" /></sodipodi:namedview><g
     id="g1"
     inkscape:groupmode="layer"
     inkscape:label="1"
     transform="translate(-314.66618,-500.41539)"><circle
       style="opacity:1;fill:#003594;fill-opacity:1;stroke:none;stroke-width:0;stroke-dasharray:none;stroke-opacity:1"
       id="path53-2-2"
       cx="392.82468"
       cy="578.57391"
       r="78.15847" /><circle
       style="opacity:1;fill:#ffffff;fill-opacity:1;stroke:none;stroke-width:3.04322;stroke-dasharray:none;stroke-opacity:1"
       id="path53-2"
       cx="392.82468"
       cy="578.57391"
       r="75.386185" /><text
       xml:space="preserve"
       transform="matrix(0.8370843,0,0,0.8370843,312.09813,498.19151)"
       id="text51"
       style="font-size:24px;font-family:Calibri;-inkscape-font-specification:Calibri;white-space:pre;shape-inside:url(#rect51);display:inline;fill:none;stroke:#000000;stroke-width:3.58386" /><text
       xml:space="preserve"
       style="font-size:20.09px;font-family:Calibri;-inkscape-font-specification:Calibri;fill:none;stroke:#000000;stroke-width:2.99999"
       x="349.49896"
       y="653.08893"
       id="text52"><tspan
         sodipodi:role="line"
         id="tspan52"
         x="349.49896"
         y="653.08893"
         style="stroke-width:2.99999" /></text><text
       xml:space="preserve"
       style="font-style:normal;font-variant:normal;font-weight:normal;font-stretch:normal;font-size:13.2713px;font-family:'Bodoni MT';-inkscape-font-specification:'Bodoni MT';fill:#003594;fill-opacity:1;stroke:#003594;stroke-width:0;stroke-dasharray:none;stroke-opacity:1"
       x="351.8414"
       y="637.03571"
       id="text53"><tspan
         sodipodi:role="line"
         id="tspan53"
         x="351.8414"
         y="637.03571"
         style="font-style:normal;font-variant:normal;font-weight:normal;font-stretch:normal;font-family:'Trebuchet MS';-inkscape-font-specification:'Trebuchet MS';fill:#003594;fill-opacity:1;stroke:#003594;stroke-width:0;stroke-dasharray:none;stroke-opacity:1">AERONAUTICS</tspan></text><path
       fill="#003594"
       d="m 375.37781,562.36546 -10.0981,35.43485 h -4.32607 v 6.05566 h 14.47852 v -6.05566 h -3.17618 l 1.34954,-4.75229 h 10.42443 l 1.27376,4.75229 h -3.59825 v 6.05566 h 15.44387 v 14.42145 h -4.04381 v 6.05635 h 14.55567 v -6.05635 h -4.04306 v -14.42071 h 8.38636 v 2.42222 h 5.25628 v -10.90158 h -5.2556 v 2.42363 h -8.38636 v -10.81 h 13.23711 v 4.03687 h 6.06602 v -10.09253 h -29.81642 v 6.05566 h 4.04313 v 10.80864 h -4.7922 l -10.48851,-35.43416 h -6.48944 z m 2.87465,11.70514 4.04579,13.08218 h -7.57389 z"
       id="path1"
       style="opacity:0.453815;fill:#ffff00;stroke-width:0.740286" /><path
       style="fill:#000000;stroke-width:0.244926"
       d="m 376.72198,557.45611 0.17437,-0.0557 0.61963,-0.20424 0.61961,-0.2043 0.21774,-0.0705 0.21775,-0.0705 0.55107,-0.19442 0.55106,-0.19442 0.34597,-0.12132 0.34596,-0.12133 0.2688,-0.1 0.26881,-0.1 0.28689,-0.11991 0.2869,-0.11989 0.58322,-0.24848 0.58321,-0.24848 0.16692,-0.0819 0.16694,-0.0819 0.12786,-0.0521 0.12786,-0.0521 0.42919,-0.22832 0.4292,-0.22831 0.1381,-0.0953 0.1381,-0.0953 0.0802,-0.084 0.0802,-0.084 0.009,-0.0781 0.009,-0.0781 -0.0474,-0.0471 -0.0474,-0.0471 -0.13081,-0.0237 -0.13082,-0.0237 -0.004,-0.0144 -0.004,-0.0145 -0.69501,0.0238 -0.23245,0.019 -0.23243,0.019 -0.58001,0.025 -0.58003,0.025 -0.21811,0.0122 -0.21811,0.0122 -1.36102,0.10688 -1.361,0.10687 -0.65407,0.0418 -0.65406,0.0418 -0.0306,-0.003 -0.0306,-0.003 0.0272,0.0471 0.0272,0.047 -0.0953,0.12639 -0.0953,0.12639 -0.45734,0.13049 -0.45735,0.13051 -0.4382,0.0898 -0.4382,0.0898 -0.25115,0.0368 -0.25116,0.0367 -0.21862,0.0258 -0.21861,0.0258 -0.16057,0.0208 -0.16056,0.0208 -0.0935,0.006 -0.0935,0.006 -0.19439,0.0273 -0.19438,0.0274 -0.19437,0.0219 -0.19437,0.0219 -0.24198,0.0327 -0.24198,0.0327 -0.35639,0.0431 -0.35638,0.0431 -0.1716,0.0238 -0.1716,0.0238 -0.1377,0.0176 -0.1377,0.0176 -0.34271,0.0494 -0.34271,0.0493 -0.35368,0.0526 -0.3537,0.0526 -0.19307,0.032 -0.19311,0.0319 -0.24821,0.047 -0.24823,0.0471 -0.28097,0.0573 -0.28096,0.0573 -0.57894,0.13843 -0.57895,0.13843 -1.52936,0.4338 -1.52936,0.4338 -0.70708,0.23119 -0.70708,0.2312 -0.31314,0.11128 -0.31315,0.11129 -0.25736,0.0984 -0.25736,0.0984 -0.22485,0.0873 -0.22484,0.0873 -0.72558,0.29139 -0.72558,0.29141 -0.19171,0.0784 -0.19173,0.0784 -0.21341,0.0856 -0.21344,0.0856 -0.23597,0.0899 -0.23599,0.0899 -0.23794,0.083 -0.23795,0.083 -0.0278,0.0278 -0.0278,0.0278 0.24207,-0.0686 0.24206,-0.0686 0.43529,-0.1 0.43531,-0.1 0.44629,-0.10318 0.44628,-0.10318 0.57025,-0.12719 0.57026,-0.1272 0.14534,-0.0325 0.14535,-0.0325 0.28193,-0.0539 0.28193,-0.054 0.30331,-0.0625 0.3033,-0.0624 0.31424,-0.0658 0.31424,-0.0658 0.29187,-0.0608 0.29189,-0.0608 0.31431,-0.0655 0.31429,-0.0655 0.29201,-0.0604 0.292,-0.0603 0.61014,-0.11245 0.61014,-0.11246 0.17857,-0.041 0.17857,-0.0411 0.0919,-0.003 0.0919,-0.003 0.0688,0.0474 0.0688,0.0474 0.15187,0.12317 0.15187,0.12316 0.0696,0.10934 0.0696,0.10935 0.0204,0.0716 0.0204,0.0716 -0.005,0.0593 -0.005,0.0593 -0.0872,0.17973 -0.0873,0.17972 -0.11154,0.16559 -0.11153,0.1656 -0.29587,0.0845 -0.29586,0.0844 -0.0166,0.0378 -0.0166,0.0378 -0.20704,0.0845 -0.20704,0.0845 -0.2356,0.0913 -0.23558,0.0913 -0.23561,0.0913 -0.23559,0.0913 -0.24665,0.0942 -0.24665,0.0943 -0.29073,0.10643 -0.29075,0.10642 -0.69417,0.2348 -0.69415,0.2348 -0.36003,0.12626 -0.36002,0.12627 -0.42506,0.12332 -0.42507,0.12331 -0.0391,0.03 -0.039,0.0299 0.58711,-0.15145 0.58711,-0.15146 0.73201,-0.18552 0.73202,-0.18553 0.44605,-0.10397 0.44605,-0.10398 1.17812,-0.28932 1.17811,-0.28932 0.56719,-0.13795 0.56718,-0.13795 0.67733,-0.16877 0.67731,-0.16878 0.31097,-0.0773 0.31096,-0.0773 1.08702,-0.27515 1.08701,-0.27514 0.93037,-0.2406 0.93037,-0.2406 1.09486,-0.28934 1.09484,-0.28941 0.0648,-0.0231 0.0647,-0.0231 z m -16.19254,4.04829 -0.0103,-0.0624 0.11675,-0.0493 0.11677,-0.0493 0.72988,-0.23463 0.72988,-0.23463 0.47804,-0.15861 0.47803,-0.15861 0.5733,-0.1999 0.57329,-0.1999 0.29047,-0.10742 0.29046,-0.10742 0.3536,-0.1362 0.35361,-0.1362 0.21312,-0.0867 0.21314,-0.0867 0.0206,-0.0301 0.0207,-0.03 0.0668,0.003 0.0668,0.003 0.16251,-0.0705 0.16251,-0.0705 0.19161,-0.71026 0.1916,-0.71026 -0.0878,0.005 -0.0878,0.005 -0.13288,0.0488 -0.13288,0.0488 -0.0257,-0.0143 -0.0258,-0.0143 -0.34862,0.0634 -0.34865,0.0634 -0.25912,0.0505 -0.25914,0.0505 -0.29185,0.0609 -0.29187,0.0609 -0.31451,0.0648 -0.31451,0.0648 -0.29164,0.0615 -0.29166,0.0615 -0.77468,0.16102 -0.77467,0.16101 -0.42753,0.0856 -0.42752,0.0856 -0.40217,0.0911 -0.40216,0.091 -0.47917,0.11298 -0.47918,0.11296 -0.52337,0.12477 -0.52337,0.12477 -0.4793,0.11254 -0.47929,0.11253 -1.302,0.31365 -1.302,0.31365 -0.36917,0.0816 -0.36918,0.0816 -0.87523,0.22545 -0.87521,0.22546 -1.09513,0.28842 -1.09512,0.28842 -1.01115,0.26111 -1.01114,0.26111 -0.65221,0.20325 -0.65221,0.20323 -0.48385,0.15554 -0.48385,0.15553 -0.008,0.0146 -0.008,0.0145 0.84783,0.24352 0.84784,0.24351 0.62156,0.17757 0.62155,0.17758 0.34671,0.10046 0.34671,0.10048 0.26036,-0.057 0.26036,-0.057 0.0219,0.0767 0.0218,0.0767 -0.0417,0.0206 -0.0417,0.0206 -0.0249,0.038 -0.0248,0.038 -0.10649,0.0436 -0.10647,0.0436 -0.16986,0.0716 -0.16987,0.0716 -0.1772,0.0875 -0.17721,0.0875 -0.0983,0.0307 -0.0983,0.0307 -0.0505,0.0315 -0.0505,0.0314 0.46635,-0.11624 0.46633,-0.11625 1.16691,-0.28693 1.16691,-0.28691 0.22333,-0.0509 0.22334,-0.0509 1.40286,-0.37699 1.40286,-0.37698 1.29284,-0.34571 1.29285,-0.34572 1.46688,-0.41796 1.46689,-0.41798 z m -1.90662,0.2524 -0.54538,0.13099 -0.6251,0.14339 -0.6251,0.14338 -1.11572,0.25795 -1.11571,0.25793 -0.0816,0.006 -0.0816,0.006 -0.024,-0.0578 -0.024,-0.0578 0.0551,-0.0417 0.0551,-0.0417 0.29127,-0.10458 0.29127,-0.10458 0.42249,-0.1449 0.42248,-0.1449 0.4225,-0.14483 0.42251,-0.14484 0.41214,-0.13947 0.41213,-0.13948 0.59761,-0.19807 0.59759,-0.19808 0.63053,-0.16605 0.63052,-0.16605 0.39142,-0.0871 0.39142,-0.087 0.4134,-0.0934 0.4134,-0.0934 0.34709,-0.0757 0.34709,-0.0757 0.25933,-0.0498 0.25933,-0.0498 0.20468,-0.033 0.20467,-0.033 0.0339,0.0145 0.0339,0.0145 0.0147,0.0516 0.0147,0.0516 -0.0326,0.0316 -0.0326,0.0316 -0.2023,0.0826 -0.2023,0.0826 -0.16127,0.0601 -0.16126,0.0601 -0.52967,0.18604 -0.52966,0.18605 -0.6755,0.21691 -0.67548,0.21688 -0.0861,0.0319 -0.0861,0.0319 -0.41667,0.1236 -0.41668,0.1236 z m 2.08348,-0.78422 0.46796,-0.15227 0.4764,-0.16435 0.4764,-0.16436 0.23753,-0.0845 0.23754,-0.0845 -0.2245,0.0469 -0.22451,0.0469 -0.33613,0.0724 -0.33613,0.0724 -0.34715,0.0755 -0.34715,0.0755 -0.50229,0.11529 -0.5023,0.11529 -0.70419,0.19963 -0.70419,0.19963 -0.79157,0.26855 -0.79157,0.26854 -0.038,0.0335 -0.038,0.0335 -0.11103,0.0277 -0.11103,0.0277 -0.32426,0.10845 -0.32426,0.10844 -0.005,0.01 -0.005,0.01 0.34005,-0.0817 0.34005,-0.0817 0.44637,-0.10287 0.44637,-0.10286 0.3803,-0.0843 0.38031,-0.0844 1.03594,-0.28737 1.03596,-0.28736 z m -9.1464,1.04009 -0.10044,-0.35192 0.31892,-0.091 0.31893,-0.091 0.10043,0.35191 0.10044,0.35192 -0.31892,0.091 -0.31893,0.091 z m -4.0251,3.13861 0.49401,-0.23809 -0.0352,-0.0318 -0.0352,-0.0318 0.0159,-0.0256 0.0159,-0.0256 0.49248,-0.23309 0.49246,-0.23309 -0.24634,0.0537 -0.24634,0.0537 -0.66595,0.16694 -0.66595,0.16693 -0.61049,0.1946 -0.61048,0.19462 -0.44541,0.15632 -0.44541,0.15632 0.16007,0.14208 0.16008,0.1421 0.0408,0.009 0.0408,0.009 0.32534,-0.0553 0.32535,-0.0553 0.47468,-0.13881 0.47467,-0.13881 z m -3.02834,0.40107 -0.007,-0.024 0.0788,-0.0366 0.0788,-0.0366 0.16716,-0.081 0.16715,-0.081 0.40018,-0.13972 0.40015,-0.13981 0.66318,-0.21204 0.66315,-0.21205 0.65659,-0.1644 0.65659,-0.1644 0.2348,-0.0524 0.23479,-0.0524 -0.0923,-0.0319 -0.0923,-0.0319 -0.69936,-0.20011 -0.69934,-0.20011 -0.89346,-0.25515 -0.89344,-0.25515 -0.1029,-0.0312 -0.10287,-0.0311 -0.32672,0.10949 -0.32672,0.10948 -0.32432,0.11381 -0.32432,0.11381 -0.24404,0.087 -0.24404,0.087 -0.0271,-0.0458 -0.0271,-0.0459 -0.10877,0.0446 -0.10877,0.0446 -0.2053,0.0724 -0.20531,0.0724 -0.0435,0.0225 -0.0435,0.0225 0.23019,0.85647 0.23014,0.85648 -4.6e-4,0.0508 -4.5e-4,0.0508 0.14679,-0.0136 0.1468,-0.0136 0.30341,-0.0302 0.30341,-0.0302 0.19425,-0.0388 0.19425,-0.0388 z m 22.83323,-6.7765 0.15761,-0.27689 0.0145,-0.07 0.0145,-0.07 -0.0668,-0.10544 -0.0668,-0.10543 -0.14453,-0.12048 -0.14453,-0.12047 -0.16191,0.6123 -0.16192,0.61229 0.10409,-0.014 0.1041,-0.014 0.0971,-0.0257 0.0971,-0.0257 z m -24.37212,6.63499 -0.0895,-0.31387 -0.1409,-0.54851 -0.14091,-0.5485 -0.0842,0.024 -0.0842,0.024 -0.12767,0.0596 -0.12767,0.0595 -0.20945,0.0995 -0.20946,0.0995 -0.0665,0.0334 -0.0666,0.0334 0.19089,0.69393 0.19089,0.69391 0.17588,-0.009 0.17588,-0.009 0.29907,-0.0355 0.29909,-0.0355 0.0524,-0.004 0.0524,-0.004 z m 34.18461,-11.00822 0.0788,-0.11457 -0.91577,-0.19135 -0.91577,-0.19136 -0.51703,-0.10305 -0.51704,-0.10303 -0.29789,-0.0436 -0.29789,-0.0436 -0.32914,-0.028 -0.32913,-0.028 -0.30786,0.004 -0.30786,0.004 -0.39585,0.031 -0.39584,0.031 -0.28758,0.0341 -0.28757,0.0341 -0.36128,0.0677 -0.36126,0.0677 -0.52771,0.10957 -0.5277,0.10959 -1.36405,0.38795 -1.36405,0.38795 -0.53885,0.19554 -0.53885,0.19556 -0.51829,0.18427 -0.51829,0.18426 -0.0465,0.0248 -0.0465,0.0248 0.007,0.0227 0.007,0.0227 0.0943,0.0491 0.0943,0.0491 0.40427,0.30089 0.40426,0.30088 0.16603,0.12507 0.16603,0.12506 0.6161,-0.17578 0.6161,-0.17578 0.64403,-0.16041 0.644,-0.16047 0.33675,-0.0703 0.33673,-0.0703 0.56542,-0.10244 0.56543,-0.10243 0.32013,-0.0451 0.32014,-0.0451 0.18267,-0.0267 0.18265,-0.0267 0.15999,-0.0228 0.16,-0.0227 0.16009,-0.0225 0.16008,-0.0225 0.21824,-0.027 0.21825,-0.027 0.52853,-0.065 0.52853,-0.0651 0.13781,-0.0172 0.13781,-0.0172 0.16013,-0.0223 0.16014,-0.0223 0.15482,-0.0202 0.1548,-0.0202 0.1077,-0.007 0.1077,-0.007 0.39325,-0.0511 0.39327,-0.0511 0.15964,-0.024 0.15964,-0.024 0.53715,-0.11822 0.53713,-0.11821 0.27545,-0.0782 0.27545,-0.0782 z m -0.93876,0.22969 -0.4601,0.0965 -0.20419,0.0346 -0.2042,0.0346 -0.43386,0.0634 -0.43386,0.0634 -0.13163,0.018 -0.13161,0.018 -0.0167,-0.009 -0.0167,-0.009 0.10348,-0.53081 0.10348,-0.53081 0.0248,-0.007 0.0248,-0.007 0.16215,0.0264 0.16215,0.0263 1.06852,0.22266 1.06853,0.22267 0.007,0.0233 0.007,0.0233 -0.0188,0.0339 -0.0188,0.0339 -0.10013,0.0284 -0.10013,0.0284 z m -2.73429,0.40999 -0.33466,0.0467 -0.37826,0.0498 -0.37826,0.0498 -0.13809,0.0161 -0.13809,0.0162 -0.42555,0.0508 -0.42555,0.0508 -0.2628,0.0377 -0.2628,0.0377 -0.32059,0.0435 -0.32058,0.0435 -0.0974,0.0131 -0.0973,0.0131 -0.19784,-0.6932 -0.19784,-0.69321 0.28462,-0.0654 0.28462,-0.0654 0.50776,-0.0961 0.50775,-0.0961 0.39549,-0.0443 0.3955,-0.0443 0.38238,-0.0223 0.38237,-0.0223 0.34895,0.0141 0.34895,0.0142 0.37767,0.0523 0.37768,0.0523 0.003,0.009 0.003,0.009 -0.10872,0.57793 -0.10871,0.5779 -0.0356,0.0101 -0.0355,0.0101 z m -4.69139,0.70021 -0.40237,0.0903 -0.5125,0.12126 -0.51247,0.12127 -0.59884,0.17134 -0.59882,0.17132 -0.0328,-0.056 -0.0328,-0.056 -0.27553,-0.49224 -0.27552,-0.49225 0.0121,-0.009 0.0121,-0.009 0.44061,-0.16471 0.44062,-0.1647 1.015,-0.30178 1.015,-0.30183 0.25651,-0.0562 0.25651,-0.0562 0.19463,0.68198 0.19464,0.68198 -0.0969,0.0148 -0.0969,0.0148 z m -12.05113,4.1142 0.0197,-0.014 0.55073,-0.1956 0.55074,-0.1956 0.51566,-0.19348 0.51567,-0.19347 0.21375,-0.0844 0.21376,-0.0845 0.0518,-0.0269 0.0518,-0.0269 0.34253,-0.13337 0.34252,-0.13337 0.39426,-0.16043 0.39427,-0.16043 0.23589,-0.0902 0.23593,-0.0902 0.35321,-0.13756 0.35322,-0.13756 0.27953,-0.10403 0.27954,-0.10403 0.57629,-0.1894 0.57629,-0.18939 0.87574,-0.26035 0.87575,-0.26036 0.003,-0.007 0.003,-0.007 -0.46589,-0.34276 -0.46591,-0.34276 -0.16166,-0.11476 -0.16166,-0.11475 -0.0129,-0.0452 -0.0129,-0.0452 -0.0353,0.0219 -0.0353,0.0219 -0.11733,0.0473 -0.11732,0.0473 -0.0979,0.0388 -0.0979,0.0388 -0.18958,0.0788 -0.18957,0.0789 -0.30971,0.12333 -0.3097,0.12334 -0.93169,0.36099 -0.93169,0.36099 -0.12852,0.0498 -0.1285,0.0498 -0.0846,0.037 -0.0846,0.037 -0.17047,0.0694 -0.17049,0.0694 -1.10233,0.47148 -1.10235,0.47148 -0.1591,0.0676 -0.15911,0.0676 -0.35034,0.14769 -0.35032,0.1477 -0.71778,0.27706 -0.71778,0.27706 -0.0851,0.0353 -0.0851,0.0352 -0.23851,0.0811 -0.2385,0.0811 -0.45593,0.15276 -0.45591,0.15277 -0.57489,0.1645 -0.57487,0.16449 -0.23992,0.0192 -0.23991,0.0192 -0.18414,-0.0167 -0.18414,-0.0167 -0.19511,-0.0502 -0.1951,-0.0502 -0.19768,-0.0758 -0.19769,-0.0758 -0.23569,-0.12906 -0.23569,-0.12906 -0.28203,-0.22874 -0.28202,-0.22874 -0.88013,-0.70028 -0.88012,-0.70028 -1.01433,-0.80469 -1.01433,-0.8047 -0.21125,-0.16568 -0.21124,-0.16568 -0.0719,-0.0747 -0.0719,-0.0746 -1.2562,0.35249 -1.25619,0.3525 -0.0167,0.0381 -0.0167,0.0381 0.0454,0.0253 0.0454,0.0253 0.0527,-0.0151 0.0526,-0.0151 0.0363,0.0375 0.0363,0.0375 2.5e-4,0.4575 2.7e-4,0.45752 0.003,0.93878 0.003,0.93878 0.003,0.34404 0.003,0.34404 -4.5e-4,0.0415 -4.6e-4,0.0415 0.69141,-0.19132 0.69141,-0.19131 0.3152,1.12316 0.3152,1.12316 0.10436,0.4158 0.10437,0.4158 0.46467,-0.15005 0.46465,-0.15006 1.15474,-0.32955 1.15475,-0.32956 0.95043,-0.25361 0.95045,-0.25361 0.23412,-0.0548 0.23412,-0.0548 0.5532,-0.14526 0.55321,-0.14526 0.75403,-0.19173 0.75402,-0.19173 0.6912,-0.16179 0.69121,-0.16179 0.27828,-0.0668 0.27827,-0.0668 0.43127,-0.11412 0.43126,-0.11413 z m -10.5638,-2.05102 -0.0471,-0.16496 0.27495,-0.0784 0.27493,-0.0784 0.0471,0.16498 0.0471,0.16496 -0.27494,0.0784 -0.27493,0.0784 z m -2.06532,5.55693 0.47522,-0.1685 0.0383,-0.0323 0.0383,-0.0323 0.39216,-0.12609 0.39217,-0.12615 0.0433,-0.0258 0.0433,-0.0258 -0.24799,-0.92025 -0.248,-0.92026 -0.13935,-0.53742 -0.13934,-0.53742 -0.64221,0.18929 -0.64221,0.1893 0.002,0.18975 0.002,0.18975 0.003,1.14088 0.003,1.14089 0.002,0.30117 0.002,0.30117 0.004,0.0126 0.004,0.0126 0.0706,-0.0235 0.0706,-0.0234 z"
       id="path55"
       sodipodi:nodetypes="ccccccccccccccccccccccccccccccccccccccccccccccccccccccccccccccccccccccccccccccccccccccccccccccccccccccccccccccccccccccccccccccccccccccccccccccccccccccccccccccccccccccccccccccccccccccccccccccccccccccccccccccccccccccccccccccccccccccccccccccccccccccccccccccccccccccccccccccccccccccccccccccccccccccccccccccccccccccccccccccccccccccccccccccccccccccccccccccccccccccccccccccccccccccccccccccccccccccccccccccccccccccccccccccccccccccccccccccccccccccccccccccccccccccccccccccccccccccccccccccccccccccccccccccccccccccccccccccccccccccccccccccccccccccccccccccccccccccccccccccccccccccccccccccccccccccccccccccccccccccccccccccccccccccccccccccccccccccccccccccccccccccccccccccccccccccccccccccccccccccccccccccccccccccccccccccccccccccccccccccccccccccccccccccccccccccccccccccccccccccccccccccccccccccccccccccccccccccccccccccccccccccccccccccccccccccccc" /><path
       style="fill:#000000;stroke-width:0.244926"
       d="m 359.939,573.81867 0.17437,-0.0557 0.61963,-0.20424 0.61961,-0.2043 0.21774,-0.0705 0.21775,-0.0705 0.55107,-0.19443 0.55106,-0.19442 0.34597,-0.12132 0.34597,-0.12132 0.26879,-0.1 0.2688,-0.1 0.2869,-0.11991 0.2869,-0.11988 0.58321,-0.24849 0.58322,-0.24848 0.16692,-0.0819 0.16694,-0.0819 0.12786,-0.0521 0.12786,-0.0521 0.42919,-0.22831 0.4292,-0.22832 0.1381,-0.0953 0.13811,-0.0953 0.0802,-0.084 0.0802,-0.084 0.009,-0.0781 0.009,-0.0781 -0.0474,-0.0471 -0.0474,-0.047 -0.13081,-0.0237 -0.13082,-0.0237 -0.004,-0.0144 -0.6992,0.009 -0.23244,0.019 -0.23244,0.019 -0.58001,0.025 -0.58003,0.025 -0.21811,0.0122 -0.21811,0.0122 -1.36101,0.10687 -1.36101,0.10687 -0.65407,0.0418 -0.65406,0.0418 -0.0306,-0.003 -0.0306,-0.003 0.0272,0.0471 0.0272,0.047 -0.0953,0.12639 -0.0953,0.12639 -0.45734,0.13049 -0.45735,0.13051 -0.4382,0.0898 -0.4382,0.0898 -0.25115,0.0368 -0.25115,0.0367 -0.21863,0.0258 -0.21861,0.0258 -0.16057,0.0208 -0.16056,0.0208 -0.0935,0.006 -0.0935,0.006 -0.19439,0.0274 -0.19438,0.0273 -0.19437,0.0219 -0.19437,0.0219 -0.24198,0.0327 -0.24198,0.0327 -0.35639,0.0431 -0.35638,0.0431 -0.17161,0.0238 -0.17159,0.0238 -0.1377,0.0176 -0.13771,0.0176 -0.3427,0.0494 -0.34271,0.0493 -0.35369,0.0526 -0.3537,0.0526 -0.19306,0.032 -0.19311,0.0319 -0.24821,0.047 -0.24823,0.047 -0.28097,0.0573 -0.28096,0.0573 -0.57894,0.13843 -0.57895,0.13843 -1.52935,0.4338 -1.52937,0.4338 -0.70708,0.23119 -0.70708,0.2312 -0.31315,0.11129 -0.31314,0.11128 -0.25736,0.0984 -0.25736,0.0984 -0.22485,0.0873 -0.22484,0.0873 -0.72559,0.29141 -0.72558,0.2914 -0.1917,0.0784 -0.19173,0.0784 -0.21341,0.0856 -0.21343,0.0856 -0.23598,0.0899 -0.23599,0.0899 -0.23794,0.083 -0.23795,0.083 -0.0278,0.0278 -0.0278,0.0278 0.24206,-0.0687 0.24206,-0.0686 0.4353,-0.1 0.4353,-0.1 0.44629,-0.10318 0.44629,-0.10318 0.57024,-0.12719 0.57027,-0.12721 0.14534,-0.0325 0.14535,-0.0325 0.28193,-0.0539 0.28192,-0.054 0.30331,-0.0624 0.3033,-0.0625 0.31424,-0.0658 0.31424,-0.0658 0.29188,-0.0608 0.29188,-0.0608 0.31431,-0.0655 0.3143,-0.0655 0.292,-0.0604 0.292,-0.0603 0.61014,-0.11246 0.61015,-0.11245 0.17856,-0.041 0.17858,-0.0411 0.0919,-0.003 0.0919,-0.003 0.0688,0.0474 0.0688,0.0474 0.15186,0.12317 0.15187,0.12316 0.0696,0.10934 0.0696,0.10935 0.0204,0.0716 0.0204,0.0716 -0.005,0.0593 -0.005,0.0593 -0.0873,0.17973 -0.0873,0.17972 -0.11154,0.16559 -0.11153,0.1656 -0.29587,0.0844 -0.29587,0.0844 -0.0167,0.0378 -0.0166,0.0378 -0.20704,0.0845 -0.20704,0.0845 -0.23559,0.0913 -0.23559,0.0913 -0.23561,0.0913 -0.23559,0.0913 -0.24665,0.0942 -0.24665,0.0943 -0.29074,0.10643 -0.29074,0.10642 -0.69417,0.2348 -0.69415,0.2348 -0.36002,0.12626 -0.36003,0.12628 -0.42506,0.12331 -0.42507,0.12331 -0.0391,0.0299 -0.039,0.0299 0.58711,-0.15146 0.58712,-0.15146 0.73201,-0.18551 0.73201,-0.18553 0.44605,-0.10398 0.44605,-0.10398 1.17812,-0.28932 1.17811,-0.28931 0.5672,-0.13796 0.56718,-0.13795 0.67733,-0.16877 0.6773,-0.16878 0.31097,-0.0773 0.31096,-0.0773 1.08702,-0.27515 1.08702,-0.27514 0.93037,-0.2406 0.93036,-0.2406 1.09486,-0.28934 1.09484,-0.28941 0.0648,-0.0231 0.0647,-0.0231 z m -16.19254,4.04829 -0.0103,-0.0624 0.11675,-0.0493 0.11677,-0.0493 0.72988,-0.23462 0.72989,-0.23464 0.47803,-0.15861 0.47803,-0.15861 0.57331,-0.1999 0.57328,-0.1999 0.29047,-0.10741 0.29046,-0.10743 0.3536,-0.1362 0.35361,-0.13619 0.21312,-0.0867 0.21314,-0.0867 0.0206,-0.0301 0.0207,-0.03 0.0668,0.003 0.0668,0.003 0.16251,-0.0705 0.16251,-0.0705 0.19161,-0.71026 0.1916,-0.71027 -0.0878,0.005 -0.0878,0.005 -0.13288,0.0488 -0.13288,0.0488 -0.0257,-0.0143 -0.0258,-0.0143 -0.34863,0.0634 -0.34864,0.0635 -0.25912,0.0505 -0.25914,0.0505 -0.29186,0.0608 -0.29186,0.0609 -0.31451,0.0648 -0.31451,0.0648 -0.29164,0.0615 -0.29165,0.0615 -0.77468,0.16102 -0.77469,0.16102 -0.42752,0.0856 -0.42751,0.0856 -0.40217,0.0911 -0.40217,0.091 -0.47918,0.11297 -0.47917,0.11297 -0.52337,0.12476 -0.52338,0.12478 -0.47929,0.11253 -0.47928,0.11254 -1.30201,0.31364 -1.302,0.31366 -0.36917,0.0816 -0.36918,0.0816 -0.87523,0.22546 -0.87521,0.22546 -1.09513,0.28842 -1.09512,0.28841 -1.01114,0.26112 -1.01115,0.26111 -0.65221,0.20324 -0.65221,0.20324 -0.48385,0.15553 -0.48386,0.15554 -0.008,0.0146 -0.008,0.0145 0.84783,0.24352 0.84784,0.2435 0.62156,0.17757 0.62155,0.17758 0.34671,0.10047 0.34671,0.10049 0.26036,-0.057 0.26036,-0.057 0.0219,0.0767 0.0218,0.0767 -0.0417,0.0206 -0.0417,0.0206 -0.0248,0.038 -0.0249,0.038 -0.10649,0.0436 -0.10648,0.0436 -0.16985,0.0716 -0.16987,0.0716 -0.1772,0.0875 -0.17721,0.0875 -0.0983,0.0307 -0.0983,0.0307 -0.0505,0.0315 -0.0505,0.0315 0.46634,-0.11624 0.46634,-0.11625 1.1669,-0.28693 1.16692,-0.28692 0.22333,-0.0509 0.22333,-0.0509 1.40286,-0.37698 1.40287,-0.37698 1.29284,-0.34571 1.29284,-0.34572 1.46688,-0.41796 1.46689,-0.41798 z m -1.90662,0.25239 -0.54538,0.13099 -0.6251,0.14339 -0.6251,0.14338 -1.11572,0.25795 -1.1157,0.25794 -0.0816,0.006 -0.0816,0.006 -0.024,-0.0577 -0.024,-0.0578 0.0551,-0.0417 0.0551,-0.0417 0.29127,-0.10458 0.29127,-0.10458 0.42249,-0.1449 0.42248,-0.1449 0.42249,-0.14483 0.42251,-0.14484 0.41214,-0.13947 0.41214,-0.13948 0.5976,-0.19807 0.59759,-0.19808 0.63053,-0.16605 0.63052,-0.16606 0.39143,-0.087 0.39142,-0.087 0.41339,-0.0934 0.41341,-0.0934 0.34708,-0.0757 0.3471,-0.0757 0.25933,-0.0498 0.25933,-0.0498 0.20467,-0.033 0.20468,-0.033 0.0339,0.0145 0.0339,0.0145 0.0147,0.0516 0.0147,0.0516 -0.0326,0.0316 -0.0326,0.0316 -0.2023,0.0826 -0.20231,0.0826 -0.16126,0.0601 -0.16126,0.0601 -0.52967,0.18604 -0.52967,0.18605 -0.67549,0.21691 -0.67548,0.21688 -0.0861,0.0319 -0.0861,0.0319 -0.41668,0.12359 -0.41667,0.1236 z m 2.08349,-0.78422 0.46795,-0.15226 0.47639,-0.16435 0.47641,-0.16437 0.23753,-0.0845 0.23754,-0.0845 -0.2245,0.0469 -0.22451,0.0469 -0.33613,0.0724 -0.33613,0.0724 -0.34715,0.0755 -0.34715,0.0755 -0.50229,0.11529 -0.5023,0.11529 -0.70419,0.19964 -0.70419,0.19963 -0.79157,0.26854 -0.79157,0.26854 -0.038,0.0335 -0.038,0.0336 -0.11103,0.0277 -0.11103,0.0277 -0.32426,0.10845 -0.32426,0.10844 -0.005,0.01 -0.005,0.01 0.34006,-0.0817 0.34004,-0.0817 0.44637,-0.10287 0.44637,-0.10286 0.3803,-0.0843 0.38031,-0.0843 1.03594,-0.28738 1.03596,-0.28736 z m -9.14642,1.04009 -0.10044,-0.35192 0.31893,-0.091 0.31893,-0.091 0.10043,0.35192 0.10044,0.35192 -0.31892,0.091 -0.31893,0.091 z m -4.02509,3.13861 0.494,-0.23809 -0.0352,-0.0318 -0.0352,-0.0318 0.0159,-0.0256 0.0159,-0.0256 0.49247,-0.23309 0.49246,-0.23308 -0.24634,0.0537 -0.24633,0.0537 -0.66595,0.16694 -0.66595,0.16693 -0.61049,0.19461 -0.61048,0.19461 -0.44541,0.15632 -0.44541,0.15633 0.16006,0.14207 0.16008,0.1421 0.0408,0.009 0.0408,0.009 0.32535,-0.0553 0.32535,-0.0553 0.47468,-0.13882 0.47467,-0.13881 z m -3.02833,0.40107 -0.007,-0.024 0.0788,-0.0366 0.0788,-0.0366 0.16716,-0.081 0.16716,-0.081 0.40017,-0.13973 0.40016,-0.1398 0.66317,-0.21204 0.66315,-0.21205 0.65659,-0.16441 0.6566,-0.16439 0.23479,-0.0524 0.23479,-0.0524 -0.0924,-0.0319 -0.0923,-0.0319 -0.69935,-0.20011 -0.69934,-0.20012 -0.89347,-0.25515 -0.89344,-0.25514 -0.1029,-0.0312 -0.10287,-0.0311 -0.32672,0.10949 -0.32672,0.10949 -0.32432,0.1138 -0.32432,0.11381 -0.24404,0.087 -0.24404,0.087 -0.0271,-0.0458 -0.0271,-0.0459 -0.10877,0.0446 -0.10877,0.0446 -0.20531,0.0724 -0.2053,0.0724 -0.0435,0.0225 -0.0435,0.0225 0.2302,0.85647 0.23013,0.85648 -4.5e-4,0.0508 -4.6e-4,0.0508 0.14679,-0.0136 0.1468,-0.0136 0.30341,-0.0302 0.30341,-0.0302 0.19425,-0.0388 0.19426,-0.0388 z m 22.83322,-6.77649 0.15761,-0.2769 0.0145,-0.07 0.0145,-0.07 -0.0668,-0.10544 -0.0668,-0.10544 -0.14453,-0.12047 -0.14453,-0.12047 -0.1619,0.6123 -0.16192,0.61229 0.10409,-0.014 0.10409,-0.014 0.0971,-0.0257 0.0971,-0.0257 z m -24.37211,6.63498 -0.0895,-0.31387 -0.1409,-0.5485 -0.1409,-0.5485 -0.0842,0.024 -0.0842,0.024 -0.12767,0.0596 -0.12767,0.0595 -0.20945,0.0995 -0.20946,0.0995 -0.0666,0.0334 -0.0666,0.0334 0.19089,0.69393 0.1909,0.69392 0.17588,-0.009 0.17587,-0.009 0.29907,-0.0356 0.29909,-0.0355 0.0524,-0.004 0.0524,-0.004 z m 34.1846,-11.00821 0.0788,-0.11457 -0.91577,-0.19135 -0.91577,-0.19137 -0.51703,-0.10304 -0.51704,-0.10304 -0.29789,-0.0436 -0.29789,-0.0436 -0.32914,-0.028 -0.32913,-0.028 -0.30786,0.004 -0.30786,0.004 -0.39584,0.031 -0.39585,0.031 -0.28757,0.0341 -0.28759,0.0341 -0.36126,0.0677 -0.36127,0.0677 -0.52771,0.10957 -0.52771,0.10959 -1.36404,0.38795 -1.36405,0.38796 -0.53886,0.19554 -0.53884,0.19555 -0.51829,0.18427 -0.51829,0.18426 -0.0465,0.0248 -0.0464,0.0248 0.007,0.0227 0.007,0.0227 0.0943,0.0491 0.0943,0.0491 0.40427,0.30089 0.40425,0.30089 0.16604,0.12506 0.16603,0.12507 0.6161,-0.17578 0.6161,-0.17579 0.64403,-0.16041 0.644,-0.16047 0.33674,-0.0703 0.33673,-0.0703 0.56543,-0.10243 0.56543,-0.10244 0.32013,-0.0451 0.32013,-0.0451 0.18267,-0.0267 0.18265,-0.0267 0.15999,-0.0227 0.16001,-0.0228 0.16008,-0.0225 0.16009,-0.0225 0.21824,-0.027 0.21824,-0.027 0.52854,-0.065 0.52852,-0.065 0.13782,-0.0172 0.1378,-0.0172 0.16014,-0.0223 0.16014,-0.0223 0.15482,-0.0202 0.1548,-0.0202 0.10769,-0.007 0.1077,-0.007 0.39325,-0.0511 0.39328,-0.0511 0.15964,-0.024 0.15964,-0.024 0.53715,-0.11822 0.53713,-0.11821 0.27545,-0.0782 0.27545,-0.0782 z m -0.93876,0.22969 -0.4601,0.0965 -0.20419,0.0346 -0.2042,0.0346 -0.43386,0.0634 -0.43386,0.0634 -0.13163,0.018 -0.13162,0.018 -0.0167,-0.009 -0.0167,-0.009 0.10348,-0.53081 0.10348,-0.53081 0.0248,-0.007 0.0248,-0.007 0.16215,0.0264 0.16214,0.0264 1.06852,0.22266 1.06853,0.22267 0.007,0.0233 0.007,0.0233 -0.0188,0.0339 -0.0188,0.0339 -0.10013,0.0284 -0.10013,0.0284 z m -2.73429,0.40998 -0.33466,0.0467 -0.37826,0.0498 -0.37826,0.0498 -0.13808,0.0161 -0.1381,0.0161 -0.42555,0.0508 -0.42555,0.0508 -0.2628,0.0377 -0.2628,0.0376 -0.32059,0.0435 -0.32058,0.0435 -0.0974,0.0131 -0.0973,0.0131 -0.19784,-0.6932 -0.19783,-0.69321 0.28461,-0.0654 0.28462,-0.0654 0.50776,-0.0961 0.50776,-0.0961 0.39548,-0.0443 0.3955,-0.0443 0.38238,-0.0223 0.38237,-0.0223 0.34895,0.0141 0.34895,0.0142 0.37767,0.0523 0.37768,0.0523 0.003,0.009 0.003,0.009 -0.10872,0.57792 -0.1087,0.57791 -0.0356,0.0101 -0.0355,0.0101 z m -4.69139,0.70022 -0.40238,0.0903 -0.51248,0.12127 -0.51248,0.12126 -0.59884,0.17134 -0.59882,0.17133 -0.0328,-0.056 -0.0328,-0.056 -0.27552,-0.49224 -0.27553,-0.49225 0.0121,-0.009 0.0121,-0.009 0.44062,-0.16471 0.44061,-0.16471 1.01501,-0.30176 1.01499,-0.30184 0.25651,-0.0562 0.25651,-0.0562 0.19463,0.68198 0.19464,0.68199 -0.0969,0.0148 -0.0969,0.0148 z m -12.05113,4.1142 0.0197,-0.014 0.55072,-0.19561 0.55075,-0.1956 0.51566,-0.19347 0.51566,-0.19347 0.21376,-0.0845 0.21375,-0.0845 0.0518,-0.0269 0.0518,-0.0269 0.34253,-0.13336 0.34252,-0.13337 0.39426,-0.16043 0.39427,-0.16044 0.23589,-0.0902 0.23592,-0.0902 0.35322,-0.13756 0.35322,-0.13756 0.27953,-0.10403 0.27954,-0.10403 0.57629,-0.1894 0.57629,-0.18939 0.87574,-0.26035 0.87575,-0.26036 0.003,-0.007 0.003,-0.007 -0.46589,-0.34276 -0.46591,-0.34276 -0.16165,-0.11476 -0.16166,-0.11476 -0.0129,-0.0452 -0.0129,-0.0452 -0.0353,0.0219 -0.0353,0.0219 -0.11733,0.0473 -0.11731,0.0473 -0.098,0.0388 -0.0979,0.0388 -0.18957,0.0788 -0.18958,0.0789 -0.3097,0.12334 -0.3097,0.12334 -0.9317,0.36099 -0.93168,0.36099 -0.12852,0.0498 -0.12851,0.0498 -0.0846,0.037 -0.0846,0.037 -0.17047,0.0694 -0.17048,0.0694 -1.10234,0.47147 -1.10234,0.47148 -0.15911,0.0676 -0.15911,0.0676 -0.35033,0.14769 -0.35032,0.14769 -0.71778,0.27707 -0.71778,0.27706 -0.0851,0.0353 -0.0851,0.0352 -0.23852,0.0811 -0.2385,0.0811 -0.45592,0.15277 -0.45592,0.15277 -0.57488,0.16449 -0.57487,0.1645 -0.23992,0.0192 -0.23991,0.0192 -0.18414,-0.0167 -0.18414,-0.0167 -0.19511,-0.0502 -0.19511,-0.0502 -0.19767,-0.0758 -0.19769,-0.0758 -0.23569,-0.12907 -0.2357,-0.12907 -0.28203,-0.22873 -0.28201,-0.22874 -0.88013,-0.70028 -0.88013,-0.70028 -1.01433,-0.80469 -1.01433,-0.8047 -0.21124,-0.16568 -0.21125,-0.16569 -0.0719,-0.0747 -0.0719,-0.0746 -1.2562,0.35249 -1.25618,0.3525 -0.0167,0.0381 -0.0167,0.0381 0.0454,0.0253 0.0454,0.0253 0.0526,-0.0151 0.0527,-0.0151 0.0363,0.0375 0.0363,0.0375 2.6e-4,0.4575 2.6e-4,0.45752 0.003,0.93877 0.003,0.93879 0.003,0.34403 0.003,0.34404 -4.6e-4,0.0415 -4.6e-4,0.0415 0.69141,-0.19132 0.69142,-0.19132 0.31519,1.12317 0.31519,1.12316 0.10437,0.4158 0.10437,0.4158 0.46467,-0.15005 0.46465,-0.15006 1.15475,-0.32955 1.15474,-0.32955 0.95043,-0.25361 0.95045,-0.25362 0.23412,-0.0548 0.23412,-0.0548 0.55321,-0.14524 0.55321,-0.14526 0.75402,-0.19174 0.75402,-0.19173 0.6912,-0.16179 0.69122,-0.16179 0.27827,-0.0668 0.27827,-0.0668 0.43127,-0.11413 0.43125,-0.11411 z m -10.5638,-2.05103 -0.0471,-0.16496 0.27494,-0.0784 0.27494,-0.0784 0.0471,0.16497 0.0471,0.16497 -0.27494,0.0784 -0.27493,0.0784 z m -2.06531,5.55693 0.47522,-0.1685 0.0383,-0.0323 0.0383,-0.0323 0.39217,-0.12609 0.39216,-0.12615 0.0433,-0.0259 0.0433,-0.0258 -0.24799,-0.92026 -0.24801,-0.92026 -0.13933,-0.53741 -0.13936,-0.53743 -0.6422,0.1893 -0.64221,0.1893 0.002,0.18975 0.002,0.18975 0.003,1.14088 0.003,1.14088 0.002,0.30117 0.002,0.30117 0.004,0.0126 0.004,0.0125 0.0706,-0.0235 0.0706,-0.0234 z"
       id="path55-9"
       sodipodi:nodetypes="cccccccccccccccccccccccccccccccccccccccccccccccccccccccccccccccccccccccccccccccccccccccccccccccccccccccccccccccccccccccccccccccccccccccccccccccccccccccccccccccccccccccccccccccccccccccccccccccccccccccccccccccccccccccccccccccccccccccccccccccccccccccccccccccccccccccccccccccccccccccccccccccccccccccccccccccccccccccccccccccccccccccccccccccccccccccccccccccccccccccccccccccccccccccccccccccccccccccccccccccccccccccccccccccccccccccccccccccccccccccccccccccccccccccccccccccccccccccccccccccccccccccccccccccccccccccccccccccccccccccccccccccccccccccccccccccccccccccccccccccccccccccccccccccccccccccccccccccccccccccccccccccccccccccccccccccccccccccccccccccccccccccccccccccccccccccccccccccccccccccccccccccccccccccccccccccccccccccccccccccccccccccccccccccccccccccccccccccccccccccccccccccccccccccccccccccccccccccccccccccccccccccccccccccccccccccc" /><path
       style="fill:#000000;stroke-width:0.244926"
       d="m 395.69819,541.04159 0.17438,-0.0557 0.61962,-0.20425 0.61961,-0.20429 0.21775,-0.0705 0.21775,-0.0705 0.55107,-0.19442 0.55106,-0.19442 0.34596,-0.12132 0.34597,-0.12133 0.2688,-0.1 0.2688,-0.1 0.28689,-0.1199 0.28691,-0.11989 0.58321,-0.24849 0.58321,-0.24848 0.16693,-0.0819 0.16694,-0.0819 0.12785,-0.0521 0.12787,-0.0521 0.42919,-0.22831 0.4292,-0.22832 0.1381,-0.0953 0.1381,-0.0953 0.0802,-0.084 0.0802,-0.084 0.009,-0.0781 0.009,-0.0781 -0.0474,-0.0471 -0.0474,-0.047 -0.13081,-0.0237 -0.13082,-0.0237 -0.004,-0.0144 -0.004,-0.0145 -0.69501,0.0237 -0.23244,0.019 -0.23244,0.019 -0.58001,0.025 -0.58003,0.025 -0.21811,0.0122 -0.21811,0.0122 -1.36101,0.10687 -1.36101,0.10687 -0.65407,0.0419 -0.65406,0.0418 -0.0306,-0.003 -0.0306,-0.003 0.0272,0.047 0.0272,0.0471 -0.0953,0.12639 -0.0953,0.12638 -0.45734,0.13049 -0.45735,0.13052 -0.4382,0.0898 -0.43819,0.0898 -0.25115,0.0368 -0.25116,0.0367 -0.21863,0.0258 -0.21861,0.0258 -0.16056,0.0208 -0.16057,0.0208 -0.0935,0.006 -0.0935,0.006 -0.19439,0.0274 -0.19438,0.0273 -0.19437,0.0219 -0.19437,0.0219 -0.24198,0.0327 -0.24198,0.0327 -0.35639,0.0431 -0.35638,0.0431 -0.1716,0.0238 -0.1716,0.0238 -0.13769,0.0176 -0.13772,0.0176 -0.3427,0.0494 -0.34271,0.0493 -0.35368,0.0526 -0.3537,0.0526 -0.19307,0.032 -0.19311,0.0319 -0.24821,0.047 -0.24823,0.0471 -0.28097,0.0573 -0.28097,0.0573 -0.57893,0.13843 -0.57895,0.13843 -1.52936,0.4338 -1.52936,0.4338 -0.70708,0.23119 -0.70708,0.2312 -0.31314,0.11128 -0.31315,0.11129 -0.25736,0.0984 -0.25736,0.0984 -0.22485,0.0873 -0.22484,0.0873 -0.72559,0.2914 -0.72557,0.29141 -0.19171,0.0784 -0.19172,0.0784 -0.21342,0.0856 -0.21343,0.0856 -0.23598,0.0899 -0.23599,0.0899 -0.23794,0.083 -0.23795,0.083 -0.0278,0.0278 -0.0278,0.0278 0.24206,-0.0686 0.24206,-0.0686 0.4353,-0.1 0.4353,-0.1 0.44629,-0.10318 0.44629,-0.10318 0.57024,-0.1272 0.57027,-0.1272 0.14534,-0.0325 0.14535,-0.0325 0.28193,-0.0539 0.28192,-0.054 0.30331,-0.0624 0.3033,-0.0625 0.31425,-0.0658 0.31424,-0.0658 0.29187,-0.0608 0.29188,-0.0608 0.31431,-0.0655 0.3143,-0.0655 0.292,-0.0603 0.292,-0.0603 0.61014,-0.11246 0.61015,-0.11245 0.17856,-0.041 0.17858,-0.0411 0.0919,-0.003 0.0919,-0.003 0.0688,0.0474 0.0688,0.0474 0.15186,0.12317 0.15187,0.12316 0.0696,0.10934 0.0696,0.10935 0.0204,0.0716 0.0204,0.0716 -0.005,0.0593 -0.005,0.0593 -0.0872,0.17972 -0.0873,0.17973 -0.11154,0.16559 -0.11153,0.1656 -0.29587,0.0845 -0.29587,0.0844 -0.0167,0.0378 -0.0166,0.0378 -0.20705,0.0845 -0.20703,0.0845 -0.2356,0.0913 -0.23559,0.0913 -0.2356,0.0913 -0.23559,0.0913 -0.24665,0.0942 -0.24665,0.0942 -0.29074,0.10643 -0.29075,0.10643 -0.69416,0.23479 -0.69415,0.2348 -0.36003,0.12627 -0.36002,0.12626 -0.42506,0.12333 -0.42507,0.1233 -0.0391,0.0299 -0.039,0.03 0.58712,-0.15145 0.58711,-0.15146 0.73202,-0.18552 0.73201,-0.18553 0.44605,-0.10397 0.44605,-0.10399 1.17812,-0.28932 1.17811,-0.28931 0.56719,-0.13796 0.56719,-0.13795 0.67732,-0.16877 0.67731,-0.16878 0.31097,-0.0773 0.31096,-0.0773 1.08702,-0.27515 1.08701,-0.27514 0.93037,-0.2406 0.93037,-0.2406 1.09486,-0.28933 1.09484,-0.28942 0.0648,-0.0231 0.0647,-0.0231 z m -16.19254,4.04829 -0.0103,-0.0625 0.11676,-0.0493 0.11676,-0.0493 0.72988,-0.23462 0.72989,-0.23464 0.47803,-0.15861 0.47804,-0.15861 0.5733,-0.19991 0.57328,-0.19989 0.29047,-0.10741 0.29046,-0.10743 0.3536,-0.1362 0.35361,-0.13619 0.21312,-0.0867 0.21315,-0.0867 0.0206,-0.0301 0.0207,-0.03 0.0668,0.003 0.0668,0.003 0.1625,-0.0705 0.16251,-0.0705 0.19161,-0.71026 0.1916,-0.71026 -0.0878,0.005 -0.0878,0.005 -0.13289,0.0488 -0.13288,0.0488 -0.0257,-0.0143 -0.0258,-0.0143 -0.34863,0.0635 -0.34865,0.0634 -0.25912,0.0505 -0.25913,0.0505 -0.29186,0.0609 -0.29187,0.0608 -0.3145,0.0648 -0.31451,0.0648 -0.29165,0.0615 -0.29165,0.0615 -0.77468,0.16102 -0.77468,0.16101 -0.42753,0.0856 -0.42751,0.0856 -0.40217,0.0911 -0.40217,0.091 -0.47917,0.11297 -0.47917,0.11297 -0.52337,0.12476 -0.52338,0.12478 -0.47929,0.11254 -0.47929,0.11253 -1.302,0.31365 -1.302,0.31365 -0.36917,0.0816 -0.36919,0.0816 -0.87522,0.22546 -0.87522,0.22546 -1.09513,0.28842 -1.09511,0.28841 -1.01115,0.26112 -1.01115,0.26111 -0.65221,0.20324 -0.65221,0.20324 -0.48384,0.15554 -0.48386,0.15553 -0.008,0.0146 -0.008,0.0145 0.84783,0.24351 0.84784,0.24351 0.62156,0.17757 0.62155,0.17758 0.3467,0.10047 0.34672,0.10048 0.26035,-0.057 0.26036,-0.057 0.0219,0.0767 0.0218,0.0767 -0.0417,0.0206 -0.0417,0.0206 -0.0249,0.038 -0.0248,0.038 -0.10648,0.0436 -0.10648,0.0436 -0.16986,0.0716 -0.16986,0.0716 -0.17721,0.0875 -0.17721,0.0875 -0.0983,0.0307 -0.0983,0.0307 -0.0505,0.0315 -0.0505,0.0315 0.46634,-0.11625 0.46635,-0.11624 1.1669,-0.28693 1.16691,-0.28692 0.22333,-0.0509 0.22334,-0.0509 1.40286,-0.37698 1.40286,-0.37698 1.29284,-0.34572 1.29285,-0.34571 1.46688,-0.41797 1.46689,-0.41797 z m -1.90661,0.2524 -0.54538,0.13098 -0.6251,0.14338 -0.6251,0.14339 -1.11572,0.25795 -1.11571,0.25794 -0.0816,0.006 -0.0816,0.006 -0.024,-0.0578 -0.024,-0.0578 0.0551,-0.0417 0.0551,-0.0417 0.29127,-0.10458 0.29128,-0.10458 0.42248,-0.14489 0.42249,-0.1449 0.42248,-0.14484 0.42252,-0.14484 0.41213,-0.13947 0.41214,-0.13948 0.59761,-0.19807 0.59759,-0.19807 0.63052,-0.16606 0.63053,-0.16605 0.39142,-0.0871 0.39142,-0.087 0.4134,-0.0934 0.4134,-0.0934 0.34709,-0.0757 0.34709,-0.0757 0.25933,-0.0498 0.25933,-0.0498 0.20468,-0.033 0.20467,-0.033 0.0339,0.0145 0.0339,0.0145 0.0147,0.0516 0.0147,0.0516 -0.0326,0.0316 -0.0326,0.0316 -0.2023,0.0826 -0.2023,0.0826 -0.16127,0.0601 -0.16125,0.0601 -0.52968,0.18604 -0.52966,0.18605 -0.6755,0.21691 -0.67547,0.21689 -0.0861,0.0319 -0.0861,0.0319 -0.41668,0.12359 -0.41667,0.1236 z m 2.08348,-0.78423 0.46796,-0.15226 0.47639,-0.16436 0.4764,-0.16436 0.23753,-0.0845 0.23754,-0.0845 -0.2245,0.0469 -0.2245,0.0469 -0.33614,0.0724 -0.33613,0.0724 -0.34714,0.0755 -0.34716,0.0755 -0.50228,0.11529 -0.5023,0.1153 -0.70419,0.19962 -0.7042,0.19964 -0.79156,0.26854 -0.79158,0.26854 -0.038,0.0335 -0.038,0.0335 -0.11104,0.0277 -0.11103,0.0277 -0.32426,0.10845 -0.32426,0.10844 -0.005,0.01 -0.005,0.01 0.34006,-0.0817 0.34004,-0.0817 0.44638,-0.10287 0.44636,-0.10287 0.38031,-0.0843 0.3803,-0.0843 1.03594,-0.28738 1.03596,-0.28736 z m -9.14641,1.04009 -0.10044,-0.35192 0.31893,-0.091 0.31893,-0.091 0.10043,0.35192 0.10043,0.35191 -0.31892,0.091 -0.31893,0.091 z m -4.0251,3.13861 0.49401,-0.23809 -0.0352,-0.0318 -0.0352,-0.0318 0.0159,-0.0256 0.0159,-0.0256 0.49247,-0.23308 0.49245,-0.23309 -0.24633,0.0537 -0.24634,0.0537 -0.66595,0.16694 -0.66595,0.16692 -0.61049,0.19461 -0.61047,0.19461 -0.44542,0.15632 -0.44541,0.15633 0.16007,0.14208 0.16008,0.14209 0.0408,0.009 0.0408,0.009 0.32535,-0.0553 0.32535,-0.0553 0.47468,-0.13882 0.47467,-0.13882 z m -3.02833,0.40107 -0.007,-0.024 0.0788,-0.0366 0.0788,-0.0366 0.16716,-0.081 0.16716,-0.081 0.40017,-0.13972 0.40015,-0.1398 0.66318,-0.21204 0.66315,-0.21205 0.65659,-0.16441 0.6566,-0.16439 0.23479,-0.0524 0.23479,-0.0524 -0.0923,-0.0319 -0.0923,-0.0319 -0.69935,-0.20011 -0.69934,-0.20012 -0.89347,-0.25515 -0.89344,-0.25514 -0.1029,-0.0312 -0.10288,-0.0311 -0.32671,0.10949 -0.32672,0.10948 -0.32432,0.11381 -0.32432,0.1138 -0.24404,0.087 -0.24404,0.087 -0.0271,-0.0458 -0.0271,-0.0459 -0.10877,0.0446 -0.10877,0.0446 -0.20531,0.0724 -0.2053,0.0724 -0.0435,0.0225 -0.0435,0.0225 0.2302,0.85647 0.23013,0.85648 -4.6e-4,0.0508 -4.5e-4,0.0508 0.14679,-0.0136 0.1468,-0.0136 0.30341,-0.0302 0.30341,-0.0302 0.19425,-0.0388 0.19425,-0.0388 z m 22.83322,-6.77649 0.15762,-0.2769 0.0145,-0.07 0.0145,-0.07 -0.0668,-0.10544 -0.0668,-0.10544 -0.14453,-0.12048 -0.14453,-0.12047 -0.16191,0.6123 -0.16192,0.6123 0.10409,-0.014 0.10409,-0.014 0.0971,-0.0257 0.0971,-0.0257 z m -24.37211,6.63498 -0.0895,-0.31387 -0.1409,-0.5485 -0.14091,-0.5485 -0.0842,0.024 -0.0842,0.024 -0.12767,0.0596 -0.12767,0.0595 -0.20944,0.0995 -0.20947,0.0995 -0.0666,0.0334 -0.0665,0.0334 0.19088,0.69393 0.1909,0.69392 0.17588,-0.009 0.17587,-0.009 0.29907,-0.0355 0.2991,-0.0355 0.0524,-0.004 0.0524,-0.004 z m 34.18461,-11.00821 0.0788,-0.11458 -0.91576,-0.19135 -0.91577,-0.19136 -0.51704,-0.10305 -0.51703,-0.10303 -0.29789,-0.0436 -0.2979,-0.0436 -0.32913,-0.028 -0.32913,-0.028 -0.30786,0.004 -0.30787,0.004 -0.39584,0.031 -0.39584,0.031 -0.28758,0.0341 -0.28758,0.0341 -0.36127,0.0677 -0.36127,0.0677 -0.5277,0.10958 -0.52771,0.10958 -1.36405,0.38796 -1.36404,0.38795 -0.53886,0.19554 -0.53885,0.19556 -0.51828,0.18426 -0.51829,0.18427 -0.0465,0.0248 -0.0465,0.0248 0.007,0.0227 0.007,0.0227 0.0943,0.0491 0.0943,0.0491 0.40427,0.30089 0.40425,0.30089 0.16604,0.12507 0.16604,0.12506 0.61609,-0.17578 0.6161,-0.17579 0.64403,-0.1604 0.644,-0.16047 0.33674,-0.0703 0.33674,-0.0703 0.56542,-0.10243 0.56543,-0.10243 0.32013,-0.0451 0.32014,-0.0451 0.18267,-0.0267 0.18265,-0.0267 0.15999,-0.0228 0.16,-0.0228 0.16008,-0.0225 0.16009,-0.0225 0.21824,-0.027 0.21825,-0.027 0.52853,-0.065 0.52853,-0.065 0.13781,-0.0172 0.13781,-0.0172 0.16013,-0.0223 0.16014,-0.0223 0.15482,-0.0202 0.15481,-0.0202 0.10768,-0.007 0.10771,-0.007 0.39325,-0.0511 0.39327,-0.0511 0.15964,-0.024 0.15964,-0.024 0.53715,-0.11822 0.53713,-0.11822 0.27545,-0.0782 0.27545,-0.0782 z m -0.93877,0.22968 -0.46009,0.0965 -0.20419,0.0346 -0.2042,0.0346 -0.43386,0.0634 -0.43386,0.0634 -0.13163,0.018 -0.13162,0.018 -0.0167,-0.009 -0.0167,-0.009 0.10348,-0.53081 0.10348,-0.53081 0.0248,-0.007 0.0248,-0.007 0.16215,0.0264 0.16214,0.0264 1.06852,0.22267 1.06853,0.22266 0.007,0.0233 0.007,0.0233 -0.0188,0.0339 -0.0188,0.0339 -0.10013,0.0284 -0.10013,0.0283 z m -2.73428,0.40999 -0.33466,0.0467 -0.37826,0.0498 -0.37826,0.0498 -0.13809,0.0161 -0.1381,0.0161 -0.42554,0.0508 -0.42555,0.0508 -0.2628,0.0376 -0.26281,0.0376 -0.32058,0.0435 -0.32059,0.0435 -0.0973,0.0131 -0.0974,0.0131 -0.19783,-0.69321 -0.19784,-0.69321 0.28462,-0.0654 0.28461,-0.0654 0.50776,-0.0961 0.50776,-0.0961 0.39549,-0.0443 0.3955,-0.0443 0.38237,-0.0223 0.38238,-0.0223 0.34895,0.0141 0.34894,0.0142 0.37768,0.0523 0.37767,0.0523 0.003,0.009 0.003,0.009 -0.10871,0.57793 -0.10871,0.5779 -0.0356,0.0101 -0.0355,0.0101 z m -4.69139,0.70021 -0.40238,0.0903 -0.51249,0.12127 -0.51248,0.12127 -0.59883,0.17133 -0.59883,0.17133 -0.0328,-0.056 -0.0328,-0.056 -0.27553,-0.49224 -0.27552,-0.49224 0.0121,-0.009 0.0121,-0.009 0.44062,-0.16471 0.44061,-0.1647 1.01501,-0.30177 1.015,-0.30184 0.25651,-0.0562 0.2565,-0.0562 0.19464,0.68198 0.19464,0.68198 -0.0969,0.0148 -0.0969,0.0148 z m -12.05113,4.11421 0.0197,-0.014 0.55073,-0.1956 0.55074,-0.1956 0.51566,-0.19347 0.51566,-0.19347 0.21376,-0.0845 0.21376,-0.0845 0.0518,-0.0269 0.0518,-0.0269 0.34252,-0.13337 0.34252,-0.13337 0.39427,-0.16043 0.39426,-0.16043 0.2359,-0.0902 0.23592,-0.0902 0.35322,-0.13756 0.35321,-0.13755 0.27954,-0.10403 0.27953,-0.10404 0.57629,-0.1894 0.5763,-0.18939 0.87574,-0.26035 0.87574,-0.26036 0.003,-0.007 0.003,-0.007 -0.46589,-0.34276 -0.46591,-0.34276 -0.16165,-0.11476 -0.16166,-0.11475 -0.0129,-0.0452 -0.0129,-0.0452 -0.0353,0.0219 -0.0353,0.0219 -0.11733,0.0473 -0.11731,0.0473 -0.098,0.0388 -0.0979,0.0388 -0.18957,0.0789 -0.18958,0.0788 -0.3097,0.12334 -0.3097,0.12333 -0.9317,0.36099 -0.93168,0.361 -0.12852,0.0498 -0.12851,0.0498 -0.0846,0.037 -0.0846,0.037 -0.17047,0.0694 -0.17048,0.0694 -1.10234,0.47147 -1.10234,0.47148 -0.15911,0.0676 -0.15911,0.0675 -0.35033,0.14769 -0.35032,0.1477 -0.71778,0.27706 -0.71778,0.27707 -0.0851,0.0353 -0.0851,0.0352 -0.2385,0.0811 -0.23851,0.0811 -0.45593,0.15277 -0.45591,0.15277 -0.57488,0.1645 -0.57487,0.16449 -0.23992,0.0192 -0.23991,0.0192 -0.18414,-0.0167 -0.18414,-0.0167 -0.19511,-0.0502 -0.19511,-0.0502 -0.19768,-0.0758 -0.19768,-0.0758 -0.23569,-0.12906 -0.2357,-0.12907 -0.28203,-0.22873 -0.28201,-0.22874 -0.88013,-0.70028 -0.88013,-0.70028 -1.01432,-0.80469 -1.01434,-0.8047 -0.21124,-0.16568 -0.21125,-0.16569 -0.0719,-0.0747 -0.0719,-0.0746 -1.25619,0.35249 -1.25619,0.35249 -0.0167,0.0381 -0.0167,0.0381 0.0454,0.0253 0.0454,0.0253 0.0526,-0.0151 0.0527,-0.0151 0.0363,0.0375 0.0363,0.0375 2.6e-4,0.4575 2.7e-4,0.45751 0.003,0.93879 0.003,0.93878 0.003,0.34403 0.003,0.34404 -4.6e-4,0.0415 -4.5e-4,0.0415 0.69141,-0.19132 0.69141,-0.19131 0.3152,1.12317 0.31519,1.12315 0.10437,0.4158 0.10437,0.4158 0.46466,-0.15005 0.46466,-0.15006 1.15474,-0.32955 1.15474,-0.32955 0.95043,-0.25361 0.95045,-0.25361 0.23413,-0.0548 0.23412,-0.0548 0.5532,-0.14525 0.55321,-0.14526 0.75402,-0.19173 0.75402,-0.19174 0.69121,-0.16178 0.69121,-0.1618 0.27827,-0.0668 0.27828,-0.0668 0.43126,-0.11412 0.43126,-0.11412 z m -10.5638,-2.05103 -0.0471,-0.16496 0.27494,-0.0784 0.27494,-0.0784 0.0471,0.16497 0.0471,0.16497 -0.27494,0.0784 -0.27493,0.0784 z m -2.06532,5.55693 0.47522,-0.1685 0.0383,-0.0323 0.0383,-0.0323 0.39217,-0.1261 0.39216,-0.12614 0.0434,-0.0258 0.0433,-0.0259 -0.248,-0.92025 -0.24801,-0.92026 -0.13933,-0.53742 -0.13935,-0.53742 -0.64221,0.1893 -0.64221,0.18929 0.002,0.18975 0.002,0.18976 0.003,1.14088 0.003,1.14088 0.002,0.30117 0.002,0.30117 0.004,0.0126 0.004,0.0125 0.0706,-0.0235 0.0706,-0.0234 z"
       id="path55-0"
       sodipodi:nodetypes="ccccccccccccccccccccccccccccccccccccccccccccccccccccccccccccccccccccccccccccccccccccccccccccccccccccccccccccccccccccccccccccccccccccccccccccccccccccccccccccccccccccccccccccccccccccccccccccccccccccccccccccccccccccccccccccccccccccccccccccccccccccccccccccccccccccccccccccccccccccccccccccccccccccccccccccccccccccccccccccccccccccccccccccccccccccccccccccccccccccccccccccccccccccccccccccccccccccccccccccccccccccccccccccccccccccccccccccccccccccccccccccccccccccccccccccccccccccccccccccccccccccccccccccccccccccccccccccccccccccccccccccccccccccccccccccccccccccccccccccccccccccccccccccccccccccccccccccccccccccccccccccccccccccccccccccccccccccccccccccccccccccccccccccccccccccccccccccccccccccccccccccccccccccccccccccccccccccccccccccccccccccccccccccccccccccccccccccccccccccccccccccccccccccccccccccccccccccccccccccccccccccccccccccccccccccccccc" /><path
       style="fill:#000000;stroke-width:0.565852"
       d="m 386.52988,522.23363 0.13235,-0.20474 1.5721,-0.33763 1.57212,-0.33763 1.42394,-0.45419 1.42395,-0.4542 0.30064,-0.13937 0.30064,-0.13936 0.46866,2.18221 0.46866,2.18219 -0.33136,-0.003 -0.33135,-0.003 -1.48487,0.17054 -1.48489,0.17051 -1.5721,0.33763 -1.5721,0.33764 -0.20474,-0.13233 -0.20472,-0.13234 -0.11283,-0.52539 -0.11284,-0.52538 0.14161,-0.13599 0.14161,-0.13599 0.41133,-0.19678 0.41132,-0.19677 -0.32832,0.0554 -0.32829,0.0554 -0.30287,-0.087 -0.30289,-0.087 -0.11354,-0.52875 -0.11357,-0.52875 z m 1.27318,-3.53506 -0.18699,-2.09017 0.004,-0.0379 0.004,-0.0379 0.74762,-0.16057 0.74765,-0.16057 1.91867,1.86715 1.91866,1.86714 -0.0459,0.0619 -0.046,0.0618 -1.86171,0.56669 -1.86171,0.56667 -0.52676,0.11271 -0.52674,0.11268 -0.0504,-0.31977 -0.0504,-0.31977 z m 1.67284,6.69244 0.54252,-0.11694 1.9302,-0.24771 1.93024,-0.24768 0.0672,0.0376 0.0673,0.0376 -0.98285,2.49028 -0.98283,2.4903 -0.74496,0.15999 -0.74496,0.15999 -0.13421,-0.30176 -0.13422,-0.30172 -0.4681,-1.44214 -0.4681,-1.44212 -0.20994,-0.57931 -0.20995,-0.57933 z m 4.7931,-5.66402 0.75718,-0.26432 1.96068,-0.24946 1.96069,-0.24948 1.03621,-0.13491 1.03618,-0.13492 0.19171,0.89262 0.1917,0.8926 1.3342,-0.28655 1.33417,-0.28652 -0.18974,-0.88355 -0.18976,-0.88356 1.24134,-0.54793 1.24134,-0.5479 1.51365,-0.37772 1.51365,-0.37773 -0.0452,0.20281 -0.0452,0.2028 -0.033,0.24104 -0.033,0.24103 -1.67457,0.53138 -1.67455,0.53138 -0.80784,0.17203 -0.80782,0.17204 0.13572,0.632 0.13573,0.63198 1.33418,-0.28653 1.33422,-0.28655 -0.12008,-0.55908 -0.12007,-0.55912 0.3598,-0.17711 0.35979,-0.17712 6.90759,-1.386 6.90759,-1.38601 1.42895,-0.0882 1.42892,-0.0882 0.61479,0.0269 0.61479,0.0269 0.8581,0.0619 0.85809,0.0619 0.0302,0.1405 0.0303,0.1405 -0.757,0.40882 -0.75699,0.40883 -0.54949,0.27702 -0.54947,0.27705 -1.33917,0.50627 -1.33915,0.50624 -6.86758,1.57243 -6.86755,1.57243 -0.40078,-0.0138 -0.4008,-0.0137 -0.13516,-0.62932 -0.13516,-0.62931 -1.33419,0.28654 -1.3342,0.28653 0.15081,0.7022 0.15081,0.70224 0.80725,-0.17483 0.80724,-0.17483 1.74507,-0.20306 1.74508,-0.20303 0.12893,0.20628 0.12896,0.20629 0.12448,0.16637 0.12448,0.16635 -1.53528,0.27708 -1.53526,0.27708 -1.35686,0.0101 -1.35683,0.0101 -0.20484,-0.95379 -0.20485,-0.95375 -1.33419,0.28653 -1.33419,0.28654 0.20679,0.96282 0.20678,0.96282 -1.00021,0.30245 -1.00023,0.30244 -1.89022,0.57758 -1.89022,0.57757 -0.79894,0.0698 -0.79891,0.0699 -0.49335,-2.29707 -0.49334,-2.2971 z m 2.76651,3.6736 1.61507,-0.34685 -0.36194,-1.68531 -0.36195,-1.6853 -1.4738,0.27437 -1.4738,0.27437 -0.17389,0.11344 -0.17392,0.11342 0.39459,1.64439 0.39456,1.64438 z m -0.67866,-3.15994 1.40443,-0.30163 0.3167,1.47465 0.31672,1.47465 -1.40444,0.30161 -1.40442,0.30163 -0.31669,-1.47465 -0.3167,-1.47463 z m 25.83582,-3.52319 2.18548,-0.42731 0.29923,-0.14586 0.29926,-0.14585 -0.0716,-0.3334 -0.0717,-0.33339 -0.24045,-0.0376 -0.24048,-0.0375 -2.21217,0.4751 -2.21217,0.4751 -0.0785,0.12157 -0.0786,0.12156 0.11806,0.34745 0.11808,0.34743 z m 0.13651,-0.73251 2.24708,-0.48259 0.0453,0.21066 0.0454,0.21067 -2.24707,0.48259 -2.24707,0.4826 -0.0454,-0.21067 -0.0452,-0.21066 z m -25.01412,1.47881 -0.017,-0.29019 -0.0854,-0.82646 -0.0854,-0.82645 0.73762,-0.15842 0.73763,-0.15841 0.59405,1.67098 0.59406,1.671 -0.0211,0.0325 -0.0211,0.0326 -1.11893,0.0809 -1.11896,0.0809 -0.0894,-0.50928 -0.0894,-0.5093 z m 2.36829,6.21094 1.06882,-0.3913 0.0325,0.0211 0.0325,0.0211 0.14443,1.76755 0.14445,1.76757 -0.7318,0.15715 -0.73178,0.15717 -0.20999,-0.57933 -0.21,-0.5793 -0.30397,-0.9751 -0.30398,-0.97509 z m -2.69415,-9.15281 -0.0573,-0.50189 -0.0499,-0.6137 -0.0498,-0.6137 0.67551,-0.14508 0.67551,-0.14507 0.25157,0.71729 0.25155,0.7173 0.179,0.43905 0.17897,0.43906 -0.99872,0.21449 -0.99873,0.21448 -1.2e-4,-0.11013 -1.4e-4,-0.11013 z m 3.69381,12.72333 0.98535,-0.21164 0.0171,0.47382 0.0171,0.47383 0.0652,0.75734 0.0652,0.75735 -0.67552,0.14506 -0.67551,0.14509 -0.20072,-0.58131 -0.20071,-0.5813 -0.19135,-0.58331 -0.19136,-0.5833 z m -4.13145,-16.55943 -0.17149,-1.4691 1.09387,-0.23493 1.09385,-0.23492 0.84346,0.88402 0.84345,0.88403 2.96444,3.09323 2.96445,3.09325 -0.0325,0.0399 -0.0324,0.0399 -1.1121,0.47948 -1.11209,0.47949 -0.27167,0.0583 -0.27167,0.0584 -0.20442,-0.50705 -0.20442,-0.50705 -0.45051,-0.93169 -0.4505,-0.93168 -1.0889,0.19094 -1.08892,0.19094 0.0372,0.17377 0.0372,0.17378 0.41147,0.28695 0.41146,0.28699 0.3141,0.99771 0.3141,0.9977 -0.64049,0.13756 -0.64051,0.13757 -0.0273,-0.10435 -0.0273,-0.10435 -0.5051,-1.3607 -0.5051,-1.36072 -0.0707,-0.31539 -0.0706,-0.31542 0.21065,-0.0453 0.21068,-0.0453 -0.0655,-0.3045 -0.0655,-0.30449 -0.35624,-0.89051 -0.35626,-0.8905 -0.17805,-0.14541 -0.17807,-0.14541 -0.68501,0.14712 -0.68501,0.14712 -0.0157,-0.18025 -0.0157,-0.18026 z m 4.64312,19.241 0.70023,-0.15037 0.10266,-0.2057 0.10266,-0.2057 -0.0408,-0.95826 -0.0408,-0.95825 -0.0654,-0.30449 -0.0655,-0.30449 -0.21067,0.0453 -0.21065,0.0453 -0.0651,-0.31659 -0.0651,-0.3166 -0.0981,-1.44812 -0.0982,-1.44812 -0.0181,-0.10632 -0.0181,-0.10633 0.64049,-0.13756 0.64049,-0.13756 0.12326,1.03871 0.12326,1.03869 -0.25736,0.43061 -0.25736,0.4306 0.0372,0.17378 0.0372,0.17377 1.07127,-0.27299 1.07129,-0.27301 0.0283,-1.0345 0.0283,-1.0345 -0.0218,-0.54628 -0.0218,-0.54626 0.27166,-0.0584 0.27166,-0.0583 1.21089,-0.0194 1.21092,-0.0195 0.0459,0.0231 0.046,0.0232 -1.43296,4.03765 -1.43296,4.03766 -0.4061,1.15237 -0.4061,1.15239 -1.09488,0.23514 -1.09492,0.23517 -0.37715,-1.27802 -0.37715,-1.27802 -0.1435,-0.29975 -0.1435,-0.29975 z m -0.12141,-14.51897 0.77456,-0.16636 0.32115,0.70236 0.32115,0.70235 0.23257,0.64794 0.23258,0.64791 -0.63911,0.13725 -0.63908,0.13726 -0.33182,-1.06737 -0.33182,-1.06736 -0.35737,-0.2538 -0.35738,-0.25382 z m 1.66752,10.01639 0.21207,-0.29478 -0.14255,-1.13866 -0.14254,-1.13866 0.64143,-0.13775 0.64143,-0.13776 0.054,0.68628 0.054,0.68627 -0.005,0.77231 -0.005,0.77226 -0.75009,0.16109 -0.75007,0.1611 -0.0104,-0.0484 -0.0105,-0.0484 z m -1.33494,-6.75764 0.0735,-0.11374 0.95969,-0.2061 0.95969,-0.20612 0.16589,0.77242 0.16588,0.77244 -1.05331,0.22622 -1.05332,0.22622 -0.14577,-0.67881 -0.14579,-0.67878 z m 1.44534,2.08928 1.06033,-0.22773 0.18228,0.84882 0.18228,0.8488 -1.02706,0.17741 -1.02706,0.17742 -0.21557,-0.79849 -0.21554,-0.7985 z m 2.62448,-2.17977 1.05333,-0.22623 0.0905,0.42134 0.0904,0.42133 -1.05331,0.2262 -1.0533,0.22622 -0.0905,-0.42132 -0.0905,-0.42132 z m 0.3318,1.54486 1.05333,-0.22622 0.0905,0.42134 0.0905,0.42132 -1.0533,0.22621 -1.05332,0.22623 -0.0905,-0.42133 -0.0905,-0.42132 z"
       id="path56" /><path
       style="opacity:1;fill:#003594;fill-opacity:1;stroke:#003594;stroke-width:0.583332;stroke-dasharray:none;stroke-opacity:1"
       d="m 393.29531,621.34753 v -2.92979 h 1.98807 1.98808 v -7.32449 -7.32449 h -7.74303 -7.74303 v -2.92979 -2.9298 h 1.7788 c 0.97834,0 1.77857,-0.0706 1.77828,-0.15695 -4.6e-4,-0.14734 -0.92405,-3.69575 -1.17198,-4.50289 -0.10526,-0.34268 -0.49901,-0.36569 -5.37215,-0.31391 l -5.25857,0.0559 -0.57603,1.98729 c -0.95653,3.29991 -1.05239,2.93058 0.76072,2.93058 h 1.57352 v 2.9298 2.92979 h -7.11521 -7.11522 v -2.92979 -2.9298 l 2.14503,-4.4e-4 2.14503,-4.3e-4 5.0225,-17.68495 5.02251,-17.68496 3.22573,0.0543 3.22573,0.0543 4.98971,16.84632 c 2.74435,9.26548 5.08682,17.19947 5.2055,17.63109 l 0.21578,0.78477 h 2.50319 2.50319 v -5.54572 -5.54568 h -1.98808 -1.98807 v -2.9298 -2.92979 h 14.7536 14.75362 v 5.02251 5.0225 h -2.9298 -2.92979 v -2.09271 -2.09271 h -6.69668 -6.69667 v 5.54568 5.54568 h 4.29005 4.29006 v -1.25562 -1.25562 h 2.51126 2.51125 v 5.44104 5.44105 h -2.51125 -2.51126 v -1.25563 -1.25563 h -4.29006 -4.29005 v 7.32449 7.32449 h 1.98807 1.98808 v 2.92979 2.9298 h -7.11522 -7.11521 z m -10.9367,-34.37277 c -0.0546,-0.14388 -0.97763,-3.11085 -2.05106,-6.5933 -1.07342,-3.48243 -2.01865,-6.26051 -2.1005,-6.17349 -0.12767,0.13573 -3.53687,12.5789 -3.53687,12.90917 0,0.0655 1.75226,0.11921 3.89391,0.11921 3.0286,0 3.87182,-0.0581 3.79452,-0.26159 z"
       id="path57" /></g></svg>
