  0
SECTION
  2
HEADER
  9
$ACADVER
  1
AC1014
  9
$HANDSEED
  5
FFFF
  9
$INSUNITS
 70
     0
  9
$MEASUREMENT
 70
     1
  0
ENDSEC
  0
SECTION
  2
TABLES
  0
TABLE
  2
VPORT
  5
8
330
0
100
AcDbSymbolTable
 70
     4
  0
VPORT
  5
2E
330
8
100
AcDbSymbolTableRecord
100
AcDbViewportTableRecord
  2
*ACTIVE
 70
     0
 10
0.0
 20
0.0
 11
1.0
 21
1.0
 12
210.0
 22
148.5
 13
0.0
 23
0.0
 14
10.0
 24
10.0
 15
10.0
 25
10.0
 16
0.0
 26
0.0
 36
1.0
 17
0.0
 27
0.0
 37
0.0
 40
341.0
 41
1.24
 42
50.0
 43
0.0
 44
0.0
 50
0.0
 51
0.0
 71
     0
 72
   100
 73
     1
 74
     3
 75
     0
 76
     0
 77
     0
 78
     0
  0
ENDTAB
  0
TABLE
  2
LTYPE
  5
5
330
0
100
AcDbSymbolTable
 70
     1
  0
LTYPE
  5
14
330
5
100
AcDbSymbolTableRecord
100
AcDbLinetypeTableRecord
  2
BYBLOCK
 70
     0
  3

 72
    65
 73
     0
 40
0.0
  0
LTYPE
  5
15
330
5
100
AcDbSymbolTableRecord
100
AcDbLinetypeTableRecord
  2
BYLAYER
 70
     0
  3

 72
    65
 73
     0
 40
0.0
  0
LTYPE
  5
16
330
5
100
AcDbSymbolTableRecord
100
AcDbLinetypeTableRecord
  2
CONTINUOUS
 70
     0
  3
Solid line
 72
    65
 73
     0
 40
0.0
  0
ENDTAB
  0
TABLE
  2
LAYER
  5
2
100
AcDbSymbolTable
 70
2
  0
LAYER
  5
50
100
AcDbSymbolTableRecord
100
AcDbLayerTableRecord
  2
0
 70
0
  6
CONTINUOUS
  0
LAYER
  5
51
100
AcDbSymbolTableRecord
100
AcDbLayerTableRecord
  2
1
 70
0
  6
CONTINUOUS
  0
ENDTAB
  0
TABLE
  2
STYLE
  5
3
330
0
100
AcDbSymbolTable
 70
     1
  0
STYLE
  5
11
330
3
100
AcDbSymbolTableRecord
100
AcDbTextStyleTableRecord
  2
STANDARD
 70
     0
 40
0.0
 41
1.0
 50
0.0
 71
     0
 42
2.5
  3
txt
  4

  0
ENDTAB
  0
TABLE
  2
VIEW
  5
6
330
0
100
AcDbSymbolTable
 70
     0
  0
ENDTAB
  0
TABLE
  2
UCS
  5
7
330
0
100
AcDbSymbolTable
 70
     0
  0
ENDTAB
  0
TABLE
  2
APPID
  5
9
330
0
100
AcDbSymbolTable
 70
     2
  0
APPID
  5
12
330
9
100
AcDbSymbolTableRecord
100
AcDbRegAppTableRecord
  2
ACAD
 70
     0
  0
ENDTAB
  0
TABLE
  2
DIMSTYLE
  5
A
330
0
100
AcDbSymbolTable
 70
     1
  0
DIMSTYLE
105
27
330
A
100
AcDbSymbolTableRecord
100
AcDbDimStyleTableRecord
  2
ISO-25
 70
     0
  3

  4

  5

  6

  7

 40
1.0
 41
2.5
 42
0.625
 43
3.75
 44
1.25
 45
0.0
 46
0.0
 47
0.0
 48
0.0
140
2.5
141
2.5
142
0.0
143
0.03937007874016
144
1.0
145
0.0
146
1.0
147
0.625
 71
     0
 72
     0
 73
     0
 74
     0
 75
     0
 76
     0
 77
     1
 78
     8
170
     0
171
     3
172
     1
173
     0
174
     0
175
     0
176
     0
177
     0
178
     0
270
     2
271
     2
272
     2
273
     2
274
     3
340
11
275
     0
280
     0
281
     0
282
     0
283
     0
284
     8
285
     0
286
     0
287
     3
288
     0
  0
ENDTAB
  0
TABLE
  2
BLOCK_RECORD
  5
1
330
0
100
AcDbSymbolTable
 70
     1
  0
BLOCK_RECORD
  5
1F
330
1
100
AcDbSymbolTableRecord
100
AcDbBlockTableRecord
  2
*MODEL_SPACE
  0
BLOCK_RECORD
  5
1B
330
1
100
AcDbSymbolTableRecord
100
AcDbBlockTableRecord
  2
*PAPER_SPACE
  0
ENDTAB
  0
ENDSEC
  0
SECTION
  2
BLOCKS
  0
BLOCK
  5
20
330
1F
100
AcDbEntity
  8
0
100
AcDbBlockBegin
  2
*MODEL_SPACE
 70
     0
 10
0.0
 20
0.0
 30
0.0
  3
*MODEL_SPACE
  1

  0
ENDBLK
  5
21
330
1F
100
AcDbEntity
  8
0
100
AcDbBlockEnd
  0
BLOCK
  5
1C
330
1B
100
AcDbEntity
 67
     1
  8
0
100
AcDbBlockBegin
  2
*PAPER_SPACE
  1

  0
ENDBLK
  5
1D
330
1B
100
AcDbEntity
 67
     1
  8
0
100
AcDbBlockEnd
  0
ENDSEC
  0
SECTION
  2
ENTITIES
  0
SPLINE
  5
100
100
AcDbEntity
  8
1
 62
7
100
AcDbSpline
 70
8
 71
3
 72
8
 73
4
 74
0
 40
0
 40
0
 40
0
 40
0
 40
1
 40
1
 40
1
 40
1
 10
78.158685
 20
156.316550
 30
0.0
 10
46.546533
 20
156.316550
 30
0.0
 10
18.047117
 20
137.273849
 30
0.0
 10
5.949670
 20
108.068028
 30
0.0
  0
SPLINE
  5
101
100
AcDbEntity
  8
1
 62
7
100
AcDbSpline
 70
8
 71
3
 72
8
 73
4
 74
0
 40
0
 40
0
 40
0
 40
0
 40
1
 40
1
 40
1
 40
1
 10
5.949670
 20
108.068028
 30
0.0
 10
-6.147777
 20
78.862208
 30
0.0
 10
0.539130
 20
45.244855
 30
0.0
 10
22.892297
 20
22.891687
 30
0.0
  0
SPLINE
  5
102
100
AcDbEntity
  8
1
 62
7
100
AcDbSpline
 70
8
 71
3
 72
8
 73
4
 74
0
 40
0
 40
0
 40
0
 40
0
 40
1
 40
1
 40
1
 40
1
 10
22.892297
 20
22.891687
 30
0.0
 10
45.245465
 20
0.538520
 30
0.0
 10
78.862818
 20
-6.148387
 30
0.0
 10
108.068638
 20
5.949060
 30
0.0
  0
SPLINE
  5
103
100
AcDbEntity
  8
1
 62
7
100
AcDbSpline
 70
8
 71
3
 72
8
 73
4
 74
0
 40
0
 40
0
 40
0
 40
0
 40
1
 40
1
 40
1
 40
1
 10
108.068638
 20
5.949060
 30
0.0
 10
137.274459
 20
18.046507
 30
0.0
 10
156.317160
 20
46.545923
 30
0.0
 10
156.317160
 20
78.158075
 30
0.0
  0
SPLINE
  5
104
100
AcDbEntity
  8
1
 62
7
100
AcDbSpline
 70
8
 71
3
 72
8
 73
4
 74
0
 40
0
 40
0
 40
0
 40
0
 40
1
 40
1
 40
1
 40
1
 10
156.317160
 20
78.158075
 30
0.0
 10
156.317160
 20
98.886991
 30
0.0
 10
148.082630
 20
118.766905
 30
0.0
 10
133.425073
 20
133.424463
 30
0.0
  0
SPLINE
  5
105
100
AcDbEntity
  8
1
 62
7
100
AcDbSpline
 70
8
 71
3
 72
8
 73
4
 74
0
 40
0
 40
0
 40
0
 40
0
 40
1
 40
1
 40
1
 40
1
 10
133.425073
 20
133.424463
 30
0.0
 10
118.767515
 20
148.082020
 30
0.0
 10
98.887601
 20
156.316550
 30
0.0
 10
78.158685
 20
156.316550
 30
0.0
  0
SPLINE
  5
106
100
AcDbEntity
  8
1
 62
7
100
AcDbSpline
 70
8
 71
3
 72
8
 73
4
 74
0
 40
0
 40
0
 40
0
 40
0
 40
1
 40
1
 40
1
 40
1
 10
78.158685
 20
153.544265
 30
0.0
 10
47.667817
 20
153.544265
 30
0.0
 10
20.179277
 20
135.177009
 30
0.0
 10
8.510927
 20
107.007121
 30
0.0
  0
SPLINE
  5
107
100
AcDbEntity
  8
1
 62
7
100
AcDbSpline
 70
8
 71
3
 72
8
 73
4
 74
0
 40
0
 40
0
 40
0
 40
0
 40
1
 40
1
 40
1
 40
1
 10
8.510927
 20
107.007121
 30
0.0
 10
-3.157423
 20
78.837232
 30
0.0
 10
3.292300
 20
46.412288
 30
0.0
 10
24.852599
 20
24.851989
 30
0.0
  0
SPLINE
  5
108
100
AcDbEntity
  8
1
 62
7
100
AcDbSpline
 70
8
 71
3
 72
8
 73
4
 74
0
 40
0
 40
0
 40
0
 40
0
 40
1
 40
1
 40
1
 40
1
 10
24.852599
 20
24.851989
 30
0.0
 10
46.412898
 20
3.291690
 30
0.0
 10
78.837842
 20
-3.158033
 30
0.0
 10
107.007731
 20
8.510317
 30
0.0
  0
SPLINE
  5
109
100
AcDbEntity
  8
1
 62
7
100
AcDbSpline
 70
8
 71
3
 72
8
 73
4
 74
0
 40
0
 40
0
 40
0
 40
0
 40
1
 40
1
 40
1
 40
1
 10
107.007731
 20
8.510317
 30
0.0
 10
135.177619
 20
20.178667
 30
0.0
 10
153.544875
 20
47.667207
 30
0.0
 10
153.544875
 20
78.158075
 30
0.0
  0
SPLINE
  5
10a
100
AcDbEntity
  8
1
 62
7
100
AcDbSpline
 70
8
 71
3
 72
8
 73
4
 74
0
 40
0
 40
0
 40
0
 40
0
 40
1
 40
1
 40
1
 40
1
 10
153.544875
 20
78.158075
 30
0.0
 10
153.544875
 20
98.151736
 30
0.0
 10
145.602424
 20
117.326508
 30
0.0
 10
131.464771
 20
131.464161
 30
0.0
  0
SPLINE
  5
10b
100
AcDbEntity
  8
1
 62
7
100
AcDbSpline
 70
8
 71
3
 72
8
 73
4
 74
0
 40
0
 40
0
 40
0
 40
0
 40
1
 40
1
 40
1
 40
1
 10
131.464771
 20
131.464161
 30
0.0
 10
117.327118
 20
145.601814
 30
0.0
 10
98.152346
 20
153.544265
 30
0.0
 10
78.158685
 20
153.544265
 30
0.0
  0
LWPOLYLINE
  5
10c
100
AcDbEntity
  8
1
 62
7
100
AcDbPolyline
 90
1
 70
1
 10
78.158685
 20
156.316550
 30
0.0
  0
LWPOLYLINE
  5
10d
100
AcDbEntity
  8
1
 62
7
100
AcDbPolyline
 90
1
 70
1
 10
78.158685
 20
153.544265
 30
0.0
  0
LWPOLYLINE
  5
10e
100
AcDbEntity
  8
1
 62
5
100
AcDbPolyline
 90
8
 70
1
 10
43.538883
 20
19.696271
 30
0.0
 10
42.884393
 20
21.698631
 30
0.0
 10
39.352723
 20
21.698631
 30
0.0
 10
38.652872
 20
19.696271
 30
0.0
 10
37.201322
 20
19.696271
 30
0.0
 10
41.057003
 20
29.319262
 30
0.0
 10
41.400443
 20
29.319262
 30
0.0
 10
44.977473
 20
19.696271
 30
0.0
  0
LWPOLYLINE
  5
10f
100
AcDbEntity
  8
1
 62
5
100
AcDbPolyline
 90
3
 70
1
 10
41.167163
 20
26.830892
 30
0.0
 10
39.696173
 20
22.651211
 30
0.0
 10
42.515023
 20
22.651211
 30
0.0
  0
LWPOLYLINE
  5
110
100
AcDbEntity
  8
1
 62
5
100
AcDbPolyline
 90
12
 70
1
 10
47.271443
 20
28.023242
 30
0.0
 10
47.271443
 20
25.385832
 30
0.0
 10
50.407823
 20
25.385832
 30
0.0
 10
50.407823
 20
24.284202
 30
0.0
 10
47.271443
 20
24.284202
 30
0.0
 10
47.271443
 20
20.862701
 30
0.0
 10
51.574243
 20
20.862701
 30
0.0
 10
51.574243
 20
19.696271
 30
0.0
 10
45.975413
 20
19.696271
 30
0.0
 10
45.975413
 20
29.189662
 30
0.0
 10
51.645523
 20
29.189662
 30
0.0
 10
51.645523
 20
28.023242
 30
0.0
  0
SPLINE
  5
111
100
AcDbEntity
  8
1
 62
5
100
AcDbSpline
 70
8
 71
3
 72
8
 73
4
 74
0
 40
0
 40
0
 40
0
 40
0
 40
1
 40
1
 40
1
 40
1
 10
55.818734
 20
23.772272
 30
0.0
 10
55.529287
 20
23.772272
 30
0.0
 10
55.071357
 20
23.793872
 30
0.0
 10
54.444943
 20
23.837072
 30
0.0
  0
LWPOLYLINE
  5
112
100
AcDbEntity
  8
1
 62
5
100
AcDbPolyline
 90
2
 70
0
 10
58.352464
 20
19.696271
 30
0.0
 10
55.818734
 20
23.772272
 30
0.0
  0
SPLINE
  5
113
100
AcDbEntity
  8
1
 62
5
100
AcDbSpline
 70
8
 71
3
 72
8
 73
4
 74
0
 40
0
 40
0
 40
0
 40
0
 40
1
 40
1
 40
1
 40
1
 10
53.148913
 20
29.189652
 30
0.0
 10
53.196447
 20
29.189652
 30
0.0
 10
53.531253
 20
29.204785
 30
0.0
 10
54.153333
 20
29.235052
 30
0.0
  0
SPLINE
  5
114
100
AcDbEntity
  8
1
 62
5
100
AcDbSpline
 70
8
 71
3
 72
8
 73
4
 74
0
 40
0
 40
0
 40
0
 40
0
 40
1
 40
1
 40
1
 40
1
 10
54.153333
 20
29.235052
 30
0.0
 10
54.779747
 20
29.269585
 30
0.0
 10
55.235517
 20
29.286852
 30
0.0
 10
55.520644
 20
29.286852
 30
0.0
  0
SPLINE
  5
115
100
AcDbEntity
  8
1
 62
5
100
AcDbSpline
 70
8
 71
3
 72
8
 73
4
 74
0
 40
0
 40
0
 40
0
 40
0
 40
1
 40
1
 40
1
 40
1
 10
55.520644
 20
29.286852
 30
0.0
 10
57.801650
 20
29.286852
 30
0.0
 10
58.942154
 20
28.379635
 30
0.0
 10
58.942154
 20
26.565202
 30
0.0
  0
SPLINE
  5
116
100
AcDbEntity
  8
1
 62
5
100
AcDbSpline
 70
8
 71
3
 72
8
 73
4
 74
0
 40
0
 40
0
 40
0
 40
0
 40
1
 40
1
 40
1
 40
1
 10
58.942154
 20
26.565202
 30
0.0
 10
58.942154
 20
25.969028
 30
0.0
 10
58.758550
 20
25.431178
 30
0.0
 10
58.391344
 20
24.951652
 30
0.0
  0
SPLINE
  5
117
100
AcDbEntity
  8
1
 62
5
100
AcDbSpline
 70
8
 71
3
 72
8
 73
4
 74
0
 40
0
 40
0
 40
0
 40
0
 40
1
 40
1
 40
1
 40
1
 10
58.391344
 20
24.951652
 30
0.0
 10
58.024137
 20
24.476438
 30
0.0
 10
57.587807
 20
24.180512
 30
0.0
 10
57.082354
 20
24.063872
 30
0.0
  0
LWPOLYLINE
  5
118
100
AcDbEntity
  8
1
 62
5
100
AcDbPolyline
 90
4
 70
0
 10
54.444943
 20
23.837072
 30
0.0
 10
54.444943
 20
19.696261
 30
0.0
 10
53.148913
 20
19.696261
 30
0.0
 10
53.148913
 20
29.189652
 30
0.0
  0
LWPOLYLINE
  5
119
100
AcDbEntity
  8
1
 62
5
100
AcDbPolyline
 90
3
 70
0
 10
57.082354
 20
24.063872
 30
0.0
 10
59.836404
 20
19.696261
 30
0.0
 10
58.352464
 20
19.696271
 30
0.0
  0
SPLINE
  5
11a
100
AcDbEntity
  8
1
 62
5
100
AcDbSpline
 70
8
 71
3
 72
8
 73
4
 74
0
 40
0
 40
0
 40
0
 40
0
 40
1
 40
1
 40
1
 40
1
 10
54.444943
 20
24.938702
 30
0.0
 10
54.755990
 20
24.895502
 30
0.0
 10
55.058397
 20
24.873902
 30
0.0
 10
55.352164
 20
24.873902
 30
0.0
  0
SPLINE
  5
11b
100
AcDbEntity
  8
1
 62
5
100
AcDbSpline
 70
8
 71
3
 72
8
 73
4
 74
0
 40
0
 40
0
 40
0
 40
0
 40
1
 40
1
 40
1
 40
1
 10
55.352164
 20
24.873902
 30
0.0
 10
56.129777
 20
24.873902
 30
0.0
 10
56.695707
 20
24.999182
 30
0.0
 10
57.049954
 20
25.249742
 30
0.0
  0
SPLINE
  5
11c
100
AcDbEntity
  8
1
 62
5
100
AcDbSpline
 70
8
 71
3
 72
8
 73
4
 74
0
 40
0
 40
0
 40
0
 40
0
 40
1
 40
1
 40
1
 40
1
 10
57.049954
 20
25.249742
 30
0.0
 10
57.404200
 20
25.500308
 30
0.0
 10
57.581324
 20
25.947438
 30
0.0
 10
57.581324
 20
26.591132
 30
0.0
  0
SPLINE
  5
11d
100
AcDbEntity
  8
1
 62
5
100
AcDbSpline
 70
8
 71
3
 72
8
 73
4
 74
0
 40
0
 40
0
 40
0
 40
0
 40
1
 40
1
 40
1
 40
1
 10
57.581324
 20
26.591132
 30
0.0
 10
57.581324
 20
27.122505
 30
0.0
 10
57.391240
 20
27.504832
 30
0.0
 10
57.011074
 20
27.738112
 30
0.0
  0
SPLINE
  5
11e
100
AcDbEntity
  8
1
 62
5
100
AcDbSpline
 70
8
 71
3
 72
8
 73
4
 74
0
 40
0
 40
0
 40
0
 40
0
 40
1
 40
1
 40
1
 40
1
 10
57.011074
 20
27.738112
 30
0.0
 10
56.630907
 20
27.971398
 30
0.0
 10
56.030414
 20
28.088042
 30
0.0
 10
55.209594
 20
28.088042
 30
0.0
  0
SPLINE
  5
11f
100
AcDbEntity
  8
1
 62
5
100
AcDbSpline
 70
8
 71
3
 72
8
 73
4
 74
0
 40
0
 40
0
 40
0
 40
0
 40
1
 40
1
 40
1
 40
1
 10
55.209594
 20
28.088042
 30
0.0
 10
55.079994
 20
28.088042
 30
0.0
 10
54.825110
 20
28.066442
 30
0.0
 10
54.444943
 20
28.023242
 30
0.0
  0
LWPOLYLINE
  5
120
100
AcDbEntity
  8
1
 62
5
100
AcDbPolyline
 90
2
 70
0
 10
54.444943
 20
28.023242
 30
0.0
 10
54.444943
 20
24.938702
 30
0.0
  0
SPLINE
  5
121
100
AcDbEntity
  8
1
 62
5
100
AcDbSpline
 70
8
 71
3
 72
8
 73
4
 74
0
 40
0
 40
0
 40
0
 40
0
 40
1
 40
1
 40
1
 40
1
 10
60.354814
 20
24.523972
 30
0.0
 10
60.354814
 20
25.897758
 30
0.0
 10
60.698261
 20
27.046902
 30
0.0
 10
61.385154
 20
27.971402
 30
0.0
  0
SPLINE
  5
122
100
AcDbEntity
  8
1
 62
5
100
AcDbSpline
 70
8
 71
3
 72
8
 73
4
 74
0
 40
0
 40
0
 40
0
 40
0
 40
1
 40
1
 40
1
 40
1
 10
61.385154
 20
27.971402
 30
0.0
 10
62.076367
 20
28.895895
 30
0.0
 10
63.007347
 20
29.358142
 30
0.0
 10
64.178094
 20
29.358142
 30
0.0
  0
SPLINE
  5
123
100
AcDbEntity
  8
1
 62
5
100
AcDbSpline
 70
8
 71
3
 72
8
 73
4
 74
0
 40
0
 40
0
 40
0
 40
0
 40
1
 40
1
 40
1
 40
1
 10
64.178094
 20
29.358142
 30
0.0
 10
65.495721
 20
29.358142
 30
0.0
 10
66.504461
 20
28.932615
 30
0.0
 10
67.204314
 20
28.081562
 30
0.0
  0
SPLINE
  5
124
100
AcDbEntity
  8
1
 62
5
100
AcDbSpline
 70
8
 71
3
 72
8
 73
4
 74
0
 40
0
 40
0
 40
0
 40
0
 40
1
 40
1
 40
1
 40
1
 10
67.204314
 20
28.081562
 30
0.0
 10
67.908488
 20
27.230502
 30
0.0
 10
68.260574
 20
26.044638
 30
0.0
 10
68.260574
 20
24.523972
 30
0.0
  0
SPLINE
  5
125
100
AcDbEntity
  8
1
 62
5
100
AcDbSpline
 70
8
 71
3
 72
8
 73
4
 74
0
 40
0
 40
0
 40
0
 40
0
 40
1
 40
1
 40
1
 40
1
 10
68.260574
 20
24.523972
 30
0.0
 10
68.260574
 20
22.964418
 30
0.0
 10
67.908488
 20
21.741835
 30
0.0
 10
67.204314
 20
20.856221
 30
0.0
  0
SPLINE
  5
126
100
AcDbEntity
  8
1
 62
5
100
AcDbSpline
 70
8
 71
3
 72
8
 73
4
 74
0
 40
0
 40
0
 40
0
 40
0
 40
1
 40
1
 40
1
 40
1
 10
67.204314
 20
20.856221
 30
0.0
 10
66.500141
 20
19.974921
 30
0.0
 10
65.491401
 20
19.534271
 30
0.0
 10
64.178094
 20
19.534271
 30
0.0
  0
SPLINE
  5
127
100
AcDbEntity
  8
1
 62
5
100
AcDbSpline
 70
8
 71
3
 72
8
 73
4
 74
0
 40
0
 40
0
 40
0
 40
0
 40
1
 40
1
 40
1
 40
1
 10
64.178094
 20
19.534271
 30
0.0
 10
62.981427
 20
19.534271
 30
0.0
 10
62.043967
 20
20.000841
 30
0.0
 10
61.365714
 20
20.933981
 30
0.0
  0
SPLINE
  5
128
100
AcDbEntity
  8
1
 62
5
100
AcDbSpline
 70
8
 71
3
 72
8
 73
4
 74
0
 40
0
 40
0
 40
0
 40
0
 40
1
 40
1
 40
1
 40
1
 10
61.365714
 20
20.933981
 30
0.0
 10
60.691781
 20
21.867121
 30
0.0
 10
60.354814
 20
23.063785
 30
0.0
 10
60.354814
 20
24.523972
 30
0.0
  0
LWPOLYLINE
  5
129
100
AcDbEntity
  8
1
 62
5
100
AcDbPolyline
 90
1
 70
1
 10
54.444943
 20
28.023242
 30
0.0
  0
SPLINE
  5
12a
100
AcDbEntity
  8
1
 62
5
100
AcDbSpline
 70
8
 71
3
 72
8
 73
4
 74
0
 40
0
 40
0
 40
0
 40
0
 40
1
 40
1
 40
1
 40
1
 10
61.715644
 20
24.523972
 30
0.0
 10
61.715644
 20
23.435311
 30
0.0
 10
61.929487
 20
22.525935
 30
0.0
 10
62.357174
 20
21.795841
 30
0.0
  0
SPLINE
  5
12b
100
AcDbEntity
  8
1
 62
5
100
AcDbSpline
 70
8
 71
3
 72
8
 73
4
 74
0
 40
0
 40
0
 40
0
 40
0
 40
1
 40
1
 40
1
 40
1
 10
62.357174
 20
21.795841
 30
0.0
 10
62.789187
 20
21.065741
 30
0.0
 10
63.396161
 20
20.700691
 30
0.0
 10
64.178094
 20
20.700691
 30
0.0
  0
SPLINE
  5
12c
100
AcDbEntity
  8
1
 62
5
100
AcDbSpline
 70
8
 71
3
 72
8
 73
4
 74
0
 40
0
 40
0
 40
0
 40
0
 40
1
 40
1
 40
1
 40
1
 10
64.178094
 20
20.700691
 30
0.0
 10
65.063707
 20
20.700691
 30
0.0
 10
65.737641
 20
21.035498
 30
0.0
 10
66.199894
 20
21.705111
 30
0.0
  0
SPLINE
  5
12d
100
AcDbEntity
  8
1
 62
5
100
AcDbSpline
 70
8
 71
3
 72
8
 73
4
 74
0
 40
0
 40
0
 40
0
 40
0
 40
1
 40
1
 40
1
 40
1
 10
66.199894
 20
21.705111
 30
0.0
 10
66.666461
 20
22.374725
 30
0.0
 10
66.899744
 20
23.314345
 30
0.0
 10
66.899744
 20
24.523972
 30
0.0
  0
SPLINE
  5
12e
100
AcDbEntity
  8
1
 62
5
100
AcDbSpline
 70
8
 71
3
 72
8
 73
4
 74
0
 40
0
 40
0
 40
0
 40
0
 40
1
 40
1
 40
1
 40
1
 10
66.899744
 20
24.523972
 30
0.0
 10
66.899744
 20
26.969138
 30
0.0
 10
65.992528
 20
28.191722
 30
0.0
 10
64.178094
 20
28.191722
 30
0.0
  0
SPLINE
  5
12f
100
AcDbEntity
  8
1
 62
5
100
AcDbSpline
 70
8
 71
3
 72
8
 73
4
 74
0
 40
0
 40
0
 40
0
 40
0
 40
1
 40
1
 40
1
 40
1
 10
64.178094
 20
28.191722
 30
0.0
 10
63.374554
 20
28.191722
 30
0.0
 10
62.763261
 20
27.863395
 30
0.0
 10
62.344214
 20
27.206742
 30
0.0
  0
SPLINE
  5
130
100
AcDbEntity
  8
1
 62
5
100
AcDbSpline
 70
8
 71
3
 72
8
 73
4
 74
0
 40
0
 40
0
 40
0
 40
0
 40
1
 40
1
 40
1
 40
1
 10
62.344214
 20
27.206742
 30
0.0
 10
61.925167
 20
26.550088
 30
0.0
 10
61.715644
 20
25.655832
 30
0.0
 10
61.715644
 20
24.523972
 30
0.0
  0
LWPOLYLINE
  5
131
100
AcDbEntity
  8
1
 62
5
100
AcDbPolyline
 90
1
 70
1
 10
60.354814
 20
24.523972
 30
0.0
  0
LWPOLYLINE
  5
132
100
AcDbEntity
  8
1
 62
5
100
AcDbPolyline
 90
1
 70
1
 10
61.715644
 20
24.523972
 30
0.0
  0
LWPOLYLINE
  5
133
100
AcDbEntity
  8
1
 62
5
100
AcDbPolyline
 90
10
 70
1
 10
75.887685
 20
19.566671
 30
0.0
 10
70.982225
 20
26.506892
 30
0.0
 10
70.982225
 20
19.696271
 30
0.0
 10
69.751004
 20
19.696271
 30
0.0
 10
69.751004
 20
29.189662
 30
0.0
 10
70.269414
 20
29.189662
 30
0.0
 10
75.045265
 20
22.625291
 30
0.0
 10
75.045265
 20
29.189662
 30
0.0
 10
76.276495
 20
29.189662
 30
0.0
 10
76.276495
 20
19.566671
 30
0.0
  0
LWPOLYLINE
  5
134
100
AcDbEntity
  8
1
 62
5
100
AcDbPolyline
 90
8
 70
1
 10
83.611995
 20
19.696271
 30
0.0
 10
82.957505
 20
21.698631
 30
0.0
 10
79.425835
 20
21.698631
 30
0.0
 10
78.725975
 20
19.696271
 30
0.0
 10
77.274435
 20
19.696271
 30
0.0
 10
81.130105
 20
29.319262
 30
0.0
 10
81.473555
 20
29.319262
 30
0.0
 10
85.050585
 20
19.696271
 30
0.0
  0
LWPOLYLINE
  5
135
100
AcDbEntity
  8
1
 62
5
100
AcDbPolyline
 90
3
 70
1
 10
81.240265
 20
26.830892
 30
0.0
 10
79.769275
 20
22.651211
 30
0.0
 10
82.588135
 20
22.651211
 30
0.0
  0
SPLINE
  5
136
100
AcDbEntity
  8
1
 62
5
100
AcDbSpline
 70
8
 71
3
 72
8
 73
4
 74
0
 40
0
 40
0
 40
0
 40
0
 40
1
 40
1
 40
1
 40
1
 10
87.344546
 20
22.690091
 30
0.0
 10
87.344546
 20
22.111205
 30
0.0
 10
87.528152
 20
21.633838
 30
0.0
 10
87.895366
 20
21.257991
 30
0.0
  0
SPLINE
  5
137
100
AcDbEntity
  8
1
 62
5
100
AcDbSpline
 70
8
 71
3
 72
8
 73
4
 74
0
 40
0
 40
0
 40
0
 40
0
 40
1
 40
1
 40
1
 40
1
 10
87.895366
 20
21.257991
 30
0.0
 10
88.262572
 20
20.886458
 30
0.0
 10
88.748579
 20
20.700691
 30
0.0
 10
89.353386
 20
20.700691
 30
0.0
  0
SPLINE
  5
138
100
AcDbEntity
  8
1
 62
5
100
AcDbSpline
 70
8
 71
3
 72
8
 73
4
 74
0
 40
0
 40
0
 40
0
 40
0
 40
1
 40
1
 40
1
 40
1
 10
89.353386
 20
20.700691
 30
0.0
 10
89.992759
 20
20.700691
 30
0.0
 10
90.496049
 20
20.882135
 30
0.0
 10
90.863256
 20
21.245021
 30
0.0
  0
SPLINE
  5
139
100
AcDbEntity
  8
1
 62
5
100
AcDbSpline
 70
8
 71
3
 72
8
 73
4
 74
0
 40
0
 40
0
 40
0
 40
0
 40
1
 40
1
 40
1
 40
1
 10
90.863256
 20
21.245021
 30
0.0
 10
91.230463
 20
21.607915
 30
0.0
 10
91.414066
 20
22.100405
 30
0.0
 10
91.414066
 20
22.722491
 30
0.0
  0
LWPOLYLINE
  5
13a
100
AcDbEntity
  8
1
 62
5
100
AcDbPolyline
 90
3
 70
0
 10
86.048526
 20
29.189662
 30
0.0
 10
87.344546
 20
29.189662
 30
0.0
 10
87.344546
 20
22.690091
 30
0.0
  0
SPLINE
  5
13b
100
AcDbEntity
  8
1
 62
5
100
AcDbSpline
 70
8
 71
3
 72
8
 73
4
 74
0
 40
0
 40
0
 40
0
 40
0
 40
1
 40
1
 40
1
 40
1
 10
92.710096
 20
22.586411
 30
0.0
 10
92.710096
 20
21.627351
 30
0.0
 10
92.409849
 20
20.877818
 30
0.0
 10
91.809356
 20
20.337811
 30
0.0
  0
SPLINE
  5
13c
100
AcDbEntity
  8
1
 62
5
100
AcDbSpline
 70
8
 71
3
 72
8
 73
4
 74
0
 40
0
 40
0
 40
0
 40
0
 40
1
 40
1
 40
1
 40
1
 10
91.809356
 20
20.337811
 30
0.0
 10
91.213183
 20
19.802118
 30
0.0
 10
90.398846
 20
19.534271
 30
0.0
 10
89.366346
 20
19.534271
 30
0.0
  0
SPLINE
  5
13d
100
AcDbEntity
  8
1
 62
5
100
AcDbSpline
 70
8
 71
3
 72
8
 73
4
 74
0
 40
0
 40
0
 40
0
 40
0
 40
1
 40
1
 40
1
 40
1
 10
89.366346
 20
19.534271
 30
0.0
 10
88.303606
 20
19.534271
 30
0.0
 10
87.484952
 20
19.797798
 30
0.0
 10
86.910386
 20
20.324851
 30
0.0
  0
SPLINE
  5
13e
100
AcDbEntity
  8
1
 62
5
100
AcDbSpline
 70
8
 71
3
 72
8
 73
4
 74
0
 40
0
 40
0
 40
0
 40
0
 40
1
 40
1
 40
1
 40
1
 10
86.910386
 20
20.324851
 30
0.0
 10
86.335812
 20
20.851898
 30
0.0
 10
86.048526
 20
21.607911
 30
0.0
 10
86.048526
 20
22.592891
 30
0.0
  0
LWPOLYLINE
  5
13f
100
AcDbEntity
  8
1
 62
5
100
AcDbPolyline
 90
4
 70
0
 10
91.414066
 20
22.722491
 30
0.0
 10
91.414066
 20
29.189662
 30
0.0
 10
92.710096
 20
29.189662
 30
0.0
 10
92.710096
 20
22.586411
 30
0.0
  0
LWPOLYLINE
  5
140
100
AcDbEntity
  8
1
 62
5
100
AcDbPolyline
 90
2
 70
0
 10
86.048526
 20
22.592891
 30
0.0
 10
86.048526
 20
29.189662
 30
0.0
  0
LWPOLYLINE
  5
141
100
AcDbEntity
  8
1
 62
5
100
AcDbPolyline
 90
8
 70
1
 10
98.114516
 20
28.023242
 30
0.0
 10
98.114516
 20
19.696271
 30
0.0
 10
96.818496
 20
19.696271
 30
0.0
 10
96.818496
 20
28.023242
 30
0.0
 10
93.798756
 20
28.023242
 30
0.0
 10
93.798756
 20
29.189662
 30
0.0
 10
101.270346
 20
29.189662
 30
0.0
 10
101.270346
 20
28.023242
 30
0.0
  0
LWPOLYLINE
  5
142
100
AcDbEntity
  8
1
 62
5
100
AcDbPolyline
 90
4
 70
1
 10
102.585807
 20
19.696271
 30
0.0
 10
102.585807
 20
29.189662
 30
0.0
 10
103.881837
 20
29.189662
 30
0.0
 10
103.881837
 20
19.696271
 30
0.0
  0
SPLINE
  5
143
100
AcDbEntity
  8
1
 62
5
100
AcDbSpline
 70
8
 71
3
 72
8
 73
4
 74
0
 40
0
 40
0
 40
0
 40
0
 40
1
 40
1
 40
1
 40
1
 10
111.677427
 20
27.731632
 30
0.0
 10
111.262700
 20
28.034038
 30
0.0
 10
110.610367
 20
28.185242
 30
0.0
 10
109.720427
 20
28.185242
 30
0.0
  0
SPLINE
  5
144
100
AcDbEntity
  8
1
 62
5
100
AcDbSpline
 70
8
 71
3
 72
8
 73
4
 74
0
 40
0
 40
0
 40
0
 40
0
 40
1
 40
1
 40
1
 40
1
 10
109.720427
 20
28.185242
 30
0.0
 10
108.886654
 20
28.185242
 30
0.0
 10
108.217040
 20
27.826675
 30
0.0
 10
107.711587
 20
27.109542
 30
0.0
  0
SPLINE
  5
145
100
AcDbEntity
  8
1
 62
5
100
AcDbSpline
 70
8
 71
3
 72
8
 73
4
 74
0
 40
0
 40
0
 40
0
 40
0
 40
1
 40
1
 40
1
 40
1
 10
107.711587
 20
27.109542
 30
0.0
 10
107.210460
 20
26.392408
 30
0.0
 10
106.959897
 20
25.467912
 30
0.0
 10
106.959897
 20
24.336052
 30
0.0
  0
SPLINE
  5
146
100
AcDbEntity
  8
1
 62
5
100
AcDbSpline
 70
8
 71
3
 72
8
 73
4
 74
0
 40
0
 40
0
 40
0
 40
0
 40
1
 40
1
 40
1
 40
1
 10
106.959897
 20
24.336052
 30
0.0
 10
106.959897
 20
23.256025
 30
0.0
 10
107.216940
 20
22.379045
 30
0.0
 10
107.731027
 20
21.705111
 30
0.0
  0
SPLINE
  5
147
100
AcDbEntity
  8
1
 62
5
100
AcDbSpline
 70
8
 71
3
 72
8
 73
4
 74
0
 40
0
 40
0
 40
0
 40
0
 40
1
 40
1
 40
1
 40
1
 10
107.731027
 20
21.705111
 30
0.0
 10
108.249440
 20
21.035498
 30
0.0
 10
108.916894
 20
20.700691
 30
0.0
 10
109.733387
 20
20.700691
 30
0.0
  0
SPLINE
  5
148
100
AcDbEntity
  8
1
 62
5
100
AcDbSpline
 70
8
 71
3
 72
8
 73
4
 74
0
 40
0
 40
0
 40
0
 40
0
 40
1
 40
1
 40
1
 40
1
 10
109.733387
 20
20.700691
 30
0.0
 10
110.623327
 20
20.700691
 30
0.0
 10
111.308060
 20
21.016058
 30
0.0
 10
111.787587
 20
21.646791
 30
0.0
  0
LWPOLYLINE
  5
149
100
AcDbEntity
  8
1
 62
5
100
AcDbPolyline
 90
2
 70
0
 10
112.111597
 20
28.839732
 30
0.0
 10
111.677427
 20
27.731632
 30
0.0
  0
SPLINE
  5
14a
100
AcDbEntity
  8
1
 62
5
100
AcDbSpline
 70
8
 71
3
 72
8
 73
4
 74
0
 40
0
 40
0
 40
0
 40
0
 40
1
 40
1
 40
1
 40
1
 10
112.500407
 20
20.655331
 30
0.0
 10
111.748707
 20
19.907958
 30
0.0
 10
110.781007
 20
19.534271
 30
0.0
 10
109.597307
 20
19.534271
 30
0.0
  0
SPLINE
  5
14b
100
AcDbEntity
  8
1
 62
5
100
AcDbSpline
 70
8
 71
3
 72
8
 73
4
 74
0
 40
0
 40
0
 40
0
 40
0
 40
1
 40
1
 40
1
 40
1
 10
109.597307
 20
19.534271
 30
0.0
 10
108.357440
 20
19.534271
 30
0.0
 10
107.381100
 20
19.981401
 30
0.0
 10
106.668287
 20
20.875661
 30
0.0
  0
SPLINE
  5
14c
100
AcDbEntity
  8
1
 62
5
100
AcDbSpline
 70
8
 71
3
 72
8
 73
4
 74
0
 40
0
 40
0
 40
0
 40
0
 40
1
 40
1
 40
1
 40
1
 10
106.668287
 20
20.875661
 30
0.0
 10
105.955473
 20
21.769915
 30
0.0
 10
105.599067
 20
22.949298
 30
0.0
 10
105.599067
 20
24.413812
 30
0.0
  0
SPLINE
  5
14d
100
AcDbEntity
  8
1
 62
5
100
AcDbSpline
 70
8
 71
3
 72
8
 73
4
 74
0
 40
0
 40
0
 40
0
 40
0
 40
1
 40
1
 40
1
 40
1
 10
105.599067
 20
24.413812
 30
0.0
 10
105.599067
 20
25.830798
 30
0.0
 10
105.979233
 20
27.008022
 30
0.0
 10
106.739567
 20
27.945482
 30
0.0
  0
SPLINE
  5
14e
100
AcDbEntity
  8
1
 62
5
100
AcDbSpline
 70
8
 71
3
 72
8
 73
4
 74
0
 40
0
 40
0
 40
0
 40
0
 40
1
 40
1
 40
1
 40
1
 10
106.739567
 20
27.945482
 30
0.0
 10
107.499907
 20
28.882935
 30
0.0
 10
108.482727
 20
29.351662
 30
0.0
 10
109.688027
 20
29.351662
 30
0.0
  0
SPLINE
  5
14f
100
AcDbEntity
  8
1
 62
5
100
AcDbSpline
 70
8
 71
3
 72
8
 73
4
 74
0
 40
0
 40
0
 40
0
 40
0
 40
1
 40
1
 40
1
 40
1
 10
109.688027
 20
29.351662
 30
0.0
 10
110.720527
 20
29.351662
 30
0.0
 10
111.528384
 20
29.181019
 30
0.0
 10
112.111597
 20
28.839732
 30
0.0
  0
LWPOLYLINE
  5
150
100
AcDbEntity
  8
1
 62
5
100
AcDbPolyline
 90
2
 70
0
 10
111.787587
 20
21.646791
 30
0.0
 10
112.500407
 20
20.655331
 30
0.0
  0
LWPOLYLINE
  5
151
100
AcDbEntity
  8
1
 62
5
100
AcDbPolyline
 90
1
 70
1
 10
112.111597
 20
28.839732
 30
0.0
  0
SPLINE
  5
152
100
AcDbEntity
  8
1
 62
5
100
AcDbSpline
 70
8
 71
3
 72
8
 73
4
 74
0
 40
0
 40
0
 40
0
 40
0
 40
1
 40
1
 40
1
 40
1
 10
114.036197
 20
21.322791
 30
0.0
 10
114.278117
 20
21.145665
 30
0.0
 10
114.578361
 20
20.996621
 30
0.0
 10
114.936927
 20
20.875661
 30
0.0
  0
SPLINE
  5
153
100
AcDbEntity
  8
1
 62
5
100
AcDbSpline
 70
8
 71
3
 72
8
 73
4
 74
0
 40
0
 40
0
 40
0
 40
0
 40
1
 40
1
 40
1
 40
1
 10
114.936927
 20
20.875661
 30
0.0
 10
115.299821
 20
20.759015
 30
0.0
 10
115.623827
 20
20.700691
 30
0.0
 10
115.908947
 20
20.700691
 30
0.0
  0
SPLINE
  5
154
100
AcDbEntity
  8
1
 62
5
100
AcDbSpline
 70
8
 71
3
 72
8
 73
4
 74
0
 40
0
 40
0
 40
0
 40
0
 40
1
 40
1
 40
1
 40
1
 10
115.908947
 20
20.700691
 30
0.0
 10
116.414401
 20
20.700691
 30
0.0
 10
116.820491
 20
20.838935
 30
0.0
 10
117.127217
 20
21.115421
 30
0.0
  0
SPLINE
  5
155
100
AcDbEntity
  8
1
 62
5
100
AcDbSpline
 70
8
 71
3
 72
8
 73
4
 74
0
 40
0
 40
0
 40
0
 40
0
 40
1
 40
1
 40
1
 40
1
 10
117.127217
 20
21.115421
 30
0.0
 10
117.433944
 20
21.391908
 30
0.0
 10
117.587308
 20
21.743995
 30
0.0
 10
117.587308
 20
22.171681
 30
0.0
  0
SPLINE
  5
156
100
AcDbEntity
  8
1
 62
5
100
AcDbSpline
 70
8
 71
3
 72
8
 73
4
 74
0
 40
0
 40
0
 40
0
 40
0
 40
1
 40
1
 40
1
 40
1
 10
117.587308
 20
22.171681
 30
0.0
 10
117.587308
 20
22.491368
 30
0.0
 10
117.500904
 20
22.787295
 30
0.0
 10
117.328098
 20
23.059461
 30
0.0
  0
SPLINE
  5
157
100
AcDbEntity
  8
1
 62
5
100
AcDbSpline
 70
8
 71
3
 72
8
 73
4
 74
0
 40
0
 40
0
 40
0
 40
0
 40
1
 40
1
 40
1
 40
1
 10
117.328098
 20
23.059461
 30
0.0
 10
117.159617
 20
23.335948
 30
0.0
 10
116.731931
 20
23.636195
 30
0.0
 10
116.045037
 20
23.960202
 30
0.0
  0
LWPOLYLINE
  5
158
100
AcDbEntity
  8
1
 62
5
100
AcDbPolyline
 90
2
 70
0
 10
113.563147
 20
20.130441
 30
0.0
 10
114.036197
 20
21.322791
 30
0.0
  0
SPLINE
  5
159
100
AcDbEntity
  8
1
 62
5
100
AcDbSpline
 70
8
 71
3
 72
8
 73
4
 74
0
 40
0
 40
0
 40
0
 40
0
 40
1
 40
1
 40
1
 40
1
 10
115.280377
 20
24.316612
 30
0.0
 10
114.632364
 20
24.619012
 30
0.0
 10
114.178754
 20
24.977578
 30
0.0
 10
113.919547
 20
25.392312
 30
0.0
  0
SPLINE
  5
15a
100
AcDbEntity
  8
1
 62
5
100
AcDbSpline
 70
8
 71
3
 72
8
 73
4
 74
0
 40
0
 40
0
 40
0
 40
0
 40
1
 40
1
 40
1
 40
1
 10
113.919547
 20
25.392312
 30
0.0
 10
113.664667
 20
25.807038
 30
0.0
 10
113.537227
 20
26.306008
 30
0.0
 10
113.537227
 20
26.889222
 30
0.0
  0
SPLINE
  5
15b
100
AcDbEntity
  8
1
 62
5
100
AcDbSpline
 70
8
 71
3
 72
8
 73
4
 74
0
 40
0
 40
0
 40
0
 40
0
 40
1
 40
1
 40
1
 40
1
 10
113.537227
 20
26.889222
 30
0.0
 10
113.537227
 20
27.597715
 30
0.0
 10
113.787791
 20
28.185245
 30
0.0
 10
114.288917
 20
28.651812
 30
0.0
  0
SPLINE
  5
15c
100
AcDbEntity
  8
1
 62
5
100
AcDbSpline
 70
8
 71
3
 72
8
 73
4
 74
0
 40
0
 40
0
 40
0
 40
0
 40
1
 40
1
 40
1
 40
1
 10
114.288917
 20
28.651812
 30
0.0
 10
114.790051
 20
29.118379
 30
0.0
 10
115.433744
 20
29.351662
 30
0.0
 10
116.219997
 20
29.351662
 30
0.0
  0
SPLINE
  5
15d
100
AcDbEntity
  8
1
 62
5
100
AcDbSpline
 70
8
 71
3
 72
8
 73
4
 74
0
 40
0
 40
0
 40
0
 40
0
 40
1
 40
1
 40
1
 40
1
 10
116.219997
 20
29.351662
 30
0.0
 10
117.269778
 20
29.351662
 30
0.0
 10
117.999871
 20
29.181019
 30
0.0
 10
118.410278
 20
28.839732
 30
0.0
  0
LWPOLYLINE
  5
15e
100
AcDbEntity
  8
1
 62
5
100
AcDbPolyline
 90
2
 70
0
 10
116.045037
 20
23.960202
 30
0.0
 10
115.280377
 20
24.316612
 30
0.0
  0
SPLINE
  5
15f
100
AcDbEntity
  8
1
 62
5
100
AcDbSpline
 70
8
 71
3
 72
8
 73
4
 74
0
 40
0
 40
0
 40
0
 40
0
 40
1
 40
1
 40
1
 40
1
 10
118.027958
 20
27.712192
 30
0.0
 10
117.855151
 20
27.837478
 30
0.0
 10
117.591624
 20
27.958442
 30
0.0
 10
117.237377
 20
28.075082
 30
0.0
  0
SPLINE
  5
160
100
AcDbEntity
  8
1
 62
5
100
AcDbSpline
 70
8
 71
3
 72
8
 73
4
 74
0
 40
0
 40
0
 40
0
 40
0
 40
1
 40
1
 40
1
 40
1
 10
117.237377
 20
28.075082
 30
0.0
 10
116.883131
 20
28.191722
 30
0.0
 10
116.554804
 20
28.250042
 30
0.0
 10
116.252397
 20
28.250042
 30
0.0
  0
SPLINE
  5
161
100
AcDbEntity
  8
1
 62
5
100
AcDbSpline
 70
8
 71
3
 72
8
 73
4
 74
0
 40
0
 40
0
 40
0
 40
0
 40
1
 40
1
 40
1
 40
1
 10
116.252397
 20
28.250042
 30
0.0
 10
115.811751
 20
28.250042
 30
0.0
 10
115.463984
 20
28.124758
 30
0.0
 10
115.209097
 20
27.874192
 30
0.0
  0
SPLINE
  5
162
100
AcDbEntity
  8
1
 62
5
100
AcDbSpline
 70
8
 71
3
 72
8
 73
4
 74
0
 40
0
 40
0
 40
0
 40
0
 40
1
 40
1
 40
1
 40
1
 10
115.209097
 20
27.874192
 30
0.0
 10
114.958531
 20
27.623632
 30
0.0
 10
114.833247
 20
27.301788
 30
0.0
 10
114.833247
 20
26.908662
 30
0.0
  0
SPLINE
  5
163
100
AcDbEntity
  8
1
 62
5
100
AcDbSpline
 70
8
 71
3
 72
8
 73
4
 74
0
 40
0
 40
0
 40
0
 40
0
 40
1
 40
1
 40
1
 40
1
 10
114.833247
 20
26.908662
 30
0.0
 10
114.833247
 20
26.666735
 30
0.0
 10
114.878611
 20
26.446408
 30
0.0
 10
114.969337
 20
26.247682
 30
0.0
  0
SPLINE
  5
164
100
AcDbEntity
  8
1
 62
5
100
AcDbSpline
 70
8
 71
3
 72
8
 73
4
 74
0
 40
0
 40
0
 40
0
 40
0
 40
1
 40
1
 40
1
 40
1
 10
114.969337
 20
26.247682
 30
0.0
 10
115.060057
 20
26.048962
 30
0.0
 10
115.185337
 20
25.882638
 30
0.0
 10
115.345177
 20
25.748712
 30
0.0
  0
SPLINE
  5
165
100
AcDbEntity
  8
1
 62
5
100
AcDbSpline
 70
8
 71
3
 72
8
 73
4
 74
0
 40
0
 40
0
 40
0
 40
0
 40
1
 40
1
 40
1
 40
1
 10
115.345177
 20
25.748712
 30
0.0
 10
115.509344
 20
25.614792
 30
0.0
 10
115.841991
 20
25.426868
 30
0.0
 10
116.343117
 20
25.184942
 30
0.0
  0
LWPOLYLINE
  5
166
100
AcDbEntity
  8
1
 62
5
100
AcDbPolyline
 90
2
 70
0
 10
118.410278
 20
28.839732
 30
0.0
 10
118.027958
 20
27.712192
 30
0.0
  0
SPLINE
  5
167
100
AcDbEntity
  8
1
 62
5
100
AcDbSpline
 70
8
 71
3
 72
8
 73
4
 74
0
 40
0
 40
0
 40
0
 40
0
 40
1
 40
1
 40
1
 40
1
 10
117.120737
 20
24.815572
 30
0.0
 10
117.768751
 20
24.508852
 30
0.0
 10
118.222358
 20
24.141645
 30
0.0
 10
118.481558
 20
23.713952
 30
0.0
  0
SPLINE
  5
168
100
AcDbEntity
  8
1
 62
5
100
AcDbSpline
 70
8
 71
3
 72
8
 73
4
 74
0
 40
0
 40
0
 40
0
 40
0
 40
1
 40
1
 40
1
 40
1
 10
118.481558
 20
23.713952
 30
0.0
 10
118.745084
 20
23.290585
 30
0.0
 10
118.876848
 20
22.750575
 30
0.0
 10
118.876848
 20
22.093921
 30
0.0
  0
SPLINE
  5
169
100
AcDbEntity
  8
1
 62
5
100
AcDbSpline
 70
8
 71
3
 72
8
 73
4
 74
0
 40
0
 40
0
 40
0
 40
0
 40
1
 40
1
 40
1
 40
1
 10
118.876848
 20
22.093921
 30
0.0
 10
118.876848
 20
21.381108
 30
0.0
 10
118.589561
 20
20.776298
 30
0.0
 10
118.014988
 20
20.279491
 30
0.0
  0
SPLINE
  5
16a
100
AcDbEntity
  8
1
 62
5
100
AcDbSpline
 70
8
 71
3
 72
8
 73
4
 74
0
 40
0
 40
0
 40
0
 40
0
 40
1
 40
1
 40
1
 40
1
 10
118.014988
 20
20.279491
 30
0.0
 10
117.444741
 20
19.782678
 30
0.0
 10
116.680087
 20
19.534271
 30
0.0
 10
115.721027
 20
19.534271
 30
0.0
  0
SPLINE
  5
16b
100
AcDbEntity
  8
1
 62
5
100
AcDbSpline
 70
8
 71
3
 72
8
 73
4
 74
0
 40
0
 40
0
 40
0
 40
0
 40
1
 40
1
 40
1
 40
1
 10
115.721027
 20
19.534271
 30
0.0
 10
114.878614
 20
19.534271
 30
0.0
 10
114.159321
 20
19.732995
 30
0.0
 10
113.563147
 20
20.130441
 30
0.0
  0
LWPOLYLINE
  5
16c
100
AcDbEntity
  8
1
 62
5
100
AcDbPolyline
 90
2
 70
0
 10
116.343117
 20
25.184942
 30
0.0
 10
117.120737
 20
24.815572
 30
0.0
  0
LWPOLYLINE
  5
16d
100
AcDbEntity
  8
1
 62
5
100
AcDbPolyline
 90
1
 70
1
 10
113.563147
 20
20.130441
 30
0.0
  0
LWPOLYLINE
  5
16e
100
AcDbEntity
  8
1
 62
7
100
AcDbPolyline
 90
39
 70
1
 10
60.711814
 20
94.366526
 30
0.0
 10
50.613713
 20
58.931674
 30
0.0
 10
46.287643
 20
58.931674
 30
0.0
 10
46.287643
 20
52.876013
 30
0.0
 10
60.766164
 20
52.876013
 30
0.0
 10
60.766164
 20
58.931674
 30
0.0
 10
57.589984
 20
58.931674
 30
0.0
 10
58.939524
 20
63.683964
 30
0.0
 10
69.363954
 20
63.683964
 30
0.0
 10
70.637715
 20
58.931674
 30
0.0
 10
67.039464
 20
58.931674
 30
0.0
 10
67.039464
 20
52.876013
 30
0.0
 10
82.483335
 20
52.876013
 30
0.0
 10
82.483335
 20
38.454562
 30
0.0
 10
78.439525
 20
38.454562
 30
0.0
 10
78.439525
 20
32.398212
 30
0.0
 10
92.995196
 20
32.398212
 30
0.0
 10
92.995196
 20
38.454562
 30
0.0
 10
88.952136
 20
38.454562
 30
0.0
 10
88.952136
 20
52.875273
 30
0.0
 10
97.338496
 20
52.875273
 30
0.0
 10
97.338496
 20
50.453053
 30
0.0
 10
102.594777
 20
50.453053
 30
0.0
 10
102.594777
 20
61.354634
 30
0.0
 10
97.339176
 20
61.354634
 30
0.0
 10
97.339176
 20
58.931004
 30
0.0
 10
88.952816
 20
58.931004
 30
0.0
 10
88.952816
 20
69.741004
 30
0.0
 10
102.189927
 20
69.741004
 30
0.0
 10
102.189927
 20
65.704134
 30
0.0
 10
108.255947
 20
65.704134
 30
0.0
 10
108.255947
 20
75.796665
 30
0.0
 10
78.439525
 20
75.796665
 30
0.0
 10
78.439525
 20
69.741004
 30
0.0
 10
82.482655
 20
69.741004
 30
0.0
 10
82.482655
 20
58.932364
 30
0.0
 10
77.690455
 20
58.932364
 30
0.0
 10
67.201944
 20
94.366526
 30
0.0
 10
60.712504
 20
94.366526
 30
0.0
  0
LWPOLYLINE
  5
16f
100
AcDbEntity
  8
1
 62
7
100
AcDbPolyline
 90
3
 70
1
 10
63.586464
 20
82.661385
 30
0.0
 10
67.632254
 20
69.579204
 30
0.0
 10
60.058364
 20
69.579204
 30
0.0
  0
LWPOLYLINE
  5
170
100
AcDbEntity
  8
1
 62
7
100
AcDbPolyline
 90
195
 70
1
 10
62.055984
 20
99.275876
 30
0.0
 10
62.230354
 20
99.331576
 30
0.0
 10
62.849984
 20
99.535816
 30
0.0
 10
63.469594
 20
99.740116
 30
0.0
 10
63.687334
 20
99.810616
 30
0.0
 10
63.905084
 20
99.881116
 30
0.0
 10
64.456154
 20
100.075536
 30
0.0
 10
65.007214
 20
100.269956
 30
0.0
 10
65.353184
 20
100.391276
 30
0.0
 10
65.699144
 20
100.512606
 30
0.0
 10
65.967944
 20
100.612606
 30
0.0
 10
66.236754
 20
100.712606
 30
0.0
 10
66.523644
 20
100.832516
 30
0.0
 10
66.810544
 20
100.952406
 30
0.0
 10
67.393764
 20
101.200886
 30
0.0
 10
67.976974
 20
101.449366
 30
0.0
 10
68.143894
 20
101.531266
 30
0.0
 10
68.310834
 20
101.613167
 30
0.0
 10
68.438694
 20
101.665267
 30
0.0
 10
68.566554
 20
101.717367
 30
0.0
 10
68.995744
 20
101.945687
 30
0.0
 10
69.424944
 20
102.173997
 30
0.0
 10
69.563044
 20
102.269297
 30
0.0
 10
69.701144
 20
102.364597
 30
0.0
 10
69.781344
 20
102.448597
 30
0.0
 10
69.861544
 20
102.532597
 30
0.0
 10
69.870544
 20
102.610697
 30
0.0
 10
69.879544
 20
102.688797
 30
0.0
 10
69.832144
 20
102.735897
 30
0.0
 10
69.784744
 20
102.782997
 30
0.0
 10
69.653934
 20
102.806697
 30
0.0
 10
69.523114
 20
102.830397
 30
0.0
 10
69.519114
 20
102.844797
 30
0.0
 10
69.515114
 20
102.859297
 30
0.0
 10
68.820104
 20
102.835497
 30
0.0
 10
68.587654
 20
102.816497
 30
0.0
 10
68.355224
 20
102.797497
 30
0.0
 10
67.775214
 20
102.772497
 30
0.0
 10
67.195184
 20
102.747497
 30
0.0
 10
66.977074
 20
102.735297
 30
0.0
 10
66.758964
 20
102.723097
 30
0.0
 10
65.397944
 20
102.616217
 30
0.0
 10
64.036944
 20
102.509347
 30
0.0
 10
63.382874
 20
102.467547
 30
0.0
 10
62.728814
 20
102.425747
 30
0.0
 10
62.698214
 20
102.428747
 30
0.0
 10
62.667614
 20
102.431747
 30
0.0
 10
62.694814
 20
102.384647
 30
0.0
 10
62.722014
 20
102.337647
 30
0.0
 10
62.626714
 20
102.211257
 30
0.0
 10
62.531414
 20
102.084867
 30
0.0
 10
62.074074
 20
101.954377
 30
0.0
 10
61.616724
 20
101.823867
 30
0.0
 10
61.178524
 20
101.734067
 30
0.0
 10
60.740324
 20
101.644267
 30
0.0
 10
60.489174
 20
101.607467
 30
0.0
 10
60.238014
 20
101.570766
 30
0.0
 10
60.019394
 20
101.544966
 30
0.0
 10
59.800784
 20
101.519166
 30
0.0
 10
59.640214
 20
101.498366
 30
0.0
 10
59.479654
 20
101.477566
 30
0.0
 10
59.386154
 20
101.471566
 30
0.0
 10
59.292654
 20
101.465566
 30
0.0
 10
59.098264
 20
101.438266
 30
0.0
 10
58.903884
 20
101.410866
 30
0.0
 10
58.709514
 20
101.388966
 30
0.0
 10
58.515144
 20
101.367066
 30
0.0
 10
58.273164
 20
101.334366
 30
0.0
 10
58.031184
 20
101.301666
 30
0.0
 10
57.674794
 20
101.258566
 30
0.0
 10
57.318414
 20
101.215466
 30
0.0
 10
57.146814
 20
101.191666
 30
0.0
 10
56.975214
 20
101.167866
 30
0.0
 10
56.837514
 20
101.150266
 30
0.0
 10
56.699814
 20
101.132666
 30
0.0
 10
56.357104
 20
101.083266
 30
0.0
 10
56.014394
 20
101.033966
 30
0.0
 10
55.660714
 20
100.981366
 30
0.0
 10
55.307014
 20
100.928766
 30
0.0
 10
55.113944
 20
100.896766
 30
0.0
 10
54.920834
 20
100.864866
 30
0.0
 10
54.672623
 20
100.817866
 30
0.0
 10
54.424393
 20
100.770766
 30
0.0
 10
54.143423
 20
100.713466
 30
0.0
 10
53.862463
 20
100.656166
 30
0.0
 10
53.283523
 20
100.517736
 30
0.0
 10
52.704573
 20
100.379306
 30
0.0
 10
51.175213
 20
99.945506
 30
0.0
 10
49.645853
 20
99.511706
 30
0.0
 10
48.938773
 20
99.280516
 30
0.0
 10
48.231693
 20
99.049316
 30
0.0
 10
47.918553
 20
98.938036
 30
0.0
 10
47.605403
 20
98.826746
 30
0.0
 10
47.348043
 20
98.728346
 30
0.0
 10
47.090683
 20
98.629946
 30
0.0
 10
46.865833
 20
98.542646
 30
0.0
 10
46.640993
 20
98.455346
 30
0.0
 10
45.915413
 20
98.163956
 30
0.0
 10
45.189833
 20
97.872546
 30
0.0
 10
44.998123
 20
97.794146
 30
0.0
 10
44.806393
 20
97.715746
 30
0.0
 10
44.592983
 20
97.630146
 30
0.0
 10
44.379543
 20
97.544546
 30
0.0
 10
44.143573
 20
97.454646
 30
0.0
 10
43.907583
 20
97.364746
 30
0.0
 10
43.669643
 20
97.281746
 30
0.0
 10
43.431693
 20
97.198746
 30
0.0
 10
43.403893
 20
97.170946
 30
0.0
 10
43.376093
 20
97.143146
 30
0.0
 10
43.618163
 20
97.211746
 30
0.0
 10
43.860223
 20
97.280346
 30
0.0
 10
44.295513
 20
97.380346
 30
0.0
 10
44.730823
 20
97.480346
 30
0.0
 10
45.177113
 20
97.583526
 30
0.0
 10
45.623393
 20
97.686706
 30
0.0
 10
46.193643
 20
97.813896
 30
0.0
 10
46.763903
 20
97.941096
 30
0.0
 10
46.909243
 20
97.973596
 30
0.0
 10
47.054593
 20
98.006096
 30
0.0
 10
47.336523
 20
98.059996
 30
0.0
 10
47.618453
 20
98.113996
 30
0.0
 10
47.921763
 20
98.176496
 30
0.0
 10
48.225063
 20
98.238896
 30
0.0
 10
48.539303
 20
98.304696
 30
0.0
 10
48.853543
 20
98.370496
 30
0.0
 10
49.145413
 20
98.431296
 30
0.0
 10
49.437303
 20
98.492096
 30
0.0
 10
49.751613
 20
98.557596
 30
0.0
 10
50.065903
 20
98.623096
 30
0.0
 10
50.357913
 20
98.683496
 30
0.0
 10
50.649913
 20
98.743796
 30
0.0
 10
51.260053
 20
98.856246
 30
0.0
 10
51.870193
 20
98.968706
 30
0.0
 10
52.048763
 20
99.009706
 30
0.0
 10
52.227333
 20
99.050806
 30
0.0
 10
52.319233
 20
99.053806
 30
0.0
 10
52.411133
 20
99.056806
 30
0.0
 10
52.479933
 20
99.009406
 30
0.0
 10
52.548733
 20
98.962006
 30
0.0
 10
52.700603
 20
98.838836
 30
0.0
 10
52.852473
 20
98.715676
 30
0.0
 10
52.922073
 20
98.606336
 30
0.0
 10
52.991673
 20
98.496986
 30
0.0
 10
53.012073
 20
98.425386
 30
0.0
 10
53.032473
 20
98.353786
 30
0.0
 10
53.027473
 20
98.294486
 30
0.0
 10
53.022473
 20
98.235186
 30
0.0
 10
52.935273
 20
98.055456
 30
0.0
 10
52.847973
 20
97.875736
 30
0.0
 10
52.736433
 20
97.710146
 30
0.0
 10
52.624903
 20
97.544546
 30
0.0
 10
52.329033
 20
97.460046
 30
0.0
 10
52.033173
 20
97.375646
 30
0.0
 10
52.016573
 20
97.337846
 30
0.0
 10
51.999973
 20
97.300046
 30
0.0
 10
51.792933
 20
97.215546
 30
0.0
 10
51.585893
 20
97.131046
 30
0.0
 10
51.350293
 20
97.039746
 30
0.0
 10
51.114713
 20
96.948446
 30
0.0
 10
50.879103
 20
96.857146
 30
0.0
 10
50.643513
 20
96.765846
 30
0.0
 10
50.396863
 20
96.671646
 30
0.0
 10
50.150213
 20
96.577346
 30
0.0
 10
49.859483
 20
96.470916
 30
0.0
 10
49.568733
 20
96.364496
 30
0.0
 10
48.874563
 20
96.129696
 30
0.0
 10
48.180413
 20
95.894896
 30
0.0
 10
47.820383
 20
95.768636
 30
0.0
 10
47.460363
 20
95.642366
 30
0.0
 10
47.035303
 20
95.519046
 30
0.0
 10
46.610233
 20
95.395736
 30
0.0
 10
46.571133
 20
95.365736
 30
0.0
 10
46.532133
 20
95.335836
 30
0.0
 10
47.119243
 20
95.487286
 30
0.0
 10
47.706353
 20
95.638746
 30
0.0
 10
48.438363
 20
95.824266
 30
0.0
 10
49.170383
 20
96.009796
 30
0.0
 10
49.616433
 20
96.113766
 30
0.0
 10
50.062483
 20
96.217746
 30
0.0
 10
51.240603
 20
96.507066
 30
0.0
 10
52.418713
 20
96.796386
 30
0.0
 10
52.985903
 20
96.934336
 30
0.0
 10
53.553083
 20
97.072286
 30
0.0
 10
54.230413
 20
97.241056
 30
0.0
 10
54.907724
 20
97.409836
 30
0.0
 10
55.218694
 20
97.487136
 30
0.0
 10
55.529654
 20
97.564436
 30
0.0
 10
56.616674
 20
97.839586
 30
0.0
 10
57.703684
 20
98.114726
 30
0.0
 10
58.634054
 20
98.355326
 30
0.0
 10
59.564424
 20
98.595926
 30
0.0
 10
60.659284
 20
98.885266
 30
0.0
 10
61.754124
 20
99.174676
 30
0.0
 10
61.818924
 20
99.197776
 30
0.0
 10
61.883624
 20
99.220876
 30
0.0
  0
LWPOLYLINE
  5
171
100
AcDbEntity
  8
1
 62
7
100
AcDbPolyline
 90
104
 70
1
 10
45.863443
 20
95.227586
 30
0.0
 10
45.853143
 20
95.289986
 30
0.0
 10
45.969893
 20
95.339286
 30
0.0
 10
46.086663
 20
95.388586
 30
0.0
 10
46.816543
 20
95.623216
 30
0.0
 10
47.546423
 20
95.857846
 30
0.0
 10
48.024463
 20
96.016456
 30
0.0
 10
48.502493
 20
96.175066
 30
0.0
 10
49.075793
 20
96.374966
 30
0.0
 10
49.649083
 20
96.574866
 30
0.0
 10
49.939553
 20
96.682286
 30
0.0
 10
50.230013
 20
96.789706
 30
0.0
 10
50.583613
 20
96.925906
 30
0.0
 10
50.937223
 20
97.062106
 30
0.0
 10
51.150343
 20
97.148806
 30
0.0
 10
51.363483
 20
97.235506
 30
0.0
 10
51.384083
 20
97.265606
 30
0.0
 10
51.404783
 20
97.295606
 30
0.0
 10
51.471583
 20
97.292606
 30
0.0
 10
51.538383
 20
97.289606
 30
0.0
 10
51.700893
 20
97.360106
 30
0.0
 10
51.863403
 20
97.430606
 30
0.0
 10
52.055013
 20
98.140866
 30
0.0
 10
52.246613
 20
98.851126
 30
0.0
 10
52.158813
 20
98.846126
 30
0.0
 10
52.071013
 20
98.841126
 30
0.0
 10
51.938133
 20
98.792326
 30
0.0
 10
51.805253
 20
98.743526
 30
0.0
 10
51.779553
 20
98.757826
 30
0.0
 10
51.753753
 20
98.772126
 30
0.0
 10
51.405133
 20
98.708726
 30
0.0
 10
51.056483
 20
98.645326
 30
0.0
 10
50.797363
 20
98.594826
 30
0.0
 10
50.538223
 20
98.544326
 30
0.0
 10
50.246373
 20
98.483426
 30
0.0
 10
49.954503
 20
98.422526
 30
0.0
 10
49.639993
 20
98.357726
 30
0.0
 10
49.325483
 20
98.292926
 30
0.0
 10
49.033843
 20
98.231426
 30
0.0
 10
48.742183
 20
98.169926
 30
0.0
 10
47.967503
 20
98.008906
 30
0.0
 10
47.192833
 20
97.847896
 30
0.0
 10
46.765303
 20
97.762296
 30
0.0
 10
46.337783
 20
97.676696
 30
0.0
 10
45.935613
 20
97.585596
 30
0.0
 10
45.533453
 20
97.494596
 30
0.0
 10
45.054283
 20
97.381616
 30
0.0
 10
44.575103
 20
97.268656
 30
0.0
 10
44.051733
 20
97.143886
 30
0.0
 10
43.528363
 20
97.019116
 30
0.0
 10
43.049063
 20
96.906576
 30
0.0
 10
42.569773
 20
96.794046
 30
0.0
 10
41.267773
 20
96.480396
 30
0.0
 10
39.965773
 20
96.166746
 30
0.0
 10
39.596603
 20
96.085146
 30
0.0
 10
39.227423
 20
96.003546
 30
0.0
 10
38.352192
 20
95.778096
 30
0.0
 10
37.476982
 20
95.552636
 30
0.0
 10
36.381852
 20
95.264216
 30
0.0
 10
35.286732
 20
94.975796
 30
0.0
 10
34.275582
 20
94.714686
 30
0.0
 10
33.264442
 20
94.453576
 30
0.0
 10
32.612232
 20
94.250326
 30
0.0
 10
31.960022
 20
94.047096
 30
0.0
 10
31.476172
 20
93.891556
 30
0.0
 10
30.992322
 20
93.736026
 30
0.0
 10
30.984322
 20
93.721426
 30
0.0
 10
30.976322
 20
93.706926
 30
0.0
 10
31.824152
 20
93.463406
 30
0.0
 10
32.671992
 20
93.219896
 30
0.0
 10
33.293552
 20
93.042326
 30
0.0
 10
33.915102
 20
92.864746
 30
0.0
 10
34.261812
 20
92.764286
 30
0.0
 10
34.608522
 20
92.663806
 30
0.0
 10
34.868882
 20
92.720806
 30
0.0
 10
35.129242
 20
92.777806
 30
0.0
 10
35.151142
 20
92.701106
 30
0.0
 10
35.172942
 20
92.624406
 30
0.0
 10
35.131242
 20
92.603806
 30
0.0
 10
35.089542
 20
92.583206
 30
0.0
 10
35.064642
 20
92.545206
 30
0.0
 10
35.039842
 20
92.507206
 30
0.0
 10
34.933352
 20
92.463606
 30
0.0
 10
34.826882
 20
92.420006
 30
0.0
 10
34.657022
 20
92.348406
 30
0.0
 10
34.487152
 20
92.276806
 30
0.0
 10
34.309952
 20
92.189306
 30
0.0
 10
34.132742
 20
92.101806
 30
0.0
 10
34.034442
 20
92.071106
 30
0.0
 10
33.936142
 20
92.040406
 30
0.0
 10
33.885642
 20
92.008906
 30
0.0
 10
33.835142
 20
91.977506
 30
0.0
 10
34.301492
 20
92.093746
 30
0.0
 10
34.767822
 20
92.209996
 30
0.0
 10
35.934732
 20
92.496926
 30
0.0
 10
37.101642
 20
92.783836
 30
0.0
 10
37.324972
 20
92.834736
 30
0.0
 10
37.548312
 20
92.885636
 30
0.0
 10
38.951172
 20
93.262626
 30
0.0
 10
40.354033
 20
93.639606
 30
0.0
 10
41.646873
 20
93.985316
 30
0.0
 10
42.939723
 20
94.331036
 30
0.0
 10
44.406603
 20
94.748996
 30
0.0
 10
45.873493
 20
95.166976
 30
0.0
  0
LWPOLYLINE
  5
172
100
AcDbEntity
  8
1
 62
7
100
AcDbPolyline
 90
52
 70
1
 10
43.956823
 20
94.975186
 30
0.0
 10
43.411443
 20
94.844196
 30
0.0
 10
42.786343
 20
94.700806
 30
0.0
 10
42.161243
 20
94.557426
 30
0.0
 10
41.045523
 20
94.299476
 30
0.0
 10
39.929813
 20
94.041546
 30
0.0
 10
39.848213
 20
94.035546
 30
0.0
 10
39.766613
 20
94.029546
 30
0.0
 10
39.742613
 20
94.087346
 30
0.0
 10
39.718613
 20
94.145146
 30
0.0
 10
39.773713
 20
94.186846
 30
0.0
 10
39.828813
 20
94.228546
 30
0.0
 10
40.120083
 20
94.333126
 30
0.0
 10
40.411353
 20
94.437706
 30
0.0
 10
40.833843
 20
94.582606
 30
0.0
 10
41.256323
 20
94.727506
 30
0.0
 10
41.678823
 20
94.872336
 30
0.0
 10
42.101333
 20
95.017176
 30
0.0
 10
42.513473
 20
95.156646
 30
0.0
 10
42.925603
 20
95.296126
 30
0.0
 10
43.523213
 20
95.494196
 30
0.0
 10
44.120803
 20
95.692276
 30
0.0
 10
44.751333
 20
95.858326
 30
0.0
 10
45.381853
 20
96.024376
 30
0.0
 10
45.773273
 20
96.111476
 30
0.0
 10
46.164693
 20
96.198476
 30
0.0
 10
46.578093
 20
96.291876
 30
0.0
 10
46.991493
 20
96.385276
 30
0.0
 10
47.338583
 20
96.460976
 30
0.0
 10
47.685673
 20
96.536676
 30
0.0
 10
47.945003
 20
96.586476
 30
0.0
 10
48.204333
 20
96.636276
 30
0.0
 10
48.409013
 20
96.669276
 30
0.0
 10
48.613683
 20
96.702276
 30
0.0
 10
48.647583
 20
96.687776
 30
0.0
 10
48.681483
 20
96.673276
 30
0.0
 10
48.696183
 20
96.621676
 30
0.0
 10
48.710883
 20
96.570076
 30
0.0
 10
48.678283
 20
96.538476
 30
0.0
 10
48.645683
 20
96.506876
 30
0.0
 10
48.443383
 20
96.424276
 30
0.0
 10
48.241083
 20
96.341676
 30
0.0
 10
48.079813
 20
96.281576
 30
0.0
 10
47.918553
 20
96.221476
 30
0.0
 10
47.388883
 20
96.035436
 30
0.0
 10
46.859223
 20
95.849386
 30
0.0
 10
46.183723
 20
95.632476
 30
0.0
 10
45.508243
 20
95.415596
 30
0.0
 10
45.422143
 20
95.383696
 30
0.0
 10
45.336043
 20
95.351796
 30
0.0
 10
44.919373
 20
95.228196
 30
0.0
 10
44.502693
 20
95.104596
 30
0.0
  0
LWPOLYLINE
  5
173
100
AcDbEntity
  8
1
 62
7
100
AcDbPolyline
 90
34
 70
1
 10
46.040303
 20
95.759406
 30
0.0
 10
46.508263
 20
95.911676
 30
0.0
 10
46.984663
 20
96.076026
 30
0.0
 10
47.461063
 20
96.240386
 30
0.0
 10
47.698593
 20
96.324886
 30
0.0
 10
47.936133
 20
96.409386
 30
0.0
 10
47.711633
 20
96.362486
 30
0.0
 10
47.487123
 20
96.315586
 30
0.0
 10
47.150993
 20
96.243186
 30
0.0
 10
46.814863
 20
96.170786
 30
0.0
 10
46.467713
 20
96.095286
 30
0.0
 10
46.120563
 20
96.019786
 30
0.0
 10
45.618273
 20
95.904496
 30
0.0
 10
45.115973
 20
95.789206
 30
0.0
 10
44.411783
 20
95.589576
 30
0.0
 10
43.707593
 20
95.389946
 30
0.0
 10
42.916023
 20
95.121396
 30
0.0
 10
42.124453
 20
94.852856
 30
0.0
 10
42.086453
 20
94.819356
 30
0.0
 10
42.048453
 20
94.785856
 30
0.0
 10
41.937423
 20
94.758156
 30
0.0
 10
41.826393
 20
94.730456
 30
0.0
 10
41.502133
 20
94.622006
 30
0.0
 10
41.177873
 20
94.513566
 30
0.0
 10
41.172873
 20
94.503566
 30
0.0
 10
41.167873
 20
94.493566
 30
0.0
 10
41.507923
 20
94.575266
 30
0.0
 10
41.847973
 20
94.656966
 30
0.0
 10
42.294343
 20
94.759836
 30
0.0
 10
42.740713
 20
94.862696
 30
0.0
 10
43.121013
 20
94.946996
 30
0.0
 10
43.501323
 20
95.031396
 30
0.0
 10
44.537263
 20
95.318766
 30
0.0
 10
45.573223
 20
95.606126
 30
0.0
  0
LWPOLYLINE
  5
174
100
AcDbEntity
  8
1
 62
7
100
AcDbPolyline
 90
8
 70
1
 10
36.893902
 20
94.719316
 30
0.0
 10
36.793462
 20
95.071236
 30
0.0
 10
37.112382
 20
95.162236
 30
0.0
 10
37.431312
 20
95.253236
 30
0.0
 10
37.531742
 20
94.901326
 30
0.0
 10
37.632182
 20
94.549406
 30
0.0
 10
37.313262
 20
94.458406
 30
0.0
 10
36.994332
 20
94.367406
 30
0.0
  0
LWPOLYLINE
  5
175
100
AcDbEntity
  8
1
 62
7
100
AcDbPolyline
 90
24
 70
1
 10
32.868802
 20
91.580706
 30
0.0
 10
33.362812
 20
91.818796
 30
0.0
 10
33.327612
 20
91.850596
 30
0.0
 10
33.292412
 20
91.882396
 30
0.0
 10
33.308312
 20
91.907996
 30
0.0
 10
33.324212
 20
91.933596
 30
0.0
 10
33.816692
 20
92.166686
 30
0.0
 10
34.309152
 20
92.399776
 30
0.0
 10
34.062812
 20
92.346076
 30
0.0
 10
33.816472
 20
92.292376
 30
0.0
 10
33.150522
 20
92.125436
 30
0.0
 10
32.484572
 20
91.958506
 30
0.0
 10
31.874082
 20
91.763906
 30
0.0
 10
31.263602
 20
91.569286
 30
0.0
 10
30.818192
 20
91.412966
 30
0.0
 10
30.372782
 20
91.256646
 30
0.0
 10
30.532852
 20
91.114566
 30
0.0
 10
30.692932
 20
90.972466
 30
0.0
 10
30.733732
 20
90.963466
 30
0.0
 10
30.774532
 20
90.954466
 30
0.0
 10
31.099872
 20
91.009766
 30
0.0
 10
31.425222
 20
91.065066
 30
0.0
 10
31.899902
 20
91.203876
 30
0.0
 10
32.374572
 20
91.342686
 30
0.0
  0
LWPOLYLINE
  5
176
100
AcDbEntity
  8
1
 62
7
100
AcDbPolyline
 90
46
 70
1
 10
29.840462
 20
91.179636
 30
0.0
 10
29.833462
 20
91.203636
 30
0.0
 10
29.912262
 20
91.240236
 30
0.0
 10
29.991062
 20
91.276836
 30
0.0
 10
30.158222
 20
91.357836
 30
0.0
 10
30.325372
 20
91.438836
 30
0.0
 10
30.725552
 20
91.578556
 30
0.0
 10
31.125702
 20
91.718366
 30
0.0
 10
31.788882
 20
91.930406
 30
0.0
 10
32.452032
 20
92.142456
 30
0.0
 10
33.108622
 20
92.306856
 30
0.0
 10
33.765212
 20
92.471256
 30
0.0
 10
34.000012
 20
92.523656
 30
0.0
 10
34.234802
 20
92.576056
 30
0.0
 10
34.142502
 20
92.607956
 30
0.0
 10
34.050202
 20
92.639856
 30
0.0
 10
33.350842
 20
92.839966
 30
0.0
 10
32.651502
 20
93.040076
 30
0.0
 10
31.758042
 20
93.295226
 30
0.0
 10
30.864602
 20
93.550376
 30
0.0
 10
30.761702
 20
93.581576
 30
0.0
 10
30.658832
 20
93.612676
 30
0.0
 10
30.332112
 20
93.503186
 30
0.0
 10
30.005392
 20
93.393706
 30
0.0
 10
29.681072
 20
93.279896
 30
0.0
 10
29.356752
 20
93.166086
 30
0.0
 10
29.112712
 20
93.079086
 30
0.0
 10
28.868672
 20
92.992086
 30
0.0
 10
28.841572
 20
93.037886
 30
0.0
 10
28.814472
 20
93.083786
 30
0.0
 10
28.705702
 20
93.039186
 30
0.0
 10
28.596932
 20
92.994586
 30
0.0
 10
28.391632
 20
92.922186
 30
0.0
 10
28.186322
 20
92.849786
 30
0.0
 10
28.142822
 20
92.827286
 30
0.0
 10
28.099322
 20
92.804786
 30
0.0
 10
28.329512
 20
91.948316
 30
0.0
 10
28.559652
 20
91.091836
 30
0.0
 10
28.559192
 20
91.041036
 30
0.0
 10
28.558742
 20
90.990236
 30
0.0
 10
28.705532
 20
91.003836
 30
0.0
 10
28.852332
 20
91.017436
 30
0.0
 10
29.155742
 20
91.047636
 30
0.0
 10
29.459152
 20
91.077836
 30
0.0
 10
29.653402
 20
91.116636
 30
0.0
 10
29.847652
 20
91.155436
 30
0.0
  0
LWPOLYLINE
  5
177
100
AcDbEntity
  8
1
 62
7
100
AcDbPolyline
 90
14
 70
1
 10
52.673693
 20
97.956136
 30
0.0
 10
52.831303
 20
98.233026
 30
0.0
 10
52.845803
 20
98.303026
 30
0.0
 10
52.860303
 20
98.373026
 30
0.0
 10
52.793503
 20
98.478466
 30
0.0
 10
52.726703
 20
98.583896
 30
0.0
 10
52.582173
 20
98.704376
 30
0.0
 10
52.437643
 20
98.824846
 30
0.0
 10
52.275733
 20
98.212546
 30
0.0
 10
52.113813
 20
97.600256
 30
0.0
 10
52.217903
 20
97.614256
 30
0.0
 10
52.322003
 20
97.628256
 30
0.0
 10
52.419103
 20
97.653956
 30
0.0
 10
52.516203
 20
97.679656
 30
0.0
  0
LWPOLYLINE
  5
178
100
AcDbEntity
  8
1
 62
7
100
AcDbPolyline
 90
20
 70
1
 10
28.301572
 20
91.321146
 30
0.0
 10
28.212072
 20
91.635016
 30
0.0
 10
28.071172
 20
92.183526
 30
0.0
 10
27.930262
 20
92.732026
 30
0.0
 10
27.846062
 20
92.708026
 30
0.0
 10
27.761862
 20
92.684026
 30
0.0
 10
27.634192
 20
92.624426
 30
0.0
 10
27.506522
 20
92.564926
 30
0.0
 10
27.297072
 20
92.465426
 30
0.0
 10
27.087612
 20
92.365926
 30
0.0
 10
27.021112
 20
92.332526
 30
0.0
 10
26.954512
 20
92.299126
 30
0.0
 10
27.145402
 20
91.605196
 30
0.0
 10
27.336292
 20
90.911286
 30
0.0
 10
27.512172
 20
90.920286
 30
0.0
 10
27.688052
 20
90.929286
 30
0.0
 10
27.987122
 20
90.964786
 30
0.0
 10
28.286212
 20
91.000286
 30
0.0
 10
28.338612
 20
91.004286
 30
0.0
 10
28.391012
 20
91.008286
 30
0.0
  0
LWPOLYLINE
  5
179
100
AcDbEntity
  8
1
 62
7
100
AcDbPolyline
 90
72
 70
1
 10
62.486184
 20
102.329367
 30
0.0
 10
62.564984
 20
102.443937
 30
0.0
 10
61.649214
 20
102.635287
 30
0.0
 10
60.733444
 20
102.826647
 30
0.0
 10
60.216414
 20
102.929697
 30
0.0
 10
59.699374
 20
103.032727
 30
0.0
 10
59.401484
 20
103.076327
 30
0.0
 10
59.103594
 20
103.119927
 30
0.0
 10
58.774454
 20
103.147927
 30
0.0
 10
58.445324
 20
103.175927
 30
0.0
 10
58.137464
 20
103.171927
 30
0.0
 10
57.829604
 20
103.167927
 30
0.0
 10
57.433754
 20
103.136927
 30
0.0
 10
57.037914
 20
103.105927
 30
0.0
 10
56.750334
 20
103.071827
 30
0.0
 10
56.462764
 20
103.037727
 30
0.0
 10
56.101484
 20
102.970027
 30
0.0
 10
55.740224
 20
102.902327
 30
0.0
 10
55.212514
 20
102.792757
 30
0.0
 10
54.684813
 20
102.683167
 30
0.0
 10
53.320763
 20
102.295217
 30
0.0
 10
51.956713
 20
101.907267
 30
0.0
 10
51.417863
 20
101.711727
 30
0.0
 10
50.879013
 20
101.516166
 30
0.0
 10
50.360723
 20
101.331896
 30
0.0
 10
49.842433
 20
101.147636
 30
0.0
 10
49.795933
 20
101.122836
 30
0.0
 10
49.749433
 20
101.098036
 30
0.0
 10
49.756433
 20
101.075336
 30
0.0
 10
49.763433
 20
101.052636
 30
0.0
 10
49.857733
 20
101.003536
 30
0.0
 10
49.952033
 20
100.954436
 30
0.0
 10
50.356303
 20
100.653546
 30
0.0
 10
50.760563
 20
100.352666
 30
0.0
 10
50.926593
 20
100.227596
 30
0.0
 10
51.092623
 20
100.102536
 30
0.0
 10
51.708723
 20
100.278316
 30
0.0
 10
52.324823
 20
100.454096
 30
0.0
 10
52.968853
 20
100.614506
 30
0.0
 10
53.612853
 20
100.774976
 30
0.0
 10
53.949603
 20
100.845276
 30
0.0
 10
54.286333
 20
100.915576
 30
0.0
 10
54.851754
 20
101.018016
 30
0.0
 10
55.417184
 20
101.120446
 30
0.0
 10
55.737314
 20
101.165546
 30
0.0
 10
56.057454
 20
101.210646
 30
0.0
 10
56.240124
 20
101.237346
 30
0.0
 10
56.422774
 20
101.264046
 30
0.0
 10
56.582764
 20
101.286846
 30
0.0
 10
56.742764
 20
101.309546
 30
0.0
 10
56.902854
 20
101.332046
 30
0.0
 10
57.062934
 20
101.354546
 30
0.0
 10
57.281174
 20
101.381546
 30
0.0
 10
57.499424
 20
101.408546
 30
0.0
 10
58.027954
 20
101.473546
 30
0.0
 10
58.556484
 20
101.538646
 30
0.0
 10
58.694294
 20
101.555846
 30
0.0
 10
58.832104
 20
101.573046
 30
0.0
 10
58.992234
 20
101.595346
 30
0.0
 10
59.152374
 20
101.617647
 30
0.0
 10
59.307194
 20
101.637847
 30
0.0
 10
59.461994
 20
101.658047
 30
0.0
 10
59.569694
 20
101.665047
 30
0.0
 10
59.677394
 20
101.672047
 30
0.0
 10
60.070644
 20
101.723147
 30
0.0
 10
60.463914
 20
101.774247
 30
0.0
 10
60.623554
 20
101.798247
 30
0.0
 10
60.783194
 20
101.822247
 30
0.0
 10
61.320344
 20
101.940467
 30
0.0
 10
61.857474
 20
102.058677
 30
0.0
 10
62.132924
 20
102.136877
 30
0.0
 10
62.408374
 20
102.215077
 30
0.0
  0
LWPOLYLINE
  5
17a
100
AcDbEntity
  8
1
 62
7
100
AcDbPolyline
 90
24
 70
1
 10
61.547424
 20
102.099677
 30
0.0
 10
61.087324
 20
102.003177
 30
0.0
 10
60.883134
 20
101.968577
 30
0.0
 10
60.678934
 20
101.933977
 30
0.0
 10
60.245074
 20
101.870577
 30
0.0
 10
59.811214
 20
101.807177
 30
0.0
 10
59.679584
 20
101.789177
 30
0.0
 10
59.547974
 20
101.771177
 30
0.0
 10
59.531274
 20
101.780177
 30
0.0
 10
59.514574
 20
101.789177
 30
0.0
 10
59.618054
 20
102.319987
 30
0.0
 10
59.721534
 20
102.850797
 30
0.0
 10
59.746334
 20
102.857797
 30
0.0
 10
59.771134
 20
102.864797
 30
0.0
 10
59.933284
 20
102.838397
 30
0.0
 10
60.095434
 20
102.812097
 30
0.0
 10
61.163954
 20
102.589437
 30
0.0
 10
62.232484
 20
102.366767
 30
0.0
 10
62.239484
 20
102.343467
 30
0.0
 10
62.246484
 20
102.320167
 30
0.0
 10
62.227684
 20
102.286267
 30
0.0
 10
62.208884
 20
102.252367
 30
0.0
 10
62.108754
 20
102.223967
 30
0.0
 10
62.008624
 20
102.195567
 30
0.0
  0
LWPOLYLINE
  5
17b
100
AcDbEntity
  8
1
 62
7
100
AcDbPolyline
 90
34
 70
1
 10
58.813134
 20
101.689687
 30
0.0
 10
58.478474
 20
101.642987
 30
0.0
 10
58.100214
 20
101.593186
 30
0.0
 10
57.721954
 20
101.543386
 30
0.0
 10
57.583864
 20
101.527286
 30
0.0
 10
57.445774
 20
101.511086
 30
0.0
 10
57.020224
 20
101.460286
 30
0.0
 10
56.594674
 20
101.409486
 30
0.0
 10
56.331874
 20
101.371786
 30
0.0
 10
56.069074
 20
101.334086
 30
0.0
 10
55.748484
 20
101.290586
 30
0.0
 10
55.427904
 20
101.247086
 30
0.0
 10
55.330504
 20
101.233986
 30
0.0
 10
55.233204
 20
101.220886
 30
0.0
 10
55.035364
 20
101.914087
 30
0.0
 10
54.837524
 20
102.607297
 30
0.0
 10
55.122144
 20
102.672697
 30
0.0
 10
55.406764
 20
102.738097
 30
0.0
 10
55.914524
 20
102.834197
 30
0.0
 10
56.422274
 20
102.930297
 30
0.0
 10
56.817764
 20
102.974597
 30
0.0
 10
57.213264
 20
103.018897
 30
0.0
 10
57.595644
 20
103.041197
 30
0.0
 10
57.978014
 20
103.063497
 30
0.0
 10
58.326964
 20
103.049397
 30
0.0
 10
58.675914
 20
103.035197
 30
0.0
 10
59.053584
 20
102.982897
 30
0.0
 10
59.431264
 20
102.930597
 30
0.0
 10
59.434264
 20
102.921597
 30
0.0
 10
59.437264
 20
102.912597
 30
0.0
 10
59.328544
 20
102.334667
 30
0.0
 10
59.219834
 20
101.756767
 30
0.0
 10
59.184234
 20
101.746667
 30
0.0
 10
59.148734
 20
101.736567
 30
0.0
  0
LWPOLYLINE
  5
17c
100
AcDbEntity
  8
1
 62
7
100
AcDbPolyline
 90
22
 70
1
 10
54.121743
 20
100.989476
 30
0.0
 10
53.719373
 20
100.899176
 30
0.0
 10
53.206873
 20
100.777916
 30
0.0
 10
52.694403
 20
100.656646
 30
0.0
 10
52.095563
 20
100.485306
 30
0.0
 10
51.496743
 20
100.313986
 30
0.0
 10
51.463943
 20
100.369986
 30
0.0
 10
51.431143
 20
100.425986
 30
0.0
 10
51.155613
 20
100.918226
 30
0.0
 10
50.880093
 20
101.410476
 30
0.0
 10
50.892193
 20
101.419476
 30
0.0
 10
50.904293
 20
101.428476
 30
0.0
 10
51.344903
 20
101.593186
 30
0.0
 10
51.785523
 20
101.757887
 30
0.0
 10
52.800523
 20
102.059667
 30
0.0
 10
53.815523
 20
102.361497
 30
0.0
 10
54.072033
 20
102.417697
 30
0.0
 10
54.328543
 20
102.473897
 30
0.0
 10
54.523173
 20
101.791917
 30
0.0
 10
54.717814
 20
101.109936
 30
0.0
 10
54.620913
 20
101.095136
 30
0.0
 10
54.524013
 20
101.080336
 30
0.0
  0
LWPOLYLINE
  5
17d
100
AcDbEntity
  8
1
 62
7
100
AcDbPolyline
 90
128
 70
1
 10
42.070613
 20
96.875276
 30
0.0
 10
42.090313
 20
96.889276
 30
0.0
 10
42.641043
 20
97.084876
 30
0.0
 10
43.191783
 20
97.280476
 30
0.0
 10
43.707443
 20
97.473956
 30
0.0
 10
44.223113
 20
97.667426
 30
0.0
 10
44.436863
 20
97.751826
 30
0.0
 10
44.650623
 20
97.836326
 30
0.0
 10
44.702423
 20
97.863226
 30
0.0
 10
44.754223
 20
97.890126
 30
0.0
 10
45.096753
 20
98.023496
 30
0.0
 10
45.439273
 20
98.156866
 30
0.0
 10
45.833533
 20
98.317296
 30
0.0
 10
46.227803
 20
98.477726
 30
0.0
 10
46.463693
 20
98.567926
 30
0.0
 10
46.699623
 20
98.658126
 30
0.0
 10
47.052833
 20
98.795686
 30
0.0
 10
47.406053
 20
98.933246
 30
0.0
 10
47.685583
 20
99.037276
 30
0.0
 10
47.965123
 20
99.141306
 30
0.0
 10
48.541413
 20
99.330706
 30
0.0
 10
49.117703
 20
99.520096
 30
0.0
 10
49.993443
 20
99.780446
 30
0.0
 10
50.869193
 20
100.040806
 30
0.0
 10
50.872193
 20
100.047806
 30
0.0
 10
50.875193
 20
100.054806
 30
0.0
 10
50.409303
 20
100.397566
 30
0.0
 10
49.943393
 20
100.740326
 30
0.0
 10
49.781733
 20
100.855086
 30
0.0
 10
49.620073
 20
100.969836
 30
0.0
 10
49.607173
 20
101.015036
 30
0.0
 10
49.594273
 20
101.060236
 30
0.0
 10
49.558973
 20
101.038336
 30
0.0
 10
49.523673
 20
101.016436
 30
0.0
 10
49.406343
 20
100.969136
 30
0.0
 10
49.289023
 20
100.921836
 30
0.0
 10
49.191123
 20
100.883036
 30
0.0
 10
49.093223
 20
100.844236
 30
0.0
 10
48.903643
 20
100.765436
 30
0.0
 10
48.714073
 20
100.686536
 30
0.0
 10
48.404363
 20
100.563206
 30
0.0
 10
48.094663
 20
100.439866
 30
0.0
 10
47.162973
 20
100.078876
 30
0.0
 10
46.231283
 20
99.717886
 30
0.0
 10
46.102763
 20
99.668086
 30
0.0
 10
45.974263
 20
99.618286
 30
0.0
 10
45.889663
 20
99.581286
 30
0.0
 10
45.805063
 20
99.544286
 30
0.0
 10
45.634593
 20
99.474886
 30
0.0
 10
45.464103
 20
99.405486
 30
0.0
 10
44.361773
 20
98.934006
 30
0.0
 10
43.259423
 20
98.462526
 30
0.0
 10
43.100323
 20
98.394926
 30
0.0
 10
42.941213
 20
98.327326
 30
0.0
 10
42.590873
 20
98.179636
 30
0.0
 10
42.240553
 20
98.031936
 30
0.0
 10
41.522773
 20
97.754876
 30
0.0
 10
40.804993
 20
97.477816
 30
0.0
 10
40.719893
 20
97.442516
 30
0.0
 10
40.634793
 20
97.407316
 30
0.0
 10
40.396283
 20
97.326216
 30
0.0
 10
40.157783
 20
97.245116
 30
0.0
 10
39.701853
 20
97.092356
 30
0.0
 10
39.245943
 20
96.939586
 30
0.0
 10
38.671052
 20
96.775086
 30
0.0
 10
38.096182
 20
96.610596
 30
0.0
 10
37.856262
 20
96.591396
 30
0.0
 10
37.616352
 20
96.572196
 30
0.0
 10
37.432212
 20
96.588896
 30
0.0
 10
37.248072
 20
96.605596
 30
0.0
 10
37.052962
 20
96.655796
 30
0.0
 10
36.857862
 20
96.705996
 30
0.0
 10
36.660182
 20
96.781796
 30
0.0
 10
36.462492
 20
96.857596
 30
0.0
 10
36.226802
 20
96.986656
 30
0.0
 10
35.991112
 20
97.115716
 30
0.0
 10
35.709082
 20
97.344456
 30
0.0
 10
35.427062
 20
97.573196
 30
0.0
 10
34.546932
 20
98.273476
 30
0.0
 10
33.666812
 20
98.973756
 30
0.0
 10
32.652482
 20
99.778446
 30
0.0
 10
31.638152
 20
100.583146
 30
0.0
 10
31.426902
 20
100.748826
 30
0.0
 10
31.215662
 20
100.914506
 30
0.0
 10
31.143762
 20
100.989206
 30
0.0
 10
31.071862
 20
101.063806
 30
0.0
 10
29.815662
 20
100.711316
 30
0.0
 10
28.559472
 20
100.358816
 30
0.0
 10
28.542772
 20
100.320716
 30
0.0
 10
28.526072
 20
100.282616
 30
0.0
 10
28.571472
 20
100.257316
 30
0.0
 10
28.616872
 20
100.232016
 30
0.0
 10
28.669572
 20
100.247116
 30
0.0
 10
28.722172
 20
100.262216
 30
0.0
 10
28.758472
 20
100.224716
 30
0.0
 10
28.794772
 20
100.187216
 30
0.0
 10
28.795022
 20
99.729716
 30
0.0
 10
28.795292
 20
99.272196
 30
0.0
 10
28.798292
 20
98.333416
 30
0.0
 10
28.801292
 20
97.394636
 30
0.0
 10
28.804292
 20
97.050596
 30
0.0
 10
28.807292
 20
96.706556
 30
0.0
 10
28.806842
 20
96.665056
 30
0.0
 10
28.806382
 20
96.623556
 30
0.0
 10
29.497792
 20
96.814876
 30
0.0
 10
30.189202
 20
97.006186
 30
0.0
 10
30.504402
 20
95.883026
 30
0.0
 10
30.819602
 20
94.759866
 30
0.0
 10
30.923962
 20
94.344066
 30
0.0
 10
31.028332
 20
93.928266
 30
0.0
 10
31.493002
 20
94.078316
 30
0.0
 10
31.957652
 20
94.228376
 30
0.0
 10
33.112392
 20
94.557926
 30
0.0
 10
34.267142
 20
94.887486
 30
0.0
 10
35.217572
 20
95.141096
 30
0.0
 10
36.168022
 20
95.394706
 30
0.0
 10
36.402142
 20
95.449506
 30
0.0
 10
36.636262
 20
95.504306
 30
0.0
 10
37.189462
 20
95.649566
 30
0.0
 10
37.742672
 20
95.794826
 30
0.0
 10
38.496702
 20
95.986556
 30
0.0
 10
39.250723
 20
96.178286
 30
0.0
 10
39.941923
 20
96.340076
 30
0.0
 10
40.633133
 20
96.501866
 30
0.0
 10
40.911413
 20
96.568666
 30
0.0
 10
41.189683
 20
96.635466
 30
0.0
 10
41.620953
 20
96.749586
 30
0.0
 10
42.052213
 20
96.863716
 30
0.0
  0
LWPOLYLINE
  5
17e
100
AcDbEntity
  8
1
 62
7
100
AcDbPolyline
 90
8
 70
1
 10
31.506812
 20
98.926296
 30
0.0
 10
31.459712
 20
99.091256
 30
0.0
 10
31.734662
 20
99.169656
 30
0.0
 10
32.009592
 20
99.248056
 30
0.0
 10
32.056692
 20
99.083076
 30
0.0
 10
32.103792
 20
98.918116
 30
0.0
 10
31.828852
 20
98.839716
 30
0.0
 10
31.553922
 20
98.761316
 30
0.0
  0
LWPOLYLINE
  5
17f
100
AcDbEntity
  8
1
 62
7
100
AcDbPolyline
 90
24
 70
1
 10
29.441492
 20
93.369366
 30
0.0
 10
29.916712
 20
93.537866
 30
0.0
 10
29.955012
 20
93.570166
 30
0.0
 10
29.993312
 20
93.602466
 30
0.0
 10
30.385472
 20
93.728556
 30
0.0
 10
30.777642
 20
93.854706
 30
0.0
 10
30.820942
 20
93.880506
 30
0.0
 10
30.864242
 20
93.906306
 30
0.0
 10
30.616252
 20
94.826556
 30
0.0
 10
30.368252
 20
95.746816
 30
0.0
 10
30.228902
 20
96.284236
 30
0.0
 10
30.089562
 20
96.821656
 30
0.0
 10
29.447352
 20
96.632366
 30
0.0
 10
28.805142
 20
96.443066
 30
0.0
 10
28.807142
 20
96.253316
 30
0.0
 10
28.809142
 20
96.063566
 30
0.0
 10
28.812142
 20
94.922686
 30
0.0
 10
28.815142
 20
93.781796
 30
0.0
 10
28.817142
 20
93.480626
 30
0.0
 10
28.819142
 20
93.179456
 30
0.0
 10
28.823142
 20
93.166856
 30
0.0
 10
28.827142
 20
93.154256
 30
0.0
 10
28.897742
 20
93.177756
 30
0.0
 10
28.968342
 20
93.201156
 30
0.0
  0
LWPOLYLINE
  5
180
100
AcDbEntity
  8
1
 62
7
100
AcDbPolyline
 90
194
 70
1
 10
45.273003
 20
82.913315
 30
0.0
 10
45.447373
 20
82.969015
 30
0.0
 10
46.067003
 20
83.173255
 30
0.0
 10
46.686613
 20
83.377555
 30
0.0
 10
46.904353
 20
83.448055
 30
0.0
 10
47.122103
 20
83.518555
 30
0.0
 10
47.673173
 20
83.712985
 30
0.0
 10
48.224233
 20
83.907405
 30
0.0
 10
48.570203
 20
84.028725
 30
0.0
 10
48.916173
 20
84.150045
 30
0.0
 10
49.184963
 20
84.250045
 30
0.0
 10
49.453763
 20
84.350045
 30
0.0
 10
49.740663
 20
84.469955
 30
0.0
 10
50.027563
 20
84.589835
 30
0.0
 10
50.610773
 20
84.838325
 30
0.0
 10
51.193993
 20
85.086805
 30
0.0
 10
51.360913
 20
85.168705
 30
0.0
 10
51.527853
 20
85.250605
 30
0.0
 10
51.655713
 20
85.302705
 30
0.0
 10
51.783573
 20
85.354805
 30
0.0
 10
52.212763
 20
85.583115
 30
0.0
 10
52.641963
 20
85.811435
 30
0.0
 10
52.780063
 20
85.906735
 30
0.0
 10
52.918173
 20
86.002036
 30
0.0
 10
52.998373
 20
86.086036
 30
0.0
 10
53.078573
 20
86.170036
 30
0.0
 10
53.087573
 20
86.248136
 30
0.0
 10
53.096573
 20
86.326236
 30
0.0
 10
53.049173
 20
86.373336
 30
0.0
 10
53.001773
 20
86.420336
 30
0.0
 10
52.870963
 20
86.444036
 30
0.0
 10
52.740143
 20
86.467736
 30
0.0
 10
52.736143
 20
86.482136
 30
0.0
 10
52.036943
 20
86.473136
 30
0.0
 10
51.804503
 20
86.454136
 30
0.0
 10
51.572063
 20
86.435136
 30
0.0
 10
50.992053
 20
86.410136
 30
0.0
 10
50.412023
 20
86.385136
 30
0.0
 10
50.193913
 20
86.372936
 30
0.0
 10
49.975803
 20
86.360736
 30
0.0
 10
48.614793
 20
86.253866
 30
0.0
 10
47.253783
 20
86.146996
 30
0.0
 10
46.599713
 20
86.105196
 30
0.0
 10
45.945653
 20
86.063396
 30
0.0
 10
45.915053
 20
86.066396
 30
0.0
 10
45.884453
 20
86.069396
 30
0.0
 10
45.911653
 20
86.022296
 30
0.0
 10
45.938853
 20
85.975296
 30
0.0
 10
45.843553
 20
85.848905
 30
0.0
 10
45.748253
 20
85.722515
 30
0.0
 10
45.290913
 20
85.592025
 30
0.0
 10
44.833563
 20
85.461515
 30
0.0
 10
44.395363
 20
85.371715
 30
0.0
 10
43.957163
 20
85.281915
 30
0.0
 10
43.706013
 20
85.245115
 30
0.0
 10
43.454863
 20
85.208415
 30
0.0
 10
43.236233
 20
85.182615
 30
0.0
 10
43.017623
 20
85.156815
 30
0.0
 10
42.857053
 20
85.136015
 30
0.0
 10
42.696493
 20
85.115215
 30
0.0
 10
42.602993
 20
85.109215
 30
0.0
 10
42.509493
 20
85.103215
 30
0.0
 10
42.315103
 20
85.075815
 30
0.0
 10
42.120723
 20
85.048515
 30
0.0
 10
41.926353
 20
85.026615
 30
0.0
 10
41.731983
 20
85.004715
 30
0.0
 10
41.490003
 20
84.972015
 30
0.0
 10
41.248023
 20
84.939315
 30
0.0
 10
40.891633
 20
84.896215
 30
0.0
 10
40.535253
 20
84.853115
 30
0.0
 10
40.363643
 20
84.829315
 30
0.0
 10
40.192053
 20
84.805515
 30
0.0
 10
40.054353
 20
84.787915
 30
0.0
 10
39.916643
 20
84.770315
 30
0.0
 10
39.573943
 20
84.720915
 30
0.0
 10
39.231233
 20
84.671615
 30
0.0
 10
38.877542
 20
84.619015
 30
0.0
 10
38.523842
 20
84.566415
 30
0.0
 10
38.330782
 20
84.534415
 30
0.0
 10
38.137672
 20
84.502515
 30
0.0
 10
37.889462
 20
84.455515
 30
0.0
 10
37.641232
 20
84.408515
 30
0.0
 10
37.360262
 20
84.351215
 30
0.0
 10
37.079302
 20
84.293915
 30
0.0
 10
36.500362
 20
84.155485
 30
0.0
 10
35.921412
 20
84.017055
 30
0.0
 10
34.392062
 20
83.583255
 30
0.0
 10
32.862692
 20
83.149455
 30
0.0
 10
32.155612
 20
82.918265
 30
0.0
 10
31.448532
 20
82.687065
 30
0.0
 10
31.135382
 20
82.575775
 30
0.0
 10
30.822242
 20
82.464495
 30
0.0
 10
30.564882
 20
82.366095
 30
0.0
 10
30.307522
 20
82.267695
 30
0.0
 10
30.082672
 20
82.180395
 30
0.0
 10
29.857832
 20
82.093095
 30
0.0
 10
29.132242
 20
81.801685
 30
0.0
 10
28.406662
 20
81.510285
 30
0.0
 10
28.214962
 20
81.431885
 30
0.0
 10
28.023232
 20
81.353485
 30
0.0
 10
27.809822
 20
81.267885
 30
0.0
 10
27.596392
 20
81.182285
 30
0.0
 10
27.360412
 20
81.092385
 30
0.0
 10
27.124422
 20
81.002485
 30
0.0
 10
26.886482
 20
80.919485
 30
0.0
 10
26.648532
 20
80.836485
 30
0.0
 10
26.620732
 20
80.808685
 30
0.0
 10
26.592932
 20
80.780885
 30
0.0
 10
26.834992
 20
80.849585
 30
0.0
 10
27.077052
 20
80.918185
 30
0.0
 10
27.512352
 20
81.018185
 30
0.0
 10
27.947652
 20
81.118185
 30
0.0
 10
28.393942
 20
81.221365
 30
0.0
 10
28.840232
 20
81.324545
 30
0.0
 10
29.410472
 20
81.451735
 30
0.0
 10
29.980742
 20
81.578945
 30
0.0
 10
30.126082
 20
81.611445
 30
0.0
 10
30.271432
 20
81.643945
 30
0.0
 10
30.553362
 20
81.697845
 30
0.0
 10
30.835282
 20
81.751845
 30
0.0
 10
31.138592
 20
81.814245
 30
0.0
 10
31.441892
 20
81.876745
 30
0.0
 10
31.756132
 20
81.942545
 30
0.0
 10
32.070372
 20
82.008345
 30
0.0
 10
32.362252
 20
82.069145
 30
0.0
 10
32.654132
 20
82.129945
 30
0.0
 10
32.968442
 20
82.195445
 30
0.0
 10
33.282742
 20
82.260945
 30
0.0
 10
33.574742
 20
82.321345
 30
0.0
 10
33.866742
 20
82.381645
 30
0.0
 10
34.476882
 20
82.494105
 30
0.0
 10
35.087032
 20
82.606555
 30
0.0
 10
35.265592
 20
82.647555
 30
0.0
 10
35.444172
 20
82.688655
 30
0.0
 10
35.536072
 20
82.691655
 30
0.0
 10
35.627972
 20
82.694655
 30
0.0
 10
35.696772
 20
82.647255
 30
0.0
 10
35.765572
 20
82.599855
 30
0.0
 10
35.917432
 20
82.476685
 30
0.0
 10
36.069302
 20
82.353525
 30
0.0
 10
36.138902
 20
82.244185
 30
0.0
 10
36.208502
 20
82.134835
 30
0.0
 10
36.228902
 20
82.063235
 30
0.0
 10
36.249302
 20
81.991635
 30
0.0
 10
36.244302
 20
81.932335
 30
0.0
 10
36.239302
 20
81.873035
 30
0.0
 10
36.152002
 20
81.693305
 30
0.0
 10
36.064702
 20
81.513585
 30
0.0
 10
35.953162
 20
81.347995
 30
0.0
 10
35.841632
 20
81.182395
 30
0.0
 10
35.545762
 20
81.097995
 30
0.0
 10
35.249892
 20
81.013595
 30
0.0
 10
35.233192
 20
80.975795
 30
0.0
 10
35.216592
 20
80.937995
 30
0.0
 10
35.009552
 20
80.853495
 30
0.0
 10
34.802512
 20
80.768995
 30
0.0
 10
34.566922
 20
80.677695
 30
0.0
 10
34.331332
 20
80.586395
 30
0.0
 10
34.095722
 20
80.495095
 30
0.0
 10
33.860132
 20
80.403795
 30
0.0
 10
33.613482
 20
80.309595
 30
0.0
 10
33.366832
 20
80.215295
 30
0.0
 10
33.076092
 20
80.108865
 30
0.0
 10
32.785352
 20
80.002445
 30
0.0
 10
32.091182
 20
79.767645
 30
0.0
 10
31.397032
 20
79.532845
 30
0.0
 10
31.037012
 20
79.406585
 30
0.0
 10
30.676982
 20
79.280305
 30
0.0
 10
30.251922
 20
79.156995
 30
0.0
 10
29.826852
 20
79.033685
 30
0.0
 10
29.787752
 20
79.003785
 30
0.0
 10
29.748752
 20
78.973885
 30
0.0
 10
30.335862
 20
79.125345
 30
0.0
 10
30.922982
 20
79.276805
 30
0.0
 10
31.654992
 20
79.462315
 30
0.0
 10
32.387002
 20
79.647845
 30
0.0
 10
32.833052
 20
79.751825
 30
0.0
 10
33.279102
 20
79.855805
 30
0.0
 10
34.457222
 20
80.145125
 30
0.0
 10
35.635332
 20
80.434435
 30
0.0
 10
36.202532
 20
80.572395
 30
0.0
 10
36.769712
 20
80.710345
 30
0.0
 10
37.447042
 20
80.879115
 30
0.0
 10
38.124342
 20
81.047895
 30
0.0
 10
38.435312
 20
81.125195
 30
0.0
 10
38.746272
 20
81.202495
 30
0.0
 10
39.833293
 20
81.477645
 30
0.0
 10
40.920313
 20
81.752785
 30
0.0
 10
41.850683
 20
81.993385
 30
0.0
 10
42.781043
 20
82.233985
 30
0.0
 10
43.875903
 20
82.523325
 30
0.0
 10
44.970743
 20
82.812735
 30
0.0
 10
45.035543
 20
82.835835
 30
0.0
 10
45.100243
 20
82.858935
 30
0.0
  0
LWPOLYLINE
  5
181
100
AcDbEntity
  8
1
 62
7
100
AcDbPolyline
 90
104
 70
1
 10
29.080462
 20
78.865025
 30
0.0
 10
29.070162
 20
78.927425
 30
0.0
 10
29.186912
 20
78.976725
 30
0.0
 10
29.303682
 20
79.026025
 30
0.0
 10
30.033562
 20
79.260645
 30
0.0
 10
30.763452
 20
79.495285
 30
0.0
 10
31.241482
 20
79.653895
 30
0.0
 10
31.719512
 20
79.812505
 30
0.0
 10
32.292822
 20
80.012405
 30
0.0
 10
32.866102
 20
80.212305
 30
0.0
 10
33.156572
 20
80.319715
 30
0.0
 10
33.447032
 20
80.427145
 30
0.0
 10
33.800632
 20
80.563345
 30
0.0
 10
34.154242
 20
80.699535
 30
0.0
 10
34.367362
 20
80.786235
 30
0.0
 10
34.580502
 20
80.872935
 30
0.0
 10
34.601102
 20
80.903035
 30
0.0
 10
34.621802
 20
80.933035
 30
0.0
 10
34.688602
 20
80.930035
 30
0.0
 10
34.755402
 20
80.927035
 30
0.0
 10
34.917912
 20
80.997535
 30
0.0
 10
35.080422
 20
81.068035
 30
0.0
 10
35.272032
 20
81.778295
 30
0.0
 10
35.463632
 20
82.488565
 30
0.0
 10
35.375832
 20
82.483565
 30
0.0
 10
35.288032
 20
82.478565
 30
0.0
 10
35.155152
 20
82.429765
 30
0.0
 10
35.022272
 20
82.380965
 30
0.0
 10
34.996572
 20
82.395265
 30
0.0
 10
34.970772
 20
82.409565
 30
0.0
 10
34.622142
 20
82.346165
 30
0.0
 10
34.273502
 20
82.282665
 30
0.0
 10
34.014382
 20
82.232165
 30
0.0
 10
33.755242
 20
82.181665
 30
0.0
 10
33.463382
 20
82.120865
 30
0.0
 10
33.171522
 20
82.059965
 30
0.0
 10
32.857012
 20
81.995165
 30
0.0
 10
32.542502
 20
81.930365
 30
0.0
 10
32.250862
 20
81.868865
 30
0.0
 10
31.959212
 20
81.807365
 30
0.0
 10
31.184532
 20
81.646345
 30
0.0
 10
30.409842
 20
81.485325
 30
0.0
 10
29.982322
 20
81.399725
 30
0.0
 10
29.554812
 20
81.314125
 30
0.0
 10
29.152642
 20
81.223025
 30
0.0
 10
28.750472
 20
81.132025
 30
0.0
 10
28.271292
 20
81.019055
 30
0.0
 10
27.792122
 20
80.906085
 30
0.0
 10
27.268752
 20
80.781325
 30
0.0
 10
26.745372
 20
80.656545
 30
0.0
 10
26.266082
 20
80.544015
 30
0.0
 10
25.786802
 20
80.431475
 30
0.0
 10
24.484792
 20
80.117835
 30
0.0
 10
23.182791
 20
79.804175
 30
0.0
 10
22.813621
 20
79.722575
 30
0.0
 10
22.444441
 20
79.640975
 30
0.0
 10
21.569211
 20
79.415515
 30
0.0
 10
20.694001
 20
79.190055
 30
0.0
 10
19.598871
 20
78.901635
 30
0.0
 10
18.503751
 20
78.613225
 30
0.0
 10
17.492611
 20
78.352105
 30
0.0
 10
16.481461
 20
78.090995
 30
0.0
 10
15.829251
 20
77.887755
 30
0.0
 10
15.177041
 20
77.684515
 30
0.0
 10
14.693191
 20
77.528985
 30
0.0
 10
14.209331
 20
77.373445
 30
0.0
 10
14.201331
 20
77.358845
 30
0.0
 10
14.193331
 20
77.344345
 30
0.0
 10
15.041161
 20
77.100825
 30
0.0
 10
15.889001
 20
76.857325
 30
0.0
 10
16.510561
 20
76.679755
 30
0.0
 10
17.132111
 20
76.502175
 30
0.0
 10
17.478821
 20
76.401705
 30
0.0
 10
17.825531
 20
76.301215
 30
0.0
 10
18.085891
 20
76.358215
 30
0.0
 10
18.346251
 20
76.415215
 30
0.0
 10
18.368151
 20
76.338515
 30
0.0
 10
18.389951
 20
76.261815
 30
0.0
 10
18.348251
 20
76.241215
 30
0.0
 10
18.306551
 20
76.220615
 30
0.0
 10
18.281751
 20
76.182615
 30
0.0
 10
18.256851
 20
76.144615
 30
0.0
 10
18.150361
 20
76.101015
 30
0.0
 10
18.043881
 20
76.057415
 30
0.0
 10
17.874031
 20
75.985815
 30
0.0
 10
17.704161
 20
75.914215
 30
0.0
 10
17.526961
 20
75.826715
 30
0.0
 10
17.349751
 20
75.739215
 30
0.0
 10
17.251451
 20
75.708515
 30
0.0
 10
17.153151
 20
75.677815
 30
0.0
 10
17.102651
 20
75.646315
 30
0.0
 10
17.052151
 20
75.614815
 30
0.0
 10
17.518491
 20
75.731055
 30
0.0
 10
17.984831
 20
75.847305
 30
0.0
 10
19.151731
 20
76.134235
 30
0.0
 10
20.318651
 20
76.421155
 30
0.0
 10
20.541981
 20
76.472055
 30
0.0
 10
20.765311
 20
76.522955
 30
0.0
 10
22.168171
 20
76.899935
 30
0.0
 10
23.571042
 20
77.276915
 30
0.0
 10
24.863882
 20
77.622625
 30
0.0
 10
26.156722
 20
77.968345
 30
0.0
 10
27.623602
 20
78.386305
 30
0.0
 10
29.090492
 20
78.804285
 30
0.0
  0
LWPOLYLINE
  5
182
100
AcDbEntity
  8
1
 62
7
100
AcDbPolyline
 90
52
 70
1
 10
27.173842
 20
78.612635
 30
0.0
 10
26.628462
 20
78.481645
 30
0.0
 10
26.003362
 20
78.338255
 30
0.0
 10
25.378262
 20
78.194875
 30
0.0
 10
24.262542
 20
77.936925
 30
0.0
 10
23.146841
 20
77.678985
 30
0.0
 10
23.065241
 20
77.672985
 30
0.0
 10
22.983641
 20
77.666985
 30
0.0
 10
22.959641
 20
77.724685
 30
0.0
 10
22.935641
 20
77.782485
 30
0.0
 10
22.990741
 20
77.824185
 30
0.0
 10
23.045841
 20
77.865885
 30
0.0
 10
23.337111
 20
77.970465
 30
0.0
 10
23.628382
 20
78.075045
 30
0.0
 10
24.050872
 20
78.219945
 30
0.0
 10
24.473352
 20
78.364845
 30
0.0
 10
24.895842
 20
78.509675
 30
0.0
 10
25.318352
 20
78.654515
 30
0.0
 10
25.730492
 20
78.793985
 30
0.0
 10
26.142632
 20
78.933465
 30
0.0
 10
26.740232
 20
79.131535
 30
0.0
 10
27.337822
 20
79.329615
 30
0.0
 10
27.968352
 20
79.495665
 30
0.0
 10
28.598872
 20
79.661725
 30
0.0
 10
28.990302
 20
79.748725
 30
0.0
 10
29.381722
 20
79.835725
 30
0.0
 10
29.795112
 20
79.929125
 30
0.0
 10
30.208522
 20
80.022525
 30
0.0
 10
30.555602
 20
80.098225
 30
0.0
 10
30.902702
 20
80.173925
 30
0.0
 10
31.162032
 20
80.223725
 30
0.0
 10
31.421362
 20
80.273525
 30
0.0
 10
31.626032
 20
80.306525
 30
0.0
 10
31.830712
 20
80.339525
 30
0.0
 10
31.864612
 20
80.325025
 30
0.0
 10
31.898512
 20
80.310525
 30
0.0
 10
31.913212
 20
80.258925
 30
0.0
 10
31.927912
 20
80.207325
 30
0.0
 10
31.895312
 20
80.175725
 30
0.0
 10
31.862712
 20
80.144125
 30
0.0
 10
31.660412
 20
80.061525
 30
0.0
 10
31.458102
 20
79.978925
 30
0.0
 10
31.296842
 20
79.918825
 30
0.0
 10
31.135582
 20
79.858725
 30
0.0
 10
30.605912
 20
79.672685
 30
0.0
 10
30.076242
 20
79.486635
 30
0.0
 10
29.400752
 20
79.269725
 30
0.0
 10
28.725272
 20
79.052845
 30
0.0
 10
28.639172
 20
79.020945
 30
0.0
 10
28.553072
 20
78.989045
 30
0.0
 10
28.136392
 20
78.865455
 30
0.0
 10
27.719722
 20
78.741855
 30
0.0
  0
LWPOLYLINE
  5
183
100
AcDbEntity
  8
1
 62
7
100
AcDbPolyline
 90
34
 70
1
 10
29.257332
 20
79.396855
 30
0.0
 10
29.725282
 20
79.549115
 30
0.0
 10
30.201672
 20
79.713465
 30
0.0
 10
30.678082
 20
79.877835
 30
0.0
 10
30.915612
 20
79.962335
 30
0.0
 10
31.153152
 20
80.046835
 30
0.0
 10
30.928652
 20
79.999935
 30
0.0
 10
30.704142
 20
79.953035
 30
0.0
 10
30.368012
 20
79.880635
 30
0.0
 10
30.031882
 20
79.808235
 30
0.0
 10
29.684732
 20
79.732735
 30
0.0
 10
29.337582
 20
79.657235
 30
0.0
 10
28.835292
 20
79.541945
 30
0.0
 10
28.332992
 20
79.426655
 30
0.0
 10
27.628802
 20
79.227015
 30
0.0
 10
26.924612
 20
79.027385
 30
0.0
 10
26.133042
 20
78.758845
 30
0.0
 10
25.341472
 20
78.490305
 30
0.0
 10
25.303472
 20
78.456805
 30
0.0
 10
25.265472
 20
78.423205
 30
0.0
 10
25.154442
 20
78.395505
 30
0.0
 10
25.043412
 20
78.367805
 30
0.0
 10
24.719152
 20
78.259355
 30
0.0
 10
24.394892
 20
78.150915
 30
0.0
 10
24.389892
 20
78.140915
 30
0.0
 10
24.384892
 20
78.130915
 30
0.0
 10
24.724952
 20
78.212615
 30
0.0
 10
25.064992
 20
78.294315
 30
0.0
 10
25.511362
 20
78.397185
 30
0.0
 10
25.957732
 20
78.500045
 30
0.0
 10
26.338032
 20
78.584345
 30
0.0
 10
26.718342
 20
78.668645
 30
0.0
 10
27.754282
 20
78.956025
 30
0.0
 10
28.790242
 20
79.243385
 30
0.0
  0
LWPOLYLINE
  5
184
100
AcDbEntity
  8
1
 62
7
100
AcDbPolyline
 90
8
 70
1
 10
20.110911
 20
78.356765
 30
0.0
 10
20.010471
 20
78.708685
 30
0.0
 10
20.329401
 20
78.799685
 30
0.0
 10
20.648331
 20
78.890685
 30
0.0
 10
20.748761
 20
78.538765
 30
0.0
 10
20.849201
 20
78.186845
 30
0.0
 10
20.530281
 20
78.095845
 30
0.0
 10
20.211351
 20
78.004845
 30
0.0
  0
LWPOLYLINE
  5
185
100
AcDbEntity
  8
1
 62
7
100
AcDbPolyline
 90
24
 70
1
 10
16.085821
 20
75.218155
 30
0.0
 10
16.579821
 20
75.456245
 30
0.0
 10
16.544621
 20
75.488045
 30
0.0
 10
16.509421
 20
75.519845
 30
0.0
 10
16.525321
 20
75.545445
 30
0.0
 10
16.541221
 20
75.571045
 30
0.0
 10
17.033691
 20
75.804135
 30
0.0
 10
17.526151
 20
76.037215
 30
0.0
 10
17.279811
 20
75.983515
 30
0.0
 10
17.033481
 20
75.929815
 30
0.0
 10
16.367531
 20
75.762875
 30
0.0
 10
15.701581
 20
75.595945
 30
0.0
 10
15.091091
 20
75.401335
 30
0.0
 10
14.480611
 20
75.206725
 30
0.0
 10
14.035201
 20
75.050405
 30
0.0
 10
13.589791
 20
74.894075
 30
0.0
 10
13.749851
 20
74.752005
 30
0.0
 10
13.909931
 20
74.609905
 30
0.0
 10
13.950731
 20
74.600905
 30
0.0
 10
13.991531
 20
74.591905
 30
0.0
 10
14.316881
 20
74.647205
 30
0.0
 10
14.642231
 20
74.702505
 30
0.0
 10
15.116911
 20
74.841325
 30
0.0
 10
15.591581
 20
74.980135
 30
0.0
  0
LWPOLYLINE
  5
186
100
AcDbEntity
  8
1
 62
7
100
AcDbPolyline
 90
46
 70
1
 10
13.057491
 20
74.817085
 30
0.0
 10
13.050491
 20
74.841085
 30
0.0
 10
13.129291
 20
74.877685
 30
0.0
 10
13.208091
 20
74.914285
 30
0.0
 10
13.375251
 20
74.995285
 30
0.0
 10
13.542411
 20
75.076285
 30
0.0
 10
13.942581
 20
75.216015
 30
0.0
 10
14.342741
 20
75.355815
 30
0.0
 10
15.005911
 20
75.567855
 30
0.0
 10
15.669061
 20
75.779905
 30
0.0
 10
16.325651
 20
75.944315
 30
0.0
 10
16.982251
 20
76.108705
 30
0.0
 10
17.217041
 20
76.161105
 30
0.0
 10
17.451831
 20
76.213505
 30
0.0
 10
17.359431
 20
76.245405
 30
0.0
 10
17.267131
 20
76.277305
 30
0.0
 10
16.567781
 20
76.477415
 30
0.0
 10
15.868441
 20
76.677535
 30
0.0
 10
14.974971
 20
76.932685
 30
0.0
 10
14.081531
 20
77.187825
 30
0.0
 10
13.978631
 20
77.219025
 30
0.0
 10
13.875761
 20
77.250125
 30
0.0
 10
13.549041
 20
77.140635
 30
0.0
 10
13.222321
 20
77.031145
 30
0.0
 10
12.898001
 20
76.917345
 30
0.0
 10
12.573681
 20
76.803535
 30
0.0
 10
12.329641
 20
76.716535
 30
0.0
 10
12.085601
 20
76.629535
 30
0.0
 10
12.058501
 20
76.675335
 30
0.0
 10
12.031401
 20
76.721235
 30
0.0
 10
11.922631
 20
76.676635
 30
0.0
 10
11.813861
 20
76.632035
 30
0.0
 10
11.608551
 20
76.559635
 30
0.0
 10
11.403251
 20
76.487235
 30
0.0
 10
11.359751
 20
76.464735
 30
0.0
 10
11.316251
 20
76.442235
 30
0.0
 10
11.546451
 20
75.585765
 30
0.0
 10
11.776581
 20
74.729285
 30
0.0
 10
11.776131
 20
74.678485
 30
0.0
 10
11.775671
 20
74.627685
 30
0.0
 10
11.922461
 20
74.641285
 30
0.0
 10
12.069261
 20
74.654885
 30
0.0
 10
12.372671
 20
74.685085
 30
0.0
 10
12.676081
 20
74.715285
 30
0.0
 10
12.870331
 20
74.754085
 30
0.0
 10
13.064591
 20
74.792885
 30
0.0
  0
LWPOLYLINE
  5
187
100
AcDbEntity
  8
1
 62
7
100
AcDbPolyline
 90
14
 70
1
 10
35.890712
 20
81.593575
 30
0.0
 10
36.048322
 20
81.870475
 30
0.0
 10
36.062822
 20
81.940475
 30
0.0
 10
36.077322
 20
82.010475
 30
0.0
 10
36.010522
 20
82.115915
 30
0.0
 10
35.943722
 20
82.221355
 30
0.0
 10
35.799192
 20
82.341825
 30
0.0
 10
35.654662
 20
82.462295
 30
0.0
 10
35.492762
 20
81.849995
 30
0.0
 10
35.330842
 20
81.237705
 30
0.0
 10
35.434932
 20
81.251705
 30
0.0
 10
35.539022
 20
81.265705
 30
0.0
 10
35.636122
 20
81.291405
 30
0.0
 10
35.733222
 20
81.317105
 30
0.0
  0
LWPOLYLINE
  5
188
100
AcDbEntity
  8
1
 62
7
100
AcDbPolyline
 90
20
 70
1
 10
11.518601
 20
74.958595
 30
0.0
 10
11.429101
 20
75.272465
 30
0.0
 10
11.288201
 20
75.820965
 30
0.0
 10
11.147301
 20
76.369465
 30
0.0
 10
11.063101
 20
76.345465
 30
0.0
 10
10.978901
 20
76.321465
 30
0.0
 10
10.851231
 20
76.261865
 30
0.0
 10
10.723561
 20
76.202365
 30
0.0
 10
10.514111
 20
76.102865
 30
0.0
 10
10.304651
 20
76.003365
 30
0.0
 10
10.238051
 20
75.969965
 30
0.0
 10
10.171451
 20
75.936565
 30
0.0
 10
10.362341
 20
75.242635
 30
0.0
 10
10.553241
 20
74.548715
 30
0.0
 10
10.729121
 20
74.557715
 30
0.0
 10
10.904991
 20
74.566715
 30
0.0
 10
11.204061
 20
74.602315
 30
0.0
 10
11.503151
 20
74.637815
 30
0.0
 10
11.555551
 20
74.641815
 30
0.0
 10
11.607951
 20
74.645815
 30
0.0
  0
LWPOLYLINE
  5
189
100
AcDbEntity
  8
1
 62
7
100
AcDbPolyline
 90
72
 70
1
 10
45.703203
 20
85.966805
 30
0.0
 10
45.782003
 20
86.081376
 30
0.0
 10
44.866233
 20
86.272726
 30
0.0
 10
43.950463
 20
86.464096
 30
0.0
 10
43.433433
 20
86.567136
 30
0.0
 10
42.916393
 20
86.670176
 30
0.0
 10
42.618503
 20
86.713776
 30
0.0
 10
42.320613
 20
86.757376
 30
0.0
 10
41.991473
 20
86.785376
 30
0.0
 10
41.662343
 20
86.813376
 30
0.0
 10
41.354483
 20
86.809376
 30
0.0
 10
41.046623
 20
86.805376
 30
0.0
 10
40.650783
 20
86.774376
 30
0.0
 10
40.254933
 20
86.743376
 30
0.0
 10
39.967363
 20
86.709276
 30
0.0
 10
39.679773
 20
86.675176
 30
0.0
 10
39.318513
 20
86.607476
 30
0.0
 10
38.957242
 20
86.539776
 30
0.0
 10
38.429532
 20
86.430206
 30
0.0
 10
37.901822
 20
86.320616
 30
0.0
 10
36.537782
 20
85.932665
 30
0.0
 10
35.173732
 20
85.544705
 30
0.0
 10
34.634872
 20
85.349165
 30
0.0
 10
34.096032
 20
85.153615
 30
0.0
 10
33.577742
 20
84.969345
 30
0.0
 10
33.059452
 20
84.785085
 30
0.0
 10
33.012952
 20
84.760285
 30
0.0
 10
32.966552
 20
84.735485
 30
0.0
 10
32.973552
 20
84.712785
 30
0.0
 10
32.980552
 20
84.690085
 30
0.0
 10
33.074852
 20
84.640985
 30
0.0
 10
33.169152
 20
84.591885
 30
0.0
 10
33.573422
 20
84.290995
 30
0.0
 10
33.977672
 20
83.990105
 30
0.0
 10
34.143712
 20
83.865045
 30
0.0
 10
34.309742
 20
83.739975
 30
0.0
 10
34.925842
 20
83.915755
 30
0.0
 10
35.541942
 20
84.091545
 30
0.0
 10
36.185972
 20
84.251955
 30
0.0
 10
36.829972
 20
84.412425
 30
0.0
 10
37.166712
 20
84.482725
 30
0.0
 10
37.503442
 20
84.553025
 30
0.0
 10
38.068872
 20
84.655455
 30
0.0
 10
38.634302
 20
84.757895
 30
0.0
 10
38.954432
 20
84.802995
 30
0.0
 10
39.274563
 20
84.848095
 30
0.0
 10
39.457233
 20
84.874795
 30
0.0
 10
39.639883
 20
84.901495
 30
0.0
 10
39.799873
 20
84.924195
 30
0.0
 10
39.959883
 20
84.946995
 30
0.0
 10
40.119963
 20
84.969495
 30
0.0
 10
40.280053
 20
84.991995
 30
0.0
 10
40.498293
 20
85.018995
 30
0.0
 10
40.716533
 20
85.045995
 30
0.0
 10
41.245073
 20
85.110995
 30
0.0
 10
41.773593
 20
85.175995
 30
0.0
 10
41.911413
 20
85.193195
 30
0.0
 10
42.049213
 20
85.210395
 30
0.0
 10
42.209353
 20
85.232695
 30
0.0
 10
42.369493
 20
85.254995
 30
0.0
 10
42.524313
 20
85.275195
 30
0.0
 10
42.679113
 20
85.295395
 30
0.0
 10
42.786803
 20
85.302395
 30
0.0
 10
42.894503
 20
85.309395
 30
0.0
 10
43.287753
 20
85.360495
 30
0.0
 10
43.681033
 20
85.411595
 30
0.0
 10
43.840673
 20
85.435595
 30
0.0
 10
44.000313
 20
85.459595
 30
0.0
 10
44.537463
 20
85.577815
 30
0.0
 10
45.074593
 20
85.696025
 30
0.0
 10
45.350043
 20
85.774225
 30
0.0
 10
45.625493
 20
85.852425
 30
0.0
  0
LWPOLYLINE
  5
18a
100
AcDbEntity
  8
1
 62
7
100
AcDbPolyline
 90
24
 70
1
 10
44.764443
 20
85.737115
 30
0.0
 10
44.304343
 20
85.640615
 30
0.0
 10
44.100153
 20
85.606015
 30
0.0
 10
43.895953
 20
85.571415
 30
0.0
 10
43.462093
 20
85.508015
 30
0.0
 10
43.028233
 20
85.444615
 30
0.0
 10
42.896603
 20
85.426615
 30
0.0
 10
42.764983
 20
85.408615
 30
0.0
 10
42.748283
 20
85.417615
 30
0.0
 10
42.731583
 20
85.426615
 30
0.0
 10
42.835063
 20
85.957425
 30
0.0
 10
42.938543
 20
86.488236
 30
0.0
 10
42.963343
 20
86.495236
 30
0.0
 10
42.988143
 20
86.502236
 30
0.0
 10
43.150293
 20
86.475836
 30
0.0
 10
43.312433
 20
86.449436
 30
0.0
 10
44.380953
 20
86.226776
 30
0.0
 10
45.449483
 20
86.004106
 30
0.0
 10
45.456483
 20
85.980806
 30
0.0
 10
45.463483
 20
85.957505
 30
0.0
 10
45.444683
 20
85.923605
 30
0.0
 10
45.425883
 20
85.889705
 30
0.0
 10
45.325753
 20
85.861305
 30
0.0
 10
45.225623
 20
85.832905
 30
0.0
  0
LWPOLYLINE
  5
18b
100
AcDbEntity
  8
1
 62
7
100
AcDbPolyline
 90
34
 70
1
 10
42.030153
 20
85.327135
 30
0.0
 10
41.695493
 20
85.280435
 30
0.0
 10
41.317233
 20
85.230635
 30
0.0
 10
40.938973
 20
85.180835
 30
0.0
 10
40.800893
 20
85.164735
 30
0.0
 10
40.662793
 20
85.148635
 30
0.0
 10
40.237243
 20
85.097835
 30
0.0
 10
39.811693
 20
85.047035
 30
0.0
 10
39.548893
 20
85.009335
 30
0.0
 10
39.286093
 20
84.971735
 30
0.0
 10
38.965502
 20
84.928235
 30
0.0
 10
38.644922
 20
84.884735
 30
0.0
 10
38.547522
 20
84.871635
 30
0.0
 10
38.450222
 20
84.858535
 30
0.0
 10
38.252382
 20
85.551735
 30
0.0
 10
38.054552
 20
86.244946
 30
0.0
 10
38.339162
 20
86.310346
 30
0.0
 10
38.623782
 20
86.375746
 30
0.0
 10
39.131543
 20
86.471846
 30
0.0
 10
39.639303
 20
86.567946
 30
0.0
 10
40.034783
 20
86.612246
 30
0.0
 10
40.430283
 20
86.656546
 30
0.0
 10
40.812663
 20
86.678846
 30
0.0
 10
41.195033
 20
86.701146
 30
0.0
 10
41.543983
 20
86.687046
 30
0.0
 10
41.892933
 20
86.672846
 30
0.0
 10
42.270603
 20
86.620546
 30
0.0
 10
42.648283
 20
86.568246
 30
0.0
 10
42.651283
 20
86.559246
 30
0.0
 10
42.654283
 20
86.550246
 30
0.0
 10
42.545563
 20
85.972325
 30
0.0
 10
42.436863
 20
85.394415
 30
0.0
 10
42.401263
 20
85.384315
 30
0.0
 10
42.365763
 20
85.374215
 30
0.0
  0
LWPOLYLINE
  5
18c
100
AcDbEntity
  8
1
 62
7
100
AcDbPolyline
 90
22
 70
1
 10
37.338762
 20
84.626915
 30
0.0
 10
36.936382
 20
84.536615
 30
0.0
 10
36.423902
 20
84.415345
 30
0.0
 10
35.911422
 20
84.294085
 30
0.0
 10
35.312582
 20
84.122745
 30
0.0
 10
34.713762
 20
83.951415
 30
0.0
 10
34.680962
 20
84.007415
 30
0.0
 10
34.648162
 20
84.063415
 30
0.0
 10
34.372642
 20
84.555655
 30
0.0
 10
34.097112
 20
85.047905
 30
0.0
 10
34.109212
 20
85.056905
 30
0.0
 10
34.121312
 20
85.065905
 30
0.0
 10
34.561932
 20
85.230615
 30
0.0
 10
35.002542
 20
85.395325
 30
0.0
 10
36.017552
 20
85.697085
 30
0.0
 10
37.032542
 20
85.998926
 30
0.0
 10
37.289052
 20
86.055126
 30
0.0
 10
37.545562
 20
86.111326
 30
0.0
 10
37.740192
 20
85.429345
 30
0.0
 10
37.934832
 20
84.747355
 30
0.0
 10
37.837932
 20
84.732555
 30
0.0
 10
37.741032
 20
84.717755
 30
0.0
  0
LWPOLYLINE
  5
18d
100
AcDbEntity
  8
1
 62
7
100
AcDbPolyline
 90
128
 70
1
 10
25.287632
 20
80.512715
 30
0.0
 10
25.307332
 20
80.526715
 30
0.0
 10
25.858052
 20
80.722325
 30
0.0
 10
26.408802
 20
80.917925
 30
0.0
 10
26.924462
 20
81.111395
 30
0.0
 10
27.440122
 20
81.304865
 30
0.0
 10
27.653882
 20
81.389365
 30
0.0
 10
27.867632
 20
81.473865
 30
0.0
 10
27.919432
 20
81.500765
 30
0.0
 10
27.971232
 20
81.527665
 30
0.0
 10
28.313762
 20
81.661025
 30
0.0
 10
28.656282
 20
81.794395
 30
0.0
 10
29.050542
 20
81.954825
 30
0.0
 10
29.444812
 20
82.115265
 30
0.0
 10
29.680702
 20
82.205465
 30
0.0
 10
29.916622
 20
82.295665
 30
0.0
 10
30.269842
 20
82.433225
 30
0.0
 10
30.623062
 20
82.570785
 30
0.0
 10
30.902592
 20
82.674815
 30
0.0
 10
31.182132
 20
82.778845
 30
0.0
 10
31.758422
 20
82.968245
 30
0.0
 10
32.334712
 20
83.157635
 30
0.0
 10
33.210452
 20
83.417985
 30
0.0
 10
34.086202
 20
83.678345
 30
0.0
 10
34.089202
 20
83.685345
 30
0.0
 10
34.092202
 20
83.692345
 30
0.0
 10
33.626312
 20
84.035105
 30
0.0
 10
33.160402
 20
84.377865
 30
0.0
 10
32.998752
 20
84.492625
 30
0.0
 10
32.837092
 20
84.607385
 30
0.0
 10
32.824192
 20
84.652585
 30
0.0
 10
32.811292
 20
84.697785
 30
0.0
 10
32.775992
 20
84.675885
 30
0.0
 10
32.740692
 20
84.653985
 30
0.0
 10
32.623362
 20
84.606685
 30
0.0
 10
32.506052
 20
84.559385
 30
0.0
 10
32.408052
 20
84.520585
 30
0.0
 10
32.310152
 20
84.481785
 30
0.0
 10
32.120582
 20
84.402985
 30
0.0
 10
31.931002
 20
84.324085
 30
0.0
 10
31.621302
 20
84.200745
 30
0.0
 10
31.311602
 20
84.077405
 30
0.0
 10
30.379902
 20
83.716415
 30
0.0
 10
29.448222
 20
83.355425
 30
0.0
 10
29.319702
 20
83.305625
 30
0.0
 10
29.191192
 20
83.255825
 30
0.0
 10
29.106592
 20
83.218825
 30
0.0
 10
29.021992
 20
83.181825
 30
0.0
 10
28.851522
 20
83.112425
 30
0.0
 10
28.681042
 20
83.043025
 30
0.0
 10
27.578702
 20
82.571555
 30
0.0
 10
26.476362
 20
82.100075
 30
0.0
 10
26.317252
 20
82.032475
 30
0.0
 10
26.158142
 20
81.964875
 30
0.0
 10
25.807812
 20
81.817185
 30
0.0
 10
25.457492
 20
81.669495
 30
0.0
 10
24.739712
 20
81.392425
 30
0.0
 10
24.021932
 20
81.115365
 30
0.0
 10
23.936832
 20
81.080065
 30
0.0
 10
23.851732
 20
81.044865
 30
0.0
 10
23.613212
 20
80.963765
 30
0.0
 10
23.374711
 20
80.882665
 30
0.0
 10
22.918791
 20
80.729895
 30
0.0
 10
22.462871
 20
80.577125
 30
0.0
 10
21.887991
 20
80.412635
 30
0.0
 10
21.313121
 20
80.248135
 30
0.0
 10
21.073201
 20
80.228935
 30
0.0
 10
20.833291
 20
80.209735
 30
0.0
 10
20.649151
 20
80.226435
 30
0.0
 10
20.465011
 20
80.243135
 30
0.0
 10
20.269901
 20
80.293335
 30
0.0
 10
20.074791
 20
80.343535
 30
0.0
 10
19.877121
 20
80.419335
 30
0.0
 10
19.679431
 20
80.495135
 30
0.0
 10
19.443741
 20
80.624205
 30
0.0
 10
19.208041
 20
80.753275
 30
0.0
 10
18.926011
 20
80.982005
 30
0.0
 10
18.644001
 20
81.210745
 30
0.0
 10
17.763871
 20
81.911025
 30
0.0
 10
16.883741
 20
82.611305
 30
0.0
 10
15.869411
 20
83.415995
 30
0.0
 10
14.855081
 20
84.220695
 30
0.0
 10
14.643841
 20
84.386375
 30
0.0
 10
14.432591
 20
84.552065
 30
0.0
 10
14.360691
 20
84.626765
 30
0.0
 10
14.288791
 20
84.701365
 30
0.0
 10
13.032591
 20
84.348875
 30
0.0
 10
11.776411
 20
83.996375
 30
0.0
 10
11.759711
 20
83.958275
 30
0.0
 10
11.743011
 20
83.920175
 30
0.0
 10
11.788411
 20
83.894875
 30
0.0
 10
11.833811
 20
83.869575
 30
0.0
 10
11.886411
 20
83.884675
 30
0.0
 10
11.939111
 20
83.899775
 30
0.0
 10
11.975411
 20
83.862275
 30
0.0
 10
12.011711
 20
83.824775
 30
0.0
 10
12.011971
 20
83.367275
 30
0.0
 10
12.012231
 20
82.909755
 30
0.0
 10
12.015231
 20
81.970985
 30
0.0
 10
12.018231
 20
81.032195
 30
0.0
 10
12.021231
 20
80.688165
 30
0.0
 10
12.024231
 20
80.344125
 30
0.0
 10
12.023771
 20
80.302625
 30
0.0
 10
12.023311
 20
80.261125
 30
0.0
 10
12.714721
 20
80.452445
 30
0.0
 10
13.406141
 20
80.643765
 30
0.0
 10
13.721331
 20
79.520595
 30
0.0
 10
14.036521
 20
78.397435
 30
0.0
 10
14.140891
 20
77.981635
 30
0.0
 10
14.245261
 20
77.565835
 30
0.0
 10
14.709931
 20
77.715885
 30
0.0
 10
15.174581
 20
77.865945
 30
0.0
 10
16.329331
 20
78.195495
 30
0.0
 10
17.484071
 20
78.525045
 30
0.0
 10
18.434501
 20
78.778655
 30
0.0
 10
19.384951
 20
79.032275
 30
0.0
 10
19.619071
 20
79.087075
 30
0.0
 10
19.853191
 20
79.141875
 30
0.0
 10
20.406401
 20
79.287115
 30
0.0
 10
20.959611
 20
79.432375
 30
0.0
 10
21.713631
 20
79.624115
 30
0.0
 10
22.467651
 20
79.815845
 30
0.0
 10
23.158851
 20
79.977635
 30
0.0
 10
23.850072
 20
80.139425
 30
0.0
 10
24.128342
 20
80.206225
 30
0.0
 10
24.406612
 20
80.273025
 30
0.0
 10
24.837882
 20
80.387155
 30
0.0
 10
25.269132
 20
80.501265
 30
0.0
  0
LWPOLYLINE
  5
18e
100
AcDbEntity
  8
1
 62
7
100
AcDbPolyline
 90
8
 70
1
 10
14.723831
 20
82.563745
 30
0.0
 10
14.676731
 20
82.728705
 30
0.0
 10
14.951671
 20
82.807105
 30
0.0
 10
15.226611
 20
82.885505
 30
0.0
 10
15.273711
 20
82.720535
 30
0.0
 10
15.320811
 20
82.555565
 30
0.0
 10
15.045871
 20
82.477165
 30
0.0
 10
14.770941
 20
82.398765
 30
0.0
  0
LWPOLYLINE
  5
18f
100
AcDbEntity
  8
1
 62
7
100
AcDbPolyline
 90
24
 70
1
 10
12.658521
 20
77.006815
 30
0.0
 10
13.133741
 20
77.175315
 30
0.0
 10
13.172041
 20
77.207615
 30
0.0
 10
13.210341
 20
77.239915
 30
0.0
 10
13.602511
 20
77.366005
 30
0.0
 10
13.994671
 20
77.492155
 30
0.0
 10
14.037971
 20
77.518055
 30
0.0
 10
14.081271
 20
77.543855
 30
0.0
 10
13.833281
 20
78.464115
 30
0.0
 10
13.585271
 20
79.384375
 30
0.0
 10
13.445941
 20
79.921785
 30
0.0
 10
13.306581
 20
80.459215
 30
0.0
 10
12.664381
 20
80.269915
 30
0.0
 10
12.022171
 20
80.080615
 30
0.0
 10
12.024171
 20
79.890865
 30
0.0
 10
12.026171
 20
79.701115
 30
0.0
 10
12.029171
 20
78.560235
 30
0.0
 10
12.032171
 20
77.419355
 30
0.0
 10
12.034171
 20
77.118185
 30
0.0
 10
12.036171
 20
76.817015
 30
0.0
 10
12.040171
 20
76.804415
 30
0.0
 10
12.044171
 20
76.791915
 30
0.0
 10
12.114771
 20
76.815415
 30
0.0
 10
12.185371
 20
76.838815
 30
0.0
  0
LWPOLYLINE
  5
190
100
AcDbEntity
  8
1
 62
7
100
AcDbPolyline
 90
195
 70
1
 10
81.032195
 20
115.690397
 30
0.0
 10
81.206575
 20
115.746097
 30
0.0
 10
81.826195
 20
115.950347
 30
0.0
 10
82.445805
 20
116.154637
 30
0.0
 10
82.663555
 20
116.225137
 30
0.0
 10
82.881305
 20
116.295637
 30
0.0
 10
83.432375
 20
116.490057
 30
0.0
 10
83.983435
 20
116.684477
 30
0.0
 10
84.329395
 20
116.805797
 30
0.0
 10
84.675365
 20
116.927127
 30
0.0
 10
84.944165
 20
117.027127
 30
0.0
 10
85.212965
 20
117.127127
 30
0.0
 10
85.499855
 20
117.247028
 30
0.0
 10
85.786765
 20
117.366918
 30
0.0
 10
86.369976
 20
117.615408
 30
0.0
 10
86.953186
 20
117.863888
 30
0.0
 10
87.120116
 20
117.945788
 30
0.0
 10
87.287056
 20
118.027688
 30
0.0
 10
87.414906
 20
118.079788
 30
0.0
 10
87.542776
 20
118.131888
 30
0.0
 10
87.971966
 20
118.360198
 30
0.0
 10
88.401166
 20
118.588518
 30
0.0
 10
88.539266
 20
118.683818
 30
0.0
 10
88.677366
 20
118.779118
 30
0.0
 10
88.757566
 20
118.863118
 30
0.0
 10
88.837766
 20
118.947118
 30
0.0
 10
88.846766
 20
119.025218
 30
0.0
 10
88.855766
 20
119.103318
 30
0.0
 10
88.808366
 20
119.150418
 30
0.0
 10
88.760966
 20
119.197418
 30
0.0
 10
88.630156
 20
119.221118
 30
0.0
 10
88.499336
 20
119.244818
 30
0.0
 10
88.495336
 20
119.259218
 30
0.0
 10
88.491336
 20
119.273718
 30
0.0
 10
87.796326
 20
119.250018
 30
0.0
 10
87.563886
 20
119.231018
 30
0.0
 10
87.331446
 20
119.212018
 30
0.0
 10
86.751436
 20
119.187018
 30
0.0
 10
86.171406
 20
119.162018
 30
0.0
 10
85.953295
 20
119.149818
 30
0.0
 10
85.735185
 20
119.137618
 30
0.0
 10
84.374175
 20
119.030748
 30
0.0
 10
83.013165
 20
118.923878
 30
0.0
 10
82.359095
 20
118.881978
 30
0.0
 10
81.705035
 20
118.840178
 30
0.0
 10
81.674435
 20
118.843178
 30
0.0
 10
81.643835
 20
118.846178
 30
0.0
 10
81.671035
 20
118.799178
 30
0.0
 10
81.698235
 20
118.752078
 30
0.0
 10
81.602935
 20
118.625688
 30
0.0
 10
81.507635
 20
118.499308
 30
0.0
 10
81.050295
 20
118.368818
 30
0.0
 10
80.592945
 20
118.238298
 30
0.0
 10
80.154745
 20
118.148498
 30
0.0
 10
79.716555
 20
118.058698
 30
0.0
 10
79.465405
 20
118.021898
 30
0.0
 10
79.214245
 20
117.985198
 30
0.0
 10
78.995615
 20
117.959398
 30
0.0
 10
78.777005
 20
117.933598
 30
0.0
 10
78.616445
 20
117.912798
 30
0.0
 10
78.455875
 20
117.891998
 30
0.0
 10
78.362375
 20
117.885998
 30
0.0
 10
78.268875
 20
117.879998
 30
0.0
 10
78.074485
 20
117.852598
 30
0.0
 10
77.880105
 20
117.825298
 30
0.0
 10
77.685735
 20
117.803398
 30
0.0
 10
77.491365
 20
117.781498
 30
0.0
 10
77.249385
 20
117.748798
 30
0.0
 10
77.007405
 20
117.716098
 30
0.0
 10
76.651015
 20
117.672998
 30
0.0
 10
76.294635
 20
117.629898
 30
0.0
 10
76.123035
 20
117.606098
 30
0.0
 10
75.951435
 20
117.582298
 30
0.0
 10
75.813745
 20
117.564698
 30
0.0
 10
75.676025
 20
117.547098
 30
0.0
 10
75.333325
 20
117.497698
 30
0.0
 10
74.990615
 20
117.448398
 30
0.0
 10
74.636935
 20
117.395798
 30
0.0
 10
74.283235
 20
117.343198
 30
0.0
 10
74.090165
 20
117.311198
 30
0.0
 10
73.897055
 20
117.279298
 30
0.0
 10
73.648845
 20
117.232297
 30
0.0
 10
73.400615
 20
117.185197
 30
0.0
 10
73.119645
 20
117.127897
 30
0.0
 10
72.838675
 20
117.070597
 30
0.0
 10
72.259745
 20
116.932167
 30
0.0
 10
71.680795
 20
116.793737
 30
0.0
 10
70.151434
 20
116.359937
 30
0.0
 10
68.622074
 20
115.926137
 30
0.0
 10
67.914994
 20
115.694947
 30
0.0
 10
67.207914
 20
115.463747
 30
0.0
 10
66.894774
 20
115.352467
 30
0.0
 10
66.581624
 20
115.241177
 30
0.0
 10
66.324264
 20
115.142777
 30
0.0
 10
66.066904
 20
115.044377
 30
0.0
 10
65.842054
 20
114.957077
 30
0.0
 10
65.617214
 20
114.869777
 30
0.0
 10
64.891624
 20
114.578377
 30
0.0
 10
64.166054
 20
114.286967
 30
0.0
 10
63.974344
 20
114.208567
 30
0.0
 10
63.782624
 20
114.130167
 30
0.0
 10
63.569204
 20
114.044567
 30
0.0
 10
63.355774
 20
113.958967
 30
0.0
 10
63.119794
 20
113.869067
 30
0.0
 10
62.883804
 20
113.779167
 30
0.0
 10
62.645864
 20
113.696167
 30
0.0
 10
62.407914
 20
113.613167
 30
0.0
 10
62.380114
 20
113.585367
 30
0.0
 10
62.352314
 20
113.557567
 30
0.0
 10
62.594374
 20
113.626167
 30
0.0
 10
62.836434
 20
113.694767
 30
0.0
 10
63.271734
 20
113.794767
 30
0.0
 10
63.707034
 20
113.894767
 30
0.0
 10
64.153324
 20
113.997947
 30
0.0
 10
64.599614
 20
114.101127
 30
0.0
 10
65.169854
 20
114.228327
 30
0.0
 10
65.740124
 20
114.355527
 30
0.0
 10
65.885464
 20
114.388027
 30
0.0
 10
66.030814
 20
114.420527
 30
0.0
 10
66.312744
 20
114.474427
 30
0.0
 10
66.594664
 20
114.528427
 30
0.0
 10
66.897974
 20
114.590827
 30
0.0
 10
67.201274
 20
114.653327
 30
0.0
 10
67.515524
 20
114.719127
 30
0.0
 10
67.829764
 20
114.784927
 30
0.0
 10
68.121634
 20
114.845727
 30
0.0
 10
68.413514
 20
114.906527
 30
0.0
 10
68.727824
 20
114.972027
 30
0.0
 10
69.042124
 20
115.037527
 30
0.0
 10
69.334124
 20
115.097827
 30
0.0
 10
69.626124
 20
115.158127
 30
0.0
 10
70.236264
 20
115.270587
 30
0.0
 10
70.846415
 20
115.383037
 30
0.0
 10
71.024975
 20
115.424037
 30
0.0
 10
71.203555
 20
115.465137
 30
0.0
 10
71.295455
 20
115.468137
 30
0.0
 10
71.387355
 20
115.471137
 30
0.0
 10
71.456155
 20
115.423737
 30
0.0
 10
71.524955
 20
115.376337
 30
0.0
 10
71.676815
 20
115.253167
 30
0.0
 10
71.828685
 20
115.130007
 30
0.0
 10
71.898285
 20
115.020667
 30
0.0
 10
71.967885
 20
114.911317
 30
0.0
 10
71.988285
 20
114.839717
 30
0.0
 10
72.008685
 20
114.768117
 30
0.0
 10
72.003685
 20
114.708817
 30
0.0
 10
71.998685
 20
114.649517
 30
0.0
 10
71.911485
 20
114.469797
 30
0.0
 10
71.824185
 20
114.290067
 30
0.0
 10
71.712645
 20
114.124477
 30
0.0
 10
71.601115
 20
113.958877
 30
0.0
 10
71.305245
 20
113.874377
 30
0.0
 10
71.009375
 20
113.789977
 30
0.0
 10
70.992675
 20
113.752177
 30
0.0
 10
70.976075
 20
113.714377
 30
0.0
 10
70.769025
 20
113.629877
 30
0.0
 10
70.561995
 20
113.545377
 30
0.0
 10
70.326394
 20
113.454077
 30
0.0
 10
70.090804
 20
113.362777
 30
0.0
 10
69.855204
 20
113.271477
 30
0.0
 10
69.619614
 20
113.180177
 30
0.0
 10
69.372964
 20
113.085977
 30
0.0
 10
69.126314
 20
112.991777
 30
0.0
 10
68.835574
 20
112.885347
 30
0.0
 10
68.544824
 20
112.778917
 30
0.0
 10
67.850664
 20
112.544127
 30
0.0
 10
67.156514
 20
112.309327
 30
0.0
 10
66.796484
 20
112.183057
 30
0.0
 10
66.436464
 20
112.056797
 30
0.0
 10
66.011404
 20
111.933467
 30
0.0
 10
65.586334
 20
111.810167
 30
0.0
 10
65.547234
 20
111.780267
 30
0.0
 10
65.508234
 20
111.750267
 30
0.0
 10
66.095354
 20
111.901717
 30
0.0
 10
66.682464
 20
112.053177
 30
0.0
 10
67.414484
 20
112.238697
 30
0.0
 10
68.146494
 20
112.424227
 30
0.0
 10
68.592544
 20
112.528197
 30
0.0
 10
69.038594
 20
112.632187
 30
0.0
 10
70.216714
 20
112.921507
 30
0.0
 10
71.394825
 20
113.210817
 30
0.0
 10
71.962015
 20
113.348777
 30
0.0
 10
72.529205
 20
113.486727
 30
0.0
 10
73.206525
 20
113.655497
 30
0.0
 10
73.883835
 20
113.824277
 30
0.0
 10
74.194805
 20
113.901577
 30
0.0
 10
74.505765
 20
113.978877
 30
0.0
 10
75.592785
 20
114.254027
 30
0.0
 10
76.679795
 20
114.529167
 30
0.0
 10
77.610165
 20
114.769767
 30
0.0
 10
78.540535
 20
115.010367
 30
0.0
 10
79.635395
 20
115.299697
 30
0.0
 10
80.730235
 20
115.589117
 30
0.0
 10
80.795035
 20
115.612217
 30
0.0
 10
80.859735
 20
115.635317
 30
0.0
  0
LWPOLYLINE
  5
191
100
AcDbEntity
  8
1
 62
7
100
AcDbPolyline
 90
104
 70
1
 10
64.839654
 20
111.642107
 30
0.0
 10
64.829354
 20
111.704607
 30
0.0
 10
64.946114
 20
111.753907
 30
0.0
 10
65.062874
 20
111.803207
 30
0.0
 10
65.792754
 20
112.037827
 30
0.0
 10
66.522644
 20
112.272467
 30
0.0
 10
67.000674
 20
112.431077
 30
0.0
 10
67.478714
 20
112.589687
 30
0.0
 10
68.052014
 20
112.789597
 30
0.0
 10
68.625294
 20
112.989487
 30
0.0
 10
68.915764
 20
113.096897
 30
0.0
 10
69.206224
 20
113.204327
 30
0.0
 10
69.559824
 20
113.340527
 30
0.0
 10
69.913434
 20
113.476717
 30
0.0
 10
70.126554
 20
113.563417
 30
0.0
 10
70.339704
 20
113.650117
 30
0.0
 10
70.360305
 20
113.680217
 30
0.0
 10
70.381005
 20
113.710217
 30
0.0
 10
70.447805
 20
113.707217
 30
0.0
 10
70.514605
 20
113.704217
 30
0.0
 10
70.677105
 20
113.774717
 30
0.0
 10
70.839615
 20
113.845217
 30
0.0
 10
71.031225
 20
114.555477
 30
0.0
 10
71.222825
 20
115.265737
 30
0.0
 10
71.135025
 20
115.260737
 30
0.0
 10
71.047225
 20
115.255737
 30
0.0
 10
70.914335
 20
115.206937
 30
0.0
 10
70.781455
 20
115.158137
 30
0.0
 10
70.755755
 20
115.172437
 30
0.0
 10
70.729955
 20
115.186737
 30
0.0
 10
70.381325
 20
115.123237
 30
0.0
 10
70.032674
 20
115.059837
 30
0.0
 10
69.773554
 20
115.009337
 30
0.0
 10
69.514424
 20
114.958837
 30
0.0
 10
69.222564
 20
114.897937
 30
0.0
 10
68.930694
 20
114.837137
 30
0.0
 10
68.616194
 20
114.772337
 30
0.0
 10
68.301684
 20
114.707537
 30
0.0
 10
68.010034
 20
114.646037
 30
0.0
 10
67.718384
 20
114.584537
 30
0.0
 10
66.943704
 20
114.423517
 30
0.0
 10
66.169024
 20
114.262507
 30
0.0
 10
65.741494
 20
114.176907
 30
0.0
 10
65.313984
 20
114.091307
 30
0.0
 10
64.911814
 20
114.000207
 30
0.0
 10
64.509644
 20
113.909207
 30
0.0
 10
64.030474
 20
113.796237
 30
0.0
 10
63.551304
 20
113.683267
 30
0.0
 10
63.027934
 20
113.558507
 30
0.0
 10
62.504554
 20
113.433727
 30
0.0
 10
62.025264
 20
113.321187
 30
0.0
 10
61.545974
 20
113.208657
 30
0.0
 10
60.243974
 20
112.895007
 30
0.0
 10
58.941974
 20
112.581357
 30
0.0
 10
58.572804
 20
112.499757
 30
0.0
 10
58.203614
 20
112.418157
 30
0.0
 10
57.328394
 20
112.192697
 30
0.0
 10
56.453174
 20
111.967237
 30
0.0
 10
55.358044
 20
111.678817
 30
0.0
 10
54.262933
 20
111.390407
 30
0.0
 10
53.251783
 20
111.129287
 30
0.0
 10
52.240633
 20
110.868177
 30
0.0
 10
51.588423
 20
110.664937
 30
0.0
 10
50.936213
 20
110.461697
 30
0.0
 10
50.452373
 20
110.306157
 30
0.0
 10
49.968513
 20
110.150627
 30
0.0
 10
49.960513
 20
110.136027
 30
0.0
 10
49.952513
 20
110.121527
 30
0.0
 10
50.800343
 20
109.878017
 30
0.0
 10
51.648183
 20
109.634507
 30
0.0
 10
52.269743
 20
109.456937
 30
0.0
 10
52.891293
 20
109.279357
 30
0.0
 10
53.237993
 20
109.178887
 30
0.0
 10
53.584713
 20
109.078407
 30
0.0
 10
53.845063
 20
109.135407
 30
0.0
 10
54.105423
 20
109.192407
 30
0.0
 10
54.127323
 20
109.115707
 30
0.0
 10
54.149123
 20
109.039007
 30
0.0
 10
54.107423
 20
109.018407
 30
0.0
 10
54.065723
 20
108.997807
 30
0.0
 10
54.040823
 20
108.959807
 30
0.0
 10
54.016023
 20
108.921807
 30
0.0
 10
53.909543
 20
108.878207
 30
0.0
 10
53.803063
 20
108.834607
 30
0.0
 10
53.633203
 20
108.763007
 30
0.0
 10
53.463343
 20
108.691407
 30
0.0
 10
53.286133
 20
108.603907
 30
0.0
 10
53.108923
 20
108.516407
 30
0.0
 10
53.010623
 20
108.485707
 30
0.0
 10
52.912323
 20
108.455007
 30
0.0
 10
52.861823
 20
108.423507
 30
0.0
 10
52.811323
 20
108.392007
 30
0.0
 10
53.277663
 20
108.508257
 30
0.0
 10
53.744013
 20
108.624497
 30
0.0
 10
54.910914
 20
108.911427
 30
0.0
 10
56.077824
 20
109.198347
 30
0.0
 10
56.301154
 20
109.249247
 30
0.0
 10
56.524494
 20
109.300147
 30
0.0
 10
57.927354
 20
109.677127
 30
0.0
 10
59.330214
 20
110.054107
 30
0.0
 10
60.623054
 20
110.399827
 30
0.0
 10
61.915904
 20
110.745537
 30
0.0
 10
63.382784
 20
111.163507
 30
0.0
 10
64.849674
 20
111.581477
 30
0.0
  0
LWPOLYLINE
  5
192
100
AcDbEntity
  8
1
 62
7
100
AcDbPolyline
 90
52
 70
1
 10
62.933044
 20
111.389707
 30
0.0
 10
62.387664
 20
111.258727
 30
0.0
 10
61.762564
 20
111.115347
 30
0.0
 10
61.137464
 20
110.971957
 30
0.0
 10
60.021744
 20
110.714007
 30
0.0
 10
58.906034
 20
110.456067
 30
0.0
 10
58.824434
 20
110.450067
 30
0.0
 10
58.742834
 20
110.444067
 30
0.0
 10
58.718834
 20
110.501867
 30
0.0
 10
58.694834
 20
110.559667
 30
0.0
 10
58.749934
 20
110.601367
 30
0.0
 10
58.805034
 20
110.643067
 30
0.0
 10
59.096304
 20
110.747647
 30
0.0
 10
59.387584
 20
110.852227
 30
0.0
 10
59.810064
 20
110.997117
 30
0.0
 10
60.232554
 20
111.142017
 30
0.0
 10
60.655034
 20
111.286857
 30
0.0
 10
61.077554
 20
111.431697
 30
0.0
 10
61.489684
 20
111.571167
 30
0.0
 10
61.901824
 20
111.710647
 30
0.0
 10
62.499434
 20
111.908717
 30
0.0
 10
63.097024
 20
112.106787
 30
0.0
 10
63.727544
 20
112.272847
 30
0.0
 10
64.358074
 20
112.438897
 30
0.0
 10
64.749494
 20
112.525997
 30
0.0
 10
65.140914
 20
112.612997
 30
0.0
 10
65.554314
 20
112.706397
 30
0.0
 10
65.967714
 20
112.799797
 30
0.0
 10
66.314804
 20
112.875497
 30
0.0
 10
66.661894
 20
112.951197
 30
0.0
 10
66.921224
 20
113.000997
 30
0.0
 10
67.180554
 20
113.050797
 30
0.0
 10
67.385234
 20
113.083797
 30
0.0
 10
67.589904
 20
113.116797
 30
0.0
 10
67.623804
 20
113.102297
 30
0.0
 10
67.657704
 20
113.087797
 30
0.0
 10
67.672404
 20
113.036197
 30
0.0
 10
67.687104
 20
112.984597
 30
0.0
 10
67.654504
 20
112.952997
 30
0.0
 10
67.621904
 20
112.921397
 30
0.0
 10
67.419604
 20
112.838797
 30
0.0
 10
67.217304
 20
112.756197
 30
0.0
 10
67.056034
 20
112.696097
 30
0.0
 10
66.894784
 20
112.635997
 30
0.0
 10
66.365104
 20
112.449957
 30
0.0
 10
65.835444
 20
112.263907
 30
0.0
 10
65.159944
 20
112.046997
 30
0.0
 10
64.484474
 20
111.830107
 30
0.0
 10
64.398374
 20
111.798207
 30
0.0
 10
64.312274
 20
111.766307
 30
0.0
 10
63.895594
 20
111.642717
 30
0.0
 10
63.478924
 20
111.519117
 30
0.0
  0
LWPOLYLINE
  5
193
100
AcDbEntity
  8
1
 62
7
100
AcDbPolyline
 90
34
 70
1
 10
65.016524
 20
112.173937
 30
0.0
 10
65.484484
 20
112.326197
 30
0.0
 10
65.960874
 20
112.490557
 30
0.0
 10
66.437274
 20
112.654917
 30
0.0
 10
66.674804
 20
112.739417
 30
0.0
 10
66.912344
 20
112.823917
 30
0.0
 10
66.687844
 20
112.777017
 30
0.0
 10
66.463344
 20
112.730117
 30
0.0
 10
66.127204
 20
112.657717
 30
0.0
 10
65.791074
 20
112.585317
 30
0.0
 10
65.443934
 20
112.509817
 30
0.0
 10
65.096774
 20
112.434317
 30
0.0
 10
64.594494
 20
112.319027
 30
0.0
 10
64.092194
 20
112.203727
 30
0.0
 10
63.388004
 20
112.004107
 30
0.0
 10
62.683804
 20
111.804467
 30
0.0
 10
61.892244
 20
111.535927
 30
0.0
 10
61.100664
 20
111.267387
 30
0.0
 10
61.062664
 20
111.233887
 30
0.0
 10
61.024664
 20
111.200387
 30
0.0
 10
60.913624
 20
111.172687
 30
0.0
 10
60.802594
 20
111.144987
 30
0.0
 10
60.478334
 20
111.036537
 30
0.0
 10
60.154074
 20
110.928097
 30
0.0
 10
60.149074
 20
110.918097
 30
0.0
 10
60.144074
 20
110.908097
 30
0.0
 10
60.484134
 20
110.989797
 30
0.0
 10
60.824174
 20
111.071497
 30
0.0
 10
61.270554
 20
111.174367
 30
0.0
 10
61.716914
 20
111.277237
 30
0.0
 10
62.097224
 20
111.361537
 30
0.0
 10
62.477524
 20
111.445837
 30
0.0
 10
63.513464
 20
111.733217
 30
0.0
 10
64.549424
 20
112.020577
 30
0.0
  0
LWPOLYLINE
  5
194
100
AcDbEntity
  8
1
 62
7
100
AcDbPolyline
 90
8
 70
1
 10
55.870114
 20
111.133847
 30
0.0
 10
55.769674
 20
111.485767
 30
0.0
 10
56.088604
 20
111.576767
 30
0.0
 10
56.407534
 20
111.667767
 30
0.0
 10
56.507964
 20
111.315847
 30
0.0
 10
56.608394
 20
110.963937
 30
0.0
 10
56.289474
 20
110.872937
 30
0.0
 10
55.970544
 20
110.781937
 30
0.0
  0
LWPOLYLINE
  5
195
100
AcDbEntity
  8
1
 62
7
100
AcDbPolyline
 90
24
 70
1
 10
51.845013
 20
107.995237
 30
0.0
 10
52.339023
 20
108.233327
 30
0.0
 10
52.303823
 20
108.265127
 30
0.0
 10
52.268623
 20
108.296927
 30
0.0
 10
52.284523
 20
108.322527
 30
0.0
 10
52.300423
 20
108.348127
 30
0.0
 10
52.792893
 20
108.581207
 30
0.0
 10
53.285343
 20
108.814297
 30
0.0
 10
53.039013
 20
108.760597
 30
0.0
 10
52.792673
 20
108.706897
 30
0.0
 10
52.126723
 20
108.539957
 30
0.0
 10
51.460773
 20
108.373037
 30
0.0
 10
50.850283
 20
108.178427
 30
0.0
 10
50.239813
 20
107.983817
 30
0.0
 10
49.794393
 20
107.827497
 30
0.0
 10
49.348983
 20
107.671167
 30
0.0
 10
49.509053
 20
107.529087
 30
0.0
 10
49.669133
 20
107.386997
 30
0.0
 10
49.709933
 20
107.377997
 30
0.0
 10
49.750733
 20
107.368997
 30
0.0
 10
50.076083
 20
107.424297
 30
0.0
 10
50.401433
 20
107.479597
 30
0.0
 10
50.876113
 20
107.618417
 30
0.0
 10
51.350783
 20
107.757237
 30
0.0
  0
LWPOLYLINE
  5
196
100
AcDbEntity
  8
1
 62
7
100
AcDbPolyline
 90
46
 70
1
 10
48.816683
 20
107.594167
 30
0.0
 10
48.809683
 20
107.618167
 30
0.0
 10
48.888483
 20
107.654767
 30
0.0
 10
48.967283
 20
107.691367
 30
0.0
 10
49.134443
 20
107.772367
 30
0.0
 10
49.301603
 20
107.853367
 30
0.0
 10
49.701773
 20
107.993087
 30
0.0
 10
50.101923
 20
108.132887
 30
0.0
 10
50.765103
 20
108.344927
 30
0.0
 10
51.428253
 20
108.556977
 30
0.0
 10
52.084843
 20
108.721387
 30
0.0
 10
52.741443
 20
108.885777
 30
0.0
 10
52.976233
 20
108.938177
 30
0.0
 10
53.211023
 20
108.990577
 30
0.0
 10
53.118723
 20
109.022477
 30
0.0
 10
53.026423
 20
109.054377
 30
0.0
 10
52.327073
 20
109.254487
 30
0.0
 10
51.627733
 20
109.454607
 30
0.0
 10
50.734263
 20
109.709757
 30
0.0
 10
49.840823
 20
109.964897
 30
0.0
 10
49.737923
 20
109.996097
 30
0.0
 10
49.635043
 20
110.027197
 30
0.0
 10
49.308333
 20
109.917707
 30
0.0
 10
48.981613
 20
109.808227
 30
0.0
 10
48.657293
 20
109.694417
 30
0.0
 10
48.332973
 20
109.580617
 30
0.0
 10
48.088933
 20
109.493617
 30
0.0
 10
47.844893
 20
109.406617
 30
0.0
 10
47.817793
 20
109.452417
 30
0.0
 10
47.790693
 20
109.498317
 30
0.0
 10
47.681923
 20
109.453717
 30
0.0
 10
47.573153
 20
109.409117
 30
0.0
 10
47.367843
 20
109.336717
 30
0.0
 10
47.162543
 20
109.264317
 30
0.0
 10
47.119043
 20
109.241817
 30
0.0
 10
47.075543
 20
109.219317
 30
0.0
 10
47.305743
 20
108.362847
 30
0.0
 10
47.535873
 20
107.506367
 30
0.0
 10
47.535413
 20
107.455567
 30
0.0
 10
47.534963
 20
107.404767
 30
0.0
 10
47.681753
 20
107.418367
 30
0.0
 10
47.828553
 20
107.431967
 30
0.0
 10
48.131963
 20
107.462167
 30
0.0
 10
48.435373
 20
107.492367
 30
0.0
 10
48.629623
 20
107.531167
 30
0.0
 10
48.823873
 20
107.569967
 30
0.0
  0
LWPOLYLINE
  5
197
100
AcDbEntity
  8
1
 62
7
100
AcDbPolyline
 90
14
 70
1
 10
71.649905
 20
114.370657
 30
0.0
 10
71.807525
 20
114.647557
 30
0.0
 10
71.822025
 20
114.717557
 30
0.0
 10
71.836525
 20
114.787557
 30
0.0
 10
71.769725
 20
114.892997
 30
0.0
 10
71.702925
 20
114.998437
 30
0.0
 10
71.558395
 20
115.118917
 30
0.0
 10
71.413865
 20
115.239387
 30
0.0
 10
71.251955
 20
114.627087
 30
0.0
 10
71.090035
 20
114.014787
 30
0.0
 10
71.194125
 20
114.028787
 30
0.0
 10
71.298215
 20
114.042787
 30
0.0
 10
71.395315
 20
114.068487
 30
0.0
 10
71.492415
 20
114.094187
 30
0.0
  0
LWPOLYLINE
  5
198
100
AcDbEntity
  8
1
 62
7
100
AcDbPolyline
 90
20
 70
1
 10
47.277793
 20
107.735677
 30
0.0
 10
47.188293
 20
108.049547
 30
0.0
 10
47.047393
 20
108.598047
 30
0.0
 10
46.906483
 20
109.146547
 30
0.0
 10
46.822283
 20
109.122547
 30
0.0
 10
46.738083
 20
109.098547
 30
0.0
 10
46.610413
 20
109.038947
 30
0.0
 10
46.482743
 20
108.979447
 30
0.0
 10
46.273303
 20
108.879947
 30
0.0
 10
46.063833
 20
108.780447
 30
0.0
 10
45.997233
 20
108.747047
 30
0.0
 10
45.930733
 20
108.713647
 30
0.0
 10
46.121613
 20
108.019717
 30
0.0
 10
46.312513
 20
107.325797
 30
0.0
 10
46.488393
 20
107.334797
 30
0.0
 10
46.664263
 20
107.343797
 30
0.0
 10
46.963333
 20
107.379297
 30
0.0
 10
47.262433
 20
107.414797
 30
0.0
 10
47.314833
 20
107.418797
 30
0.0
 10
47.367233
 20
107.422797
 30
0.0
  0
LWPOLYLINE
  5
199
100
AcDbEntity
  8
1
 62
7
100
AcDbPolyline
 90
72
 70
1
 10
81.462405
 20
118.743888
 30
0.0
 10
81.541205
 20
118.858468
 30
0.0
 10
80.625445
 20
119.049818
 30
0.0
 10
79.709675
 20
119.241178
 30
0.0
 10
79.192635
 20
119.344228
 30
0.0
 10
78.675605
 20
119.447258
 30
0.0
 10
78.377715
 20
119.490858
 30
0.0
 10
78.079815
 20
119.534458
 30
0.0
 10
77.750685
 20
119.562458
 30
0.0
 10
77.421555
 20
119.590458
 30
0.0
 10
77.113695
 20
119.586458
 30
0.0
 10
76.805825
 20
119.582458
 30
0.0
 10
76.409985
 20
119.551458
 30
0.0
 10
76.014145
 20
119.520458
 30
0.0
 10
75.726565
 20
119.486358
 30
0.0
 10
75.438985
 20
119.452258
 30
0.0
 10
75.077715
 20
119.384558
 30
0.0
 10
74.716445
 20
119.316858
 30
0.0
 10
74.188745
 20
119.207278
 30
0.0
 10
73.661035
 20
119.097698
 30
0.0
 10
72.296985
 20
118.709738
 30
0.0
 10
70.932945
 20
118.321788
 30
0.0
 10
70.394085
 20
118.126248
 30
0.0
 10
69.855234
 20
117.930688
 30
0.0
 10
69.336954
 20
117.746428
 30
0.0
 10
68.818664
 20
117.562158
 30
0.0
 10
68.772164
 20
117.537358
 30
0.0
 10
68.725664
 20
117.512558
 30
0.0
 10
68.732664
 20
117.489858
 30
0.0
 10
68.739664
 20
117.467158
 30
0.0
 10
68.833964
 20
117.418058
 30
0.0
 10
68.928264
 20
117.368958
 30
0.0
 10
69.332534
 20
117.068067
 30
0.0
 10
69.736784
 20
116.767177
 30
0.0
 10
69.902824
 20
116.642107
 30
0.0
 10
70.068864
 20
116.517047
 30
0.0
 10
70.684955
 20
116.692827
 30
0.0
 10
71.301055
 20
116.868617
 30
0.0
 10
71.945085
 20
117.029017
 30
0.0
 10
72.589085
 20
117.189487
 30
0.0
 10
72.925825
 20
117.259788
 30
0.0
 10
73.262565
 20
117.330088
 30
0.0
 10
73.827985
 20
117.432518
 30
0.0
 10
74.393415
 20
117.534948
 30
0.0
 10
74.713545
 20
117.580048
 30
0.0
 10
75.033685
 20
117.625148
 30
0.0
 10
75.216355
 20
117.651848
 30
0.0
 10
75.399005
 20
117.678548
 30
0.0
 10
75.558995
 20
117.701348
 30
0.0
 10
75.718995
 20
117.724148
 30
0.0
 10
75.879075
 20
117.746648
 30
0.0
 10
76.039165
 20
117.769148
 30
0.0
 10
76.257405
 20
117.796148
 30
0.0
 10
76.475655
 20
117.823148
 30
0.0
 10
77.004185
 20
117.888148
 30
0.0
 10
77.532715
 20
117.953148
 30
0.0
 10
77.670525
 20
117.970348
 30
0.0
 10
77.808335
 20
117.987548
 30
0.0
 10
77.968465
 20
118.009848
 30
0.0
 10
78.128605
 20
118.032148
 30
0.0
 10
78.283425
 20
118.052348
 30
0.0
 10
78.438235
 20
118.072548
 30
0.0
 10
78.545915
 20
118.079548
 30
0.0
 10
78.653625
 20
118.086548
 30
0.0
 10
79.046875
 20
118.137648
 30
0.0
 10
79.440145
 20
118.188748
 30
0.0
 10
79.599785
 20
118.212748
 30
0.0
 10
79.759425
 20
118.236748
 30
0.0
 10
80.296575
 20
118.354968
 30
0.0
 10
80.833705
 20
118.473188
 30
0.0
 10
81.109155
 20
118.551388
 30
0.0
 10
81.384605
 20
118.629588
 30
0.0
  0
LWPOLYLINE
  5
19a
100
AcDbEntity
  8
1
 62
7
100
AcDbPolyline
 90
24
 70
1
 10
80.523635
 20
118.514208
 30
0.0
 10
80.063545
 20
118.417708
 30
0.0
 10
79.859355
 20
118.383108
 30
0.0
 10
79.655155
 20
118.348508
 30
0.0
 10
79.221295
 20
118.285108
 30
0.0
 10
78.787435
 20
118.221708
 30
0.0
 10
78.655805
 20
118.203708
 30
0.0
 10
78.524185
 20
118.185708
 30
0.0
 10
78.507485
 20
118.194708
 30
0.0
 10
78.490785
 20
118.203708
 30
0.0
 10
78.594265
 20
118.734518
 30
0.0
 10
78.697745
 20
119.265328
 30
0.0
 10
78.722545
 20
119.272328
 30
0.0
 10
78.747345
 20
119.279328
 30
0.0
 10
78.909495
 20
119.252928
 30
0.0
 10
79.071635
 20
119.226528
 30
0.0
 10
80.140155
 20
119.003858
 30
0.0
 10
81.208685
 20
118.781198
 30
0.0
 10
81.215685
 20
118.757898
 30
0.0
 10
81.222685
 20
118.734598
 30
0.0
 10
81.203885
 20
118.700698
 30
0.0
 10
81.185085
 20
118.666798
 30
0.0
 10
81.084955
 20
118.638398
 30
0.0
 10
80.984825
 20
118.610098
 30
0.0
  0
LWPOLYLINE
  5
19b
100
AcDbEntity
  8
1
 62
7
100
AcDbPolyline
 90
34
 70
1
 10
77.789355
 20
118.104218
 30
0.0
 10
77.454695
 20
118.057518
 30
0.0
 10
77.076435
 20
118.007718
 30
0.0
 10
76.698175
 20
117.957918
 30
0.0
 10
76.560085
 20
117.941818
 30
0.0
 10
76.421985
 20
117.925718
 30
0.0
 10
75.996445
 20
117.874918
 30
0.0
 10
75.570895
 20
117.824118
 30
0.0
 10
75.308095
 20
117.786518
 30
0.0
 10
75.045285
 20
117.748918
 30
0.0
 10
74.724705
 20
117.705418
 30
0.0
 10
74.404115
 20
117.661918
 30
0.0
 10
74.306815
 20
117.648818
 30
0.0
 10
74.209415
 20
117.635718
 30
0.0
 10
74.011585
 20
118.328928
 30
0.0
 10
73.813745
 20
119.022138
 30
0.0
 10
74.098365
 20
119.087538
 30
0.0
 10
74.382975
 20
119.152938
 30
0.0
 10
74.890735
 20
119.249038
 30
0.0
 10
75.398495
 20
119.345138
 30
0.0
 10
75.793985
 20
119.389438
 30
0.0
 10
76.189485
 20
119.433738
 30
0.0
 10
76.571855
 20
119.456038
 30
0.0
 10
76.954235
 20
119.478338
 30
0.0
 10
77.303185
 20
119.464238
 30
0.0
 10
77.652125
 20
119.450038
 30
0.0
 10
78.029805
 20
119.397738
 30
0.0
 10
78.407475
 20
119.345438
 30
0.0
 10
78.410475
 20
119.336438
 30
0.0
 10
78.413475
 20
119.327438
 30
0.0
 10
78.304765
 20
118.749508
 30
0.0
 10
78.196055
 20
118.171608
 30
0.0
 10
78.160455
 20
118.161508
 30
0.0
 10
78.124955
 20
118.151408
 30
0.0
  0
LWPOLYLINE
  5
19c
100
AcDbEntity
  8
1
 62
7
100
AcDbPolyline
 90
22
 70
1
 10
73.097965
 20
117.404008
 30
0.0
 10
72.695585
 20
117.313708
 30
0.0
 10
72.183095
 20
117.192437
 30
0.0
 10
71.670615
 20
117.071167
 30
0.0
 10
71.071785
 20
116.899837
 30
0.0
 10
70.472955
 20
116.728507
 30
0.0
 10
70.440155
 20
116.784507
 30
0.0
 10
70.407355
 20
116.840507
 30
0.0
 10
70.131824
 20
117.332748
 30
0.0
 10
69.856304
 20
117.824988
 30
0.0
 10
69.868404
 20
117.833988
 30
0.0
 10
69.880504
 20
117.842988
 30
0.0
 10
70.321124
 20
118.007698
 30
0.0
 10
70.761735
 20
118.172398
 30
0.0
 10
71.776745
 20
118.474168
 30
0.0
 10
72.791745
 20
118.776008
 30
0.0
 10
73.048255
 20
118.832208
 30
0.0
 10
73.304755
 20
118.888408
 30
0.0
 10
73.499395
 20
118.206428
 30
0.0
 10
73.694035
 20
117.524448
 30
0.0
 10
73.597135
 20
117.509648
 30
0.0
 10
73.500235
 20
117.494848
 30
0.0
  0
LWPOLYLINE
  5
19d
100
AcDbEntity
  8
1
 62
7
100
AcDbPolyline
 90
128
 70
1
 10
61.046834
 20
113.289797
 30
0.0
 10
61.066534
 20
113.303797
 30
0.0
 10
61.617264
 20
113.499397
 30
0.0
 10
62.168004
 20
113.694997
 30
0.0
 10
62.683664
 20
113.888467
 30
0.0
 10
63.199324
 20
114.081937
 30
0.0
 10
63.413084
 20
114.166437
 30
0.0
 10
63.626844
 20
114.250937
 30
0.0
 10
63.678644
 20
114.277837
 30
0.0
 10
63.730444
 20
114.304737
 30
0.0
 10
64.072964
 20
114.438107
 30
0.0
 10
64.415484
 20
114.571477
 30
0.0
 10
64.809754
 20
114.731907
 30
0.0
 10
65.204014
 20
114.892337
 30
0.0
 10
65.439914
 20
114.982537
 30
0.0
 10
65.675834
 20
115.072737
 30
0.0
 10
66.029054
 20
115.210297
 30
0.0
 10
66.382264
 20
115.347847
 30
0.0
 10
66.661804
 20
115.451877
 30
0.0
 10
66.941334
 20
115.555917
 30
0.0
 10
67.517624
 20
115.745317
 30
0.0
 10
68.093924
 20
115.934707
 30
0.0
 10
68.969664
 20
116.195057
 30
0.0
 10
69.845404
 20
116.455417
 30
0.0
 10
69.848404
 20
116.462417
 30
0.0
 10
69.851404
 20
116.469417
 30
0.0
 10
69.385514
 20
116.812177
 30
0.0
 10
68.919604
 20
117.154937
 30
0.0
 10
68.757954
 20
117.269698
 30
0.0
 10
68.596294
 20
117.384448
 30
0.0
 10
68.583394
 20
117.429648
 30
0.0
 10
68.570494
 20
117.474848
 30
0.0
 10
68.535194
 20
117.452948
 30
0.0
 10
68.499894
 20
117.431048
 30
0.0
 10
68.382564
 20
117.383748
 30
0.0
 10
68.265254
 20
117.336448
 30
0.0
 10
68.167254
 20
117.297648
 30
0.0
 10
68.069354
 20
117.258848
 30
0.0
 10
67.879784
 20
117.179947
 30
0.0
 10
67.690204
 20
117.101147
 30
0.0
 10
67.380504
 20
116.977807
 30
0.0
 10
67.070804
 20
116.854477
 30
0.0
 10
66.139104
 20
116.493487
 30
0.0
 10
65.207424
 20
116.132487
 30
0.0
 10
65.078904
 20
116.082687
 30
0.0
 10
64.950394
 20
116.032887
 30
0.0
 10
64.865794
 20
115.995887
 30
0.0
 10
64.781194
 20
115.958887
 30
0.0
 10
64.610724
 20
115.889487
 30
0.0
 10
64.440244
 20
115.820087
 30
0.0
 10
63.337904
 20
115.348617
 30
0.0
 10
62.235564
 20
114.877137
 30
0.0
 10
62.076454
 20
114.809537
 30
0.0
 10
61.917344
 20
114.742037
 30
0.0
 10
61.567014
 20
114.594347
 30
0.0
 10
61.216694
 20
114.446647
 30
0.0
 10
60.498914
 20
114.169587
 30
0.0
 10
59.781134
 20
113.892517
 30
0.0
 10
59.696034
 20
113.857217
 30
0.0
 10
59.610934
 20
113.822017
 30
0.0
 10
59.372434
 20
113.740917
 30
0.0
 10
59.133924
 20
113.659817
 30
0.0
 10
58.677994
 20
113.507047
 30
0.0
 10
58.222084
 20
113.354277
 30
0.0
 10
57.647204
 20
113.189777
 30
0.0
 10
57.072334
 20
113.025287
 30
0.0
 10
56.832414
 20
113.006087
 30
0.0
 10
56.592504
 20
112.986887
 30
0.0
 10
56.408364
 20
113.003587
 30
0.0
 10
56.224224
 20
113.020287
 30
0.0
 10
56.029114
 20
113.070487
 30
0.0
 10
55.834004
 20
113.120687
 30
0.0
 10
55.636324
 20
113.196487
 30
0.0
 10
55.438644
 20
113.272287
 30
0.0
 10
55.202954
 20
113.401347
 30
0.0
 10
54.967254
 20
113.530417
 30
0.0
 10
54.685223
 20
113.759147
 30
0.0
 10
54.403213
 20
113.987887
 30
0.0
 10
53.523083
 20
114.688167
 30
0.0
 10
52.642953
 20
115.388447
 30
0.0
 10
51.628633
 20
116.193137
 30
0.0
 10
50.614293
 20
116.997837
 30
0.0
 10
50.403053
 20
117.163517
 30
0.0
 10
50.191803
 20
117.329208
 30
0.0
 10
50.119903
 20
117.403908
 30
0.0
 10
50.048003
 20
117.478508
 30
0.0
 10
48.791813
 20
117.126017
 30
0.0
 10
47.535623
 20
116.773527
 30
0.0
 10
47.518923
 20
116.735427
 30
0.0
 10
47.502223
 20
116.697327
 30
0.0
 10
47.547623
 20
116.672027
 30
0.0
 10
47.593023
 20
116.646727
 30
0.0
 10
47.645623
 20
116.661827
 30
0.0
 10
47.698323
 20
116.676927
 30
0.0
 10
47.734623
 20
116.639427
 30
0.0
 10
47.770923
 20
116.601927
 30
0.0
 10
47.771183
 20
116.144427
 30
0.0
 10
47.771453
 20
115.686917
 30
0.0
 10
47.774453
 20
114.748127
 30
0.0
 10
47.777453
 20
113.809347
 30
0.0
 10
47.780453
 20
113.465317
 30
0.0
 10
47.783453
 20
113.121277
 30
0.0
 10
47.782993
 20
113.079777
 30
0.0
 10
47.782543
 20
113.038277
 30
0.0
 10
48.473953
 20
113.229597
 30
0.0
 10
49.165363
 20
113.420907
 30
0.0
 10
49.480563
 20
112.297737
 30
0.0
 10
49.795753
 20
111.174587
 30
0.0
 10
49.900123
 20
110.758787
 30
0.0
 10
50.004493
 20
110.342987
 30
0.0
 10
50.469153
 20
110.493037
 30
0.0
 10
50.933813
 20
110.643097
 30
0.0
 10
52.088553
 20
110.972647
 30
0.0
 10
53.243293
 20
111.302197
 30
0.0
 10
54.193723
 20
111.555807
 30
0.0
 10
55.144174
 20
111.809417
 30
0.0
 10
55.378304
 20
111.864217
 30
0.0
 10
55.612424
 20
111.919017
 30
0.0
 10
56.165624
 20
112.064267
 30
0.0
 10
56.718834
 20
112.209527
 30
0.0
 10
57.472854
 20
112.401257
 30
0.0
 10
58.226874
 20
112.592997
 30
0.0
 10
58.918084
 20
112.754777
 30
0.0
 10
59.609294
 20
112.916577
 30
0.0
 10
59.887564
 20
112.983377
 30
0.0
 10
60.165844
 20
113.050177
 30
0.0
 10
60.597104
 20
113.164297
 30
0.0
 10
61.028364
 20
113.278417
 30
0.0
  0
LWPOLYLINE
  5
19e
100
AcDbEntity
  8
1
 62
7
100
AcDbPolyline
 90
8
 70
1
 10
50.483033
 20
115.340827
 30
0.0
 10
50.435933
 20
115.505787
 30
0.0
 10
50.710873
 20
115.584187
 30
0.0
 10
50.985813
 20
115.662587
 30
0.0
 10
51.032913
 20
115.497617
 30
0.0
 10
51.080013
 20
115.332647
 30
0.0
 10
50.805073
 20
115.254247
 30
0.0
 10
50.530143
 20
115.175847
 30
0.0
  0
LWPOLYLINE
  5
19f
100
AcDbEntity
  8
1
 62
7
100
AcDbPolyline
 90
24
 70
1
 10
48.417713
 20
109.783897
 30
0.0
 10
48.892933
 20
109.952397
 30
0.0
 10
48.931233
 20
109.984697
 30
0.0
 10
48.969533
 20
110.016997
 30
0.0
 10
49.361703
 20
110.143097
 30
0.0
 10
49.753863
 20
110.269237
 30
0.0
 10
49.797263
 20
110.295037
 30
0.0
 10
49.840563
 20
110.320937
 30
0.0
 10
49.592563
 20
111.241187
 30
0.0
 10
49.344553
 20
112.161447
 30
0.0
 10
49.205223
 20
112.698867
 30
0.0
 10
49.065873
 20
113.236287
 30
0.0
 10
48.423663
 20
113.046987
 30
0.0
 10
47.781453
 20
112.857697
 30
0.0
 10
47.783453
 20
112.667947
 30
0.0
 10
47.785453
 20
112.478187
 30
0.0
 10
47.788453
 20
111.337307
 30
0.0
 10
47.791453
 20
110.196427
 30
0.0
 10
47.793453
 20
109.895257
 30
0.0
 10
47.795453
 20
109.594087
 30
0.0
 10
47.799453
 20
109.581487
 30
0.0
 10
47.803453
 20
109.568987
 30
0.0
 10
47.874053
 20
109.592487
 30
0.0
 10
47.944653
 20
109.615887
 30
0.0
  0
LWPOLYLINE
  5
1a0
100
AcDbEntity
  8
1
 62
7
100
AcDbPolyline
 90
30
 70
1
 10
71.863885
 20
134.498359
 30
0.0
 10
71.996235
 20
134.703099
 30
0.0
 10
73.568335
 20
135.040729
 30
0.0
 10
75.140455
 20
135.378359
 30
0.0
 10
76.564395
 20
135.832549
 30
0.0
 10
77.988345
 20
136.286749
 30
0.0
 10
78.288985
 20
136.426119
 30
0.0
 10
78.589625
 20
136.565479
 30
0.0
 10
79.058285
 20
134.383269
 30
0.0
 10
79.526945
 20
132.201078
 30
0.0
 10
79.195585
 20
132.204078
 30
0.0
 10
78.864235
 20
132.207078
 30
0.0
 10
77.379365
 20
132.036538
 30
0.0
 10
75.894475
 20
131.866028
 30
0.0
 10
74.322375
 20
131.528398
 30
0.0
 10
72.750275
 20
131.190758
 30
0.0
 10
72.545535
 20
131.323088
 30
0.0
 10
72.340815
 20
131.455428
 30
0.0
 10
72.227985
 20
131.980818
 30
0.0
 10
72.115145
 20
132.506198
 30
0.0
 10
72.256755
 20
132.642188
 30
0.0
 10
72.398365
 20
132.778178
 30
0.0
 10
72.809695
 20
132.974959
 30
0.0
 10
73.221015
 20
133.171729
 30
0.0
 10
72.892695
 20
133.116329
 30
0.0
 10
72.564405
 20
133.060929
 30
0.0
 10
72.261535
 20
133.147929
 30
0.0
 10
71.958645
 20
133.234929
 30
0.0
 10
71.845105
 20
133.763679
 30
0.0
 10
71.731535
 20
134.292429
 30
0.0
  0
LWPOLYLINE
  5
1a1
100
AcDbEntity
  8
1
 62
7
100
AcDbPolyline
 90
16
 70
1
 10
73.137065
 20
138.033419
 30
0.0
 10
72.950075
 20
140.123589
 30
0.0
 10
72.954075
 20
140.161489
 30
0.0
 10
72.958075
 20
140.199389
 30
0.0
 10
73.705695
 20
140.359959
 30
0.0
 10
74.453345
 20
140.520529
 30
0.0
 10
76.372015
 20
138.653379
 30
0.0
 10
78.290675
 20
136.786239
 30
0.0
 10
78.244775
 20
136.724339
 30
0.0
 10
78.198775
 20
136.662539
 30
0.0
 10
76.337065
 20
136.095849
 30
0.0
 10
74.475355
 20
135.529179
 30
0.0
 10
73.948595
 20
135.416469
 30
0.0
 10
73.421855
 20
135.303789
 30
0.0
 10
73.371455
 20
135.623559
 30
0.0
 10
73.321055
 20
135.943329
 30
0.0
  0
LWPOLYLINE
  5
1a2
100
AcDbEntity
  8
1
 62
7
100
AcDbPolyline
 90
16
 70
1
 10
74.809905
 20
131.340978
 30
0.0
 10
75.352425
 20
131.457918
 30
0.0
 10
77.282625
 20
131.705628
 30
0.0
 10
79.212865
 20
131.953308
 30
0.0
 10
79.280065
 20
131.915708
 30
0.0
 10
79.347365
 20
131.878108
 30
0.0
 10
78.364515
 20
129.387828
 30
0.0
 10
77.381685
 20
126.897528
 30
0.0
 10
76.636725
 20
126.737538
 30
0.0
 10
75.891765
 20
126.577548
 30
0.0
 10
75.757555
 20
126.879308
 30
0.0
 10
75.623335
 20
127.181028
 30
0.0
 10
75.155235
 20
128.623168
 30
0.0
 10
74.687135
 20
130.065288
 30
0.0
 10
74.477195
 20
130.644598
 30
0.0
 10
74.267245
 20
131.223928
 30
0.0
  0
LWPOLYLINE
  5
1a3
100
AcDbEntity
  8
1
 62
7
100
AcDbPolyline
 90
84
 70
1
 10
79.603005
 20
137.004999
 30
0.0
 10
80.360185
 20
137.269319
 30
0.0
 10
82.320865
 20
137.518779
 30
0.0
 10
84.281555
 20
137.768259
 30
0.0
 10
85.317765
 20
137.903169
 30
0.0
 10
86.353946
 20
138.038089
 30
0.0
 10
86.545656
 20
137.145469
 30
0.0
 10
86.737356
 20
136.252869
 30
0.0
 10
88.071556
 20
136.539419
 30
0.0
 10
89.405726
 20
136.825939
 30
0.0
 10
89.215986
 20
137.709489
 30
0.0
 10
89.026226
 20
138.593049
 30
0.0
 10
90.267566
 20
139.140979
 30
0.0
 10
91.508906
 20
139.688879
 30
0.0
 10
93.022556
 20
140.066599
 30
0.0
 10
94.536206
 20
140.444329
 30
0.0
 10
94.491006
 20
140.241519
 30
0.0
 10
94.445806
 20
140.038719
 30
0.0
 10
94.412806
 20
139.797679
 30
0.0
 10
94.379806
 20
139.556649
 30
0.0
 10
92.705236
 20
139.025269
 30
0.0
 10
91.030686
 20
138.493889
 30
0.0
 10
90.222846
 20
138.321859
 30
0.0
 10
89.415026
 20
138.149819
 30
0.0
 10
89.550746
 20
137.517819
 30
0.0
 10
89.686476
 20
136.885839
 30
0.0
 10
91.020656
 20
137.172369
 30
0.0
 10
92.354876
 20
137.458919
 30
0.0
 10
92.234796
 20
138.017999
 30
0.0
 10
92.114726
 20
138.577119
 30
0.0
 10
92.474526
 20
138.754229
 30
0.0
 10
92.834316
 20
138.931349
 30
0.0
 10
99.741906
 20
140.317349
 30
0.0
 10
106.649497
 20
141.703359
 30
0.0
 10
108.078447
 20
141.791559
 30
0.0
 10
109.507367
 20
141.879759
 30
0.0
 10
110.122157
 20
141.852859
 30
0.0
 10
110.736947
 20
141.825959
 30
0.0
 10
111.595047
 20
141.764059
 30
0.0
 10
112.453137
 20
141.702159
 30
0.0
 10
112.483337
 20
141.561659
 30
0.0
 10
112.513637
 20
141.421159
 30
0.0
 10
111.756637
 20
141.012339
 30
0.0
 10
110.999647
 20
140.603509
 30
0.0
 10
110.450157
 20
140.326489
 30
0.0
 10
109.900687
 20
140.049439
 30
0.0
 10
108.561517
 20
139.543169
 30
0.0
 10
107.222367
 20
139.036929
 30
0.0
 10
100.354786
 20
137.464499
 30
0.0
 10
93.487236
 20
135.892069
 30
0.0
 10
93.086456
 20
135.905869
 30
0.0
 10
92.685656
 20
135.919569
 30
0.0
 10
92.550496
 20
136.548889
 30
0.0
 10
92.415336
 20
137.178199
 30
0.0
 10
91.081146
 20
136.891659
 30
0.0
 10
89.746946
 20
136.605129
 30
0.0
 10
89.897756
 20
135.902929
 30
0.0
 10
90.048566
 20
135.200689
 30
0.0
 10
90.855816
 20
135.375519
 30
0.0
 10
91.663056
 20
135.550349
 30
0.0
 10
93.408126
 20
135.753409
 30
0.0
 10
95.153206
 20
135.956439
 30
0.0
 10
95.282136
 20
135.750159
 30
0.0
 10
95.411096
 20
135.543869
 30
0.0
 10
95.535576
 20
135.377499
 30
0.0
 10
95.660056
 20
135.211149
 30
0.0
 10
94.124776
 20
134.934069
 30
0.0
 10
92.589516
 20
134.656989
 30
0.0
 10
91.232656
 20
134.646889
 30
0.0
 10
89.875826
 20
134.636789
 30
0.0
 10
89.670986
 20
135.590579
 30
0.0
 10
89.466136
 20
136.544329
 30
0.0
 10
88.131946
 20
136.257799
 30
0.0
 10
86.797756
 20
135.971259
 30
0.0
 10
87.004546
 20
135.008439
 30
0.0
 10
87.211326
 20
134.045619
 30
0.0
 10
86.211116
 20
133.743169
 30
0.0
 10
85.210885
 20
133.440729
 30
0.0
 10
83.320665
 20
132.863148
 30
0.0
 10
81.430445
 20
132.285578
 30
0.0
 10
80.631505
 20
132.215778
 30
0.0
 10
79.832595
 20
132.145878
 30
0.0
 10
79.339245
 20
134.442949
 30
0.0
 10
78.845905
 20
136.740049
 30
0.0
  0
LWPOLYLINE
  5
1a4
100
AcDbEntity
  8
1
 62
7
100
AcDbPolyline
 90
10
 70
1
 10
82.369515
 20
133.331399
 30
0.0
 10
83.984585
 20
133.678249
 30
0.0
 10
83.622645
 20
135.363559
 30
0.0
 10
83.260695
 20
137.048859
 30
0.0
 10
81.786895
 20
136.774489
 30
0.0
 10
80.313095
 20
136.500119
 30
0.0
 10
80.139205
 20
136.386679
 30
0.0
 10
79.965285
 20
136.273259
 30
0.0
 10
80.359875
 20
134.628869
 30
0.0
 10
80.754435
 20
132.984489
 30
0.0
  0
LWPOLYLINE
  5
1a5
100
AcDbEntity
  8
1
 62
7
100
AcDbPolyline
 90
8
 70
1
 10
81.690855
 20
136.491339
 30
0.0
 10
83.095285
 20
136.792969
 30
0.0
 10
83.411985
 20
135.318319
 30
0.0
 10
83.728705
 20
133.843669
 30
0.0
 10
82.324265
 20
133.542059
 30
0.0
 10
80.919845
 20
133.240429
 30
0.0
 10
80.603155
 20
134.715079
 30
0.0
 10
80.286455
 20
136.189709
 30
0.0
  0
LWPOLYLINE
  5
1a6
100
AcDbEntity
  8
1
 62
7
100
AcDbPolyline
 90
14
 70
1
 10
107.526677
 20
140.014529
 30
0.0
 10
109.712157
 20
140.441839
 30
0.0
 10
110.011387
 20
140.587699
 30
0.0
 10
110.310647
 20
140.733549
 30
0.0
 10
110.239047
 20
141.066949
 30
0.0
 10
110.167347
 20
141.400339
 30
0.0
 10
109.926897
 20
141.437939
 30
0.0
 10
109.686417
 20
141.475439
 30
0.0
 10
107.474247
 20
141.000339
 30
0.0
 10
105.262077
 20
140.525239
 30
0.0
 10
105.183577
 20
140.403669
 30
0.0
 10
105.104977
 20
140.282109
 30
0.0
 10
105.223037
 20
139.934659
 30
0.0
 10
105.341117
 20
139.587229
 30
0.0
  0
LWPOLYLINE
  5
1a7
100
AcDbEntity
  8
1
 62
7
100
AcDbPolyline
 90
8
 70
1
 10
107.663187
 20
140.747039
 30
0.0
 10
109.910267
 20
141.229629
 30
0.0
 10
109.955567
 20
141.018969
 30
0.0
 10
110.000967
 20
140.808299
 30
0.0
 10
107.753897
 20
140.325709
 30
0.0
 10
105.506827
 20
139.843109
 30
0.0
 10
105.461427
 20
140.053779
 30
0.0
 10
105.416227
 20
140.264439
 30
0.0
  0
LWPOLYLINE
  5
1a8
100
AcDbEntity
  8
1
 62
7
100
AcDbPolyline
 90
14
 70
1
 10
82.649065
 20
139.268229
 30
0.0
 10
82.632065
 20
139.558419
 30
0.0
 10
82.546665
 20
140.384879
 30
0.0
 10
82.461265
 20
141.211329
 30
0.0
 10
83.198885
 20
141.369749
 30
0.0
 10
83.936515
 20
141.528159
 30
0.0
 10
84.530565
 20
139.857179
 30
0.0
 10
85.124625
 20
138.186179
 30
0.0
 10
85.103525
 20
138.153679
 30
0.0
 10
85.082425
 20
138.121079
 30
0.0
 10
83.963495
 20
138.040179
 30
0.0
 10
82.844535
 20
137.959279
 30
0.0
 10
82.755135
 20
138.468559
 30
0.0
 10
82.665735
 20
138.977859
 30
0.0
  0
LWPOLYLINE
  5
1a9
100
AcDbEntity
  8
1
 62
7
100
AcDbPolyline
 90
12
 70
1
 10
85.017355
 20
133.057289
 30
0.0
 10
86.086176
 20
133.448589
 30
0.0
 10
86.118676
 20
133.427489
 30
0.0
 10
86.151176
 20
133.406389
 30
0.0
 10
86.295606
 20
131.638838
 30
0.0
 10
86.440056
 20
129.871268
 30
0.0
 10
85.708255
 20
129.714118
 30
0.0
 10
84.976475
 20
129.556948
 30
0.0
 10
84.766485
 20
130.136278
 30
0.0
 10
84.556485
 20
130.715578
 30
0.0
 10
84.252515
 20
131.690678
 30
0.0
 10
83.948535
 20
132.665768
 30
0.0
  0
LWPOLYLINE
  5
1aa
100
AcDbEntity
  8
1
 62
7
100
AcDbPolyline
 90
14
 70
1
 10
82.323205
 20
142.210099
 30
0.0
 10
82.265905
 20
142.711989
 30
0.0
 10
82.216005
 20
143.325689
 30
0.0
 10
82.166205
 20
143.939389
 30
0.0
 10
82.841715
 20
144.084469
 30
0.0
 10
83.517225
 20
144.229539
 30
0.0
 10
83.768795
 20
143.512249
 30
0.0
 10
84.020345
 20
142.794949
 30
0.0
 10
84.199345
 20
142.355899
 30
0.0
 10
84.378315
 20
141.916839
 30
0.0
 10
83.379595
 20
141.702349
 30
0.0
 10
82.380865
 20
141.487869
 30
0.0
 10
82.380745
 20
141.597999
 30
0.0
 10
82.380605
 20
141.708129
 30
0.0
  0
LWPOLYLINE
  5
1ab
100
AcDbEntity
  8
1
 62
7
100
AcDbPolyline
 90
12
 70
1
 10
86.017016
 20
129.486768
 30
0.0
 10
87.002366
 20
129.698408
 30
0.0
 10
87.019466
 20
129.224588
 30
0.0
 10
87.036566
 20
128.750758
 30
0.0
 10
87.101766
 20
127.993418
 30
0.0
 10
87.166966
 20
127.236068
 30
0.0
 10
86.491446
 20
127.091008
 30
0.0
 10
85.815935
 20
126.945918
 30
0.0
 10
85.615215
 20
127.527228
 30
0.0
 10
85.414505
 20
128.108528
 30
0.0
 10
85.223155
 20
128.691838
 30
0.0
 10
85.031795
 20
129.275138
 30
0.0
  0
LWPOLYLINE
  5
1ac
100
AcDbEntity
  8
1
 62
7
100
AcDbPolyline
 90
46
 70
1
 10
81.885565
 20
146.046199
 30
0.0
 10
81.714075
 20
147.515299
 30
0.0
 10
82.807945
 20
147.750229
 30
0.0
 10
83.901795
 20
147.985149
 30
0.0
 10
84.745255
 20
147.101129
 30
0.0
 10
85.588705
 20
146.217099
 30
0.0
 10
88.553146
 20
143.123869
 30
0.0
 10
91.517596
 20
140.030619
 30
0.0
 10
91.485096
 20
139.990719
 30
0.0
 10
91.452696
 20
139.950819
 30
0.0
 10
90.340596
 20
139.471339
 30
0.0
 10
89.228506
 20
138.991849
 30
0.0
 10
88.956836
 20
138.933549
 30
0.0
 10
88.685166
 20
138.875149
 30
0.0
 10
88.480746
 20
139.382199
 30
0.0
 10
88.276326
 20
139.889249
 30
0.0
 10
87.825816
 20
140.820939
 30
0.0
 10
87.375316
 20
141.752619
 30
0.0
 10
86.286416
 20
141.561679
 30
0.0
 10
85.197495
 20
141.370739
 30
0.0
 10
85.234695
 20
141.196969
 30
0.0
 10
85.271895
 20
141.023189
 30
0.0
 10
85.683365
 20
140.736239
 30
0.0
 10
86.094826
 20
140.449249
 30
0.0
 10
86.408926
 20
139.451539
 30
0.0
 10
86.723026
 20
138.453839
 30
0.0
 10
86.082536
 20
138.316279
 30
0.0
 10
85.442025
 20
138.178709
 30
0.0
 10
85.414725
 20
138.283059
 30
0.0
 10
85.387425
 20
138.387409
 30
0.0
 10
84.882325
 20
139.748109
 30
0.0
 10
84.377225
 20
141.108829
 30
0.0
 10
84.306525
 20
141.424219
 30
0.0
 10
84.235925
 20
141.739639
 30
0.0
 10
84.446575
 20
141.784939
 30
0.0
 10
84.657255
 20
141.830239
 30
0.0
 10
84.591755
 20
142.134739
 30
0.0
 10
84.526255
 20
142.439229
 30
0.0
 10
84.170015
 20
143.329739
 30
0.0
 10
83.813755
 20
144.220239
 30
0.0
 10
83.635705
 20
144.365649
 30
0.0
 10
83.457635
 20
144.511059
 30
0.0
 10
82.772625
 20
144.363939
 30
0.0
 10
82.087615
 20
144.216819
 30
0.0
 10
82.071915
 20
144.397069
 30
0.0
 10
82.056215
 20
144.577329
 30
0.0
  0
LWPOLYLINE
  5
1ad
100
AcDbEntity
  8
1
 62
7
100
AcDbPolyline
 90
46
 70
1
 10
86.528686
 20
126.805198
 30
0.0
 10
87.228916
 20
126.955568
 30
0.0
 10
87.331576
 20
127.161268
 30
0.0
 10
87.434236
 20
127.366968
 30
0.0
 10
87.393436
 20
128.325228
 30
0.0
 10
87.352636
 20
129.283478
 30
0.0
 10
87.287236
 20
129.587968
 30
0.0
 10
87.221736
 20
129.892458
 30
0.0
 10
87.011066
 20
129.847158
 30
0.0
 10
86.800416
 20
129.801858
 30
0.0
 10
86.735316
 20
130.118448
 30
0.0
 10
86.670216
 20
130.435048
 30
0.0
 10
86.572116
 20
131.883168
 30
0.0
 10
86.473916
 20
133.331289
 30
0.0
 10
86.455816
 20
133.437609
 30
0.0
 10
86.437716
 20
133.543939
 30
0.0
 10
87.078206
 20
133.681499
 30
0.0
 10
87.718696
 20
133.819059
 30
0.0
 10
87.841956
 20
132.780348
 30
0.0
 10
87.965216
 20
131.741658
 30
0.0
 10
87.707856
 20
131.311048
 30
0.0
 10
87.450496
 20
130.880448
 30
0.0
 10
87.487696
 20
130.706668
 30
0.0
 10
87.524896
 20
130.532898
 30
0.0
 10
88.596166
 20
130.805888
 30
0.0
 10
89.667456
 20
131.078898
 30
0.0
 10
89.695756
 20
132.113398
 30
0.0
 10
89.724056
 20
133.147899
 30
0.0
 10
89.702256
 20
133.694179
 30
0.0
 10
89.680456
 20
134.240439
 30
0.0
 10
89.952116
 20
134.298839
 30
0.0
 10
90.223776
 20
134.357139
 30
0.0
 10
91.434666
 20
134.376539
 30
0.0
 10
92.645586
 20
134.396039
 30
0.0
 10
92.691486
 20
134.372939
 30
0.0
 10
92.737486
 20
134.349739
 30
0.0
 10
91.304526
 20
130.312088
 30
0.0
 10
89.871566
 20
126.274428
 30
0.0
 10
89.465466
 20
125.122058
 30
0.0
 10
89.059366
 20
123.969668
 30
0.0
 10
87.964486
 20
123.734528
 30
0.0
 10
86.869566
 20
123.499358
 30
0.0
 10
86.492416
 20
124.777378
 30
0.0
 10
86.115266
 20
126.055398
 30
0.0
 10
85.971765
 20
126.355148
 30
0.0
 10
85.828265
 20
126.654898
 30
0.0
  0
LWPOLYLINE
  5
1ae
100
AcDbEntity
  8
1
 62
7
100
AcDbPolyline
 90
12
 70
1
 10
86.407276
 20
141.324169
 30
0.0
 10
87.181836
 20
141.490529
 30
0.0
 10
87.502986
 20
140.788169
 30
0.0
 10
87.824136
 20
140.085819
 30
0.0
 10
88.056706
 20
139.437879
 30
0.0
 10
88.289286
 20
138.789969
 30
0.0
 10
87.650176
 20
138.652719
 30
0.0
 10
87.011096
 20
138.515459
 30
0.0
 10
86.679276
 20
139.582829
 30
0.0
 10
86.347456
 20
140.650189
 30
0.0
 10
85.990086
 20
140.903989
 30
0.0
 10
85.632705
 20
141.157809
 30
0.0
  0
LWPOLYLINE
  5
1af
100
AcDbEntity
  8
1
 62
7
100
AcDbPolyline
 90
14
 70
1
 10
88.074796
 20
131.307778
 30
0.0
 10
88.286866
 20
131.602558
 30
0.0
 10
88.144316
 20
132.741218
 30
0.0
 10
88.001776
 20
133.879879
 30
0.0
 10
88.643206
 20
134.017629
 30
0.0
 10
89.284636
 20
134.155389
 30
0.0
 10
89.338636
 20
133.469109
 30
0.0
 10
89.392636
 20
132.782838
 30
0.0
 10
89.387636
 20
132.010528
 30
0.0
 10
89.382636
 20
131.238268
 30
0.0
 10
88.632546
 20
131.077178
 30
0.0
 10
87.882476
 20
130.916078
 30
0.0
 10
87.872076
 20
130.964478
 30
0.0
 10
87.861576
 20
131.012878
 30
0.0
  0
LWPOLYLINE
  5
1b0
100
AcDbEntity
  8
1
 62
7
100
AcDbPolyline
 90
10
 70
1
 10
86.739856
 20
138.065419
 30
0.0
 10
86.813356
 20
138.179159
 30
0.0
 10
87.773046
 20
138.385259
 30
0.0
 10
88.732736
 20
138.591379
 30
0.0
 10
88.898626
 20
137.818959
 30
0.0
 10
89.064506
 20
137.046519
 30
0.0
 10
88.011196
 20
136.820299
 30
0.0
 10
86.957876
 20
136.594079
 30
0.0
 10
86.812106
 20
137.272889
 30
0.0
 10
86.666316
 20
137.951669
 30
0.0
  0
LWPOLYLINE
  5
1b1
100
AcDbEntity
  8
1
 62
7
100
AcDbPolyline
 90
8
 70
1
 10
88.185196
 20
135.976139
 30
0.0
 10
89.245526
 20
136.203869
 30
0.0
 10
89.427806
 20
135.355049
 30
0.0
 10
89.610086
 20
134.506249
 30
0.0
 10
88.583026
 20
134.328839
 30
0.0
 10
87.555966
 20
134.151419
 30
0.0
 10
87.340396
 20
134.949909
 30
0.0
 10
87.124856
 20
135.748409
 30
0.0
  0
LWPOLYLINE
  5
1b2
100
AcDbEntity
  8
1
 62
7
100
AcDbPolyline
 90
8
 70
1
 10
90.809676
 20
138.155909
 30
0.0
 10
91.863006
 20
138.382139
 30
0.0
 10
91.953506
 20
137.960799
 30
0.0
 10
92.043906
 20
137.539469
 30
0.0
 10
90.990596
 20
137.313269
 30
0.0
 10
89.937296
 20
137.087049
 30
0.0
 10
89.846796
 20
137.508369
 30
0.0
 10
89.756296
 20
137.929689
 30
0.0
  0
LWPOLYLINE
  5
1b3
100
AcDbEntity
  8
1
 62
7
100
AcDbPolyline
 90
8
 70
1
 10
91.141476
 20
136.611049
 30
0.0
 10
92.194806
 20
136.837269
 30
0.0
 10
92.285306
 20
136.415929
 30
0.0
 10
92.375806
 20
135.994609
 30
0.0
 10
91.322506
 20
135.768399
 30
0.0
 10
90.269186
 20
135.542169
 30
0.0
 10
90.178686
 20
135.963499
 30
0.0
 10
90.088186
 20
136.384819
 30
0.0
  0
SPLINE
  5
1b4
100
AcDbEntity
  8
1
 62
5
100
AcDbSpline
 70
8
 71
3
 72
8
 73
4
 74
0
 40
0
 40
0
 40
0
 40
0
 40
1
 40
1
 40
1
 40
1
 10
68.898204
 20
58.822814
 30
0.0
 10
69.876544
 20
58.822814
 30
0.0
 10
70.676775
 20
58.893414
 30
0.0
 10
70.676485
 20
58.979764
 30
0.0
  0
SPLINE
  5
1b5
100
AcDbEntity
  8
1
 62
5
100
AcDbSpline
 70
8
 71
3
 72
8
 73
4
 74
0
 40
0
 40
0
 40
0
 40
0
 40
1
 40
1
 40
1
 40
1
 10
70.676485
 20
58.979764
 30
0.0
 10
70.676025
 20
59.127104
 30
0.0
 10
69.752434
 20
62.675514
 30
0.0
 10
69.504504
 20
63.482654
 30
0.0
  0
SPLINE
  5
1b6
100
AcDbEntity
  8
1
 62
5
100
AcDbSpline
 70
8
 71
3
 72
8
 73
4
 74
0
 40
0
 40
0
 40
0
 40
0
 40
1
 40
1
 40
1
 40
1
 10
69.504504
 20
63.482654
 30
0.0
 10
69.399244
 20
63.825334
 30
0.0
 10
69.005494
 20
63.848344
 30
0.0
 10
64.132354
 20
63.796564
 30
0.0
  0
LWPOLYLINE
  5
1b7
100
AcDbEntity
  8
1
 62
5
100
AcDbPolyline
 90
11
 70
0
 10
78.629315
 20
35.384452
 30
0.0
 10
78.629315
 20
38.314242
 30
0.0
 10
80.617385
 20
38.314242
 30
0.0
 10
82.605465
 20
38.314242
 30
0.0
 10
82.605465
 20
45.638733
 30
0.0
 10
82.605465
 20
52.963223
 30
0.0
 10
74.862435
 20
52.963223
 30
0.0
 10
67.119404
 20
52.963223
 30
0.0
 10
67.119404
 20
55.893014
 30
0.0
 10
67.119404
 20
58.822814
 30
0.0
 10
68.898204
 20
58.822814
 30
0.0
  0
SPLINE
  5
1b8
100
AcDbEntity
  8
1
 62
5
100
AcDbSpline
 70
8
 71
3
 72
8
 73
4
 74
0
 40
0
 40
0
 40
0
 40
0
 40
1
 40
1
 40
1
 40
1
 10
58.297754
 20
61.753374
 30
0.0
 10
57.341224
 20
58.453464
 30
0.0
 10
57.245364
 20
58.822794
 30
0.0
 10
59.058474
 20
58.822794
 30
0.0
  0
LWPOLYLINE
  5
1b9
100
AcDbEntity
  8
1
 62
5
100
AcDbPolyline
 90
3
 70
0
 10
64.132354
 20
63.796564
 30
0.0
 10
58.873784
 20
63.740664
 30
0.0
 10
58.297754
 20
61.753374
 30
0.0
  0
SPLINE
  5
1ba
100
AcDbEntity
  8
1
 62
5
100
AcDbSpline
 70
8
 71
3
 72
8
 73
4
 74
0
 40
0
 40
0
 40
0
 40
0
 40
1
 40
1
 40
1
 40
1
 10
72.177805
 20
77.238655
 30
0.0
 10
74.922155
 20
67.973174
 30
0.0
 10
77.264625
 20
60.039184
 30
0.0
 10
77.383305
 20
59.607564
 30
0.0
  0
LWPOLYLINE
  5
1bb
100
AcDbEntity
  8
1
 62
5
100
AcDbPolyline
 90
15
 70
0
 10
59.058474
 20
58.822794
 30
0.0
 10
60.631994
 20
58.822794
 30
0.0
 10
60.631994
 20
55.892994
 30
0.0
 10
60.631994
 20
52.963203
 30
0.0
 10
53.516783
 20
52.963203
 30
0.0
 10
46.401563
 20
52.963203
 30
0.0
 10
46.401563
 20
55.892994
 30
0.0
 10
46.401563
 20
58.822794
 30
0.0
 10
48.546593
 20
58.823234
 30
0.0
 10
50.691623
 20
58.823664
 30
0.0
 10
55.714124
 20
76.508615
 30
0.0
 10
60.736634
 20
94.193576
 30
0.0
 10
63.962364
 20
94.139276
 30
0.0
 10
67.188094
 20
94.084976
 30
0.0
 10
72.177805
 20
77.238655
 30
0.0
  0
SPLINE
  5
1bc
100
AcDbEntity
  8
1
 62
5
100
AcDbSpline
 70
8
 71
3
 72
8
 73
4
 74
0
 40
0
 40
0
 40
0
 40
0
 40
1
 40
1
 40
1
 40
1
 10
67.692614
 20
69.757224
 30
0.0
 10
67.638014
 20
69.901104
 30
0.0
 10
66.714984
 20
72.868075
 30
0.0
 10
65.641554
 20
76.350525
 30
0.0
  0
SPLINE
  5
1bd
100
AcDbEntity
  8
1
 62
5
100
AcDbSpline
 70
8
 71
3
 72
8
 73
4
 74
0
 40
0
 40
0
 40
0
 40
0
 40
1
 40
1
 40
1
 40
1
 10
65.641554
 20
76.350525
 30
0.0
 10
64.568134
 20
79.832955
 30
0.0
 10
63.622904
 20
82.611035
 30
0.0
 10
63.541054
 20
82.524015
 30
0.0
  0
SPLINE
  5
1be
100
AcDbEntity
  8
1
 62
5
100
AcDbSpline
 70
8
 71
3
 72
8
 73
4
 74
0
 40
0
 40
0
 40
0
 40
0
 40
1
 40
1
 40
1
 40
1
 10
63.541054
 20
82.524015
 30
0.0
 10
63.413384
 20
82.388285
 30
0.0
 10
60.004184
 20
69.945114
 30
0.0
 10
60.004184
 20
69.614844
 30
0.0
  0
SPLINE
  5
1bf
100
AcDbEntity
  8
1
 62
5
100
AcDbSpline
 70
8
 71
3
 72
8
 73
4
 74
0
 40
0
 40
0
 40
0
 40
0
 40
1
 40
1
 40
1
 40
1
 10
60.004184
 20
69.614844
 30
0.0
 10
60.004184
 20
69.549344
 30
0.0
 10
61.756444
 20
69.495634
 30
0.0
 10
63.898094
 20
69.495634
 30
0.0
  0
SPLINE
  5
1c0
100
AcDbEntity
  8
1
 62
5
100
AcDbSpline
 70
8
 71
3
 72
8
 73
4
 74
0
 40
0
 40
0
 40
0
 40
0
 40
1
 40
1
 40
1
 40
1
 10
63.898094
 20
69.495634
 30
0.0
 10
66.926694
 20
69.495634
 30
0.0
 10
67.769914
 20
69.553734
 30
0.0
 10
67.692614
 20
69.757224
 30
0.0
  0
LWPOLYLINE
  5
1c1
100
AcDbEntity
  8
1
 62
5
100
AcDbPolyline
 90
45
 70
0
 10
77.383305
 20
59.607564
 30
0.0
 10
77.599085
 20
58.822794
 30
0.0
 10
80.102275
 20
58.822794
 30
0.0
 10
82.605465
 20
58.822794
 30
0.0
 10
82.605465
 20
64.368514
 30
0.0
 10
82.605465
 20
69.914194
 30
0.0
 10
80.617385
 20
69.914194
 30
0.0
 10
78.629315
 20
69.914194
 30
0.0
 10
78.629315
 20
72.843995
 30
0.0
 10
78.629315
 20
75.773785
 30
0.0
 10
93.382916
 20
75.773785
 30
0.0
 10
108.136537
 20
75.773785
 30
0.0
 10
108.136537
 20
70.751275
 30
0.0
 10
108.136537
 20
65.728774
 30
0.0
 10
105.206737
 20
65.728774
 30
0.0
 10
102.276947
 20
65.728774
 30
0.0
 10
102.276947
 20
67.821484
 30
0.0
 10
102.276947
 20
69.914194
 30
0.0
 10
95.580266
 20
69.914194
 30
0.0
 10
88.883596
 20
69.914194
 30
0.0
 10
88.883596
 20
64.368514
 30
0.0
 10
88.883596
 20
58.822834
 30
0.0
 10
93.173646
 20
58.822834
 30
0.0
 10
97.463706
 20
58.822834
 30
0.0
 10
97.463706
 20
60.078454
 30
0.0
 10
97.463706
 20
61.334074
 30
0.0
 10
99.974966
 20
61.334074
 30
0.0
 10
102.486217
 20
61.334074
 30
0.0
 10
102.486217
 20
55.893034
 30
0.0
 10
102.486217
 20
50.451983
 30
0.0
 10
99.974966
 20
50.451983
 30
0.0
 10
97.463706
 20
50.451983
 30
0.0
 10
97.463706
 20
51.707613
 30
0.0
 10
97.463706
 20
52.963243
 30
0.0
 10
93.173646
 20
52.963243
 30
0.0
 10
88.883596
 20
52.963243
 30
0.0
 10
88.883596
 20
45.638753
 30
0.0
 10
88.883596
 20
38.314262
 30
0.0
 10
90.871666
 20
38.314262
 30
0.0
 10
92.859746
 20
38.314262
 30
0.0
 10
92.859746
 20
35.384472
 30
0.0
 10
92.859746
 20
32.454672
 30
0.0
 10
85.744525
 20
32.454672
 30
0.0
 10
78.629315
 20
32.454672
 30
0.0
 10
78.629315
 20
35.384452
 30
0.0
  0
LWPOLYLINE
  5
1c2
100
AcDbEntity
  8
1
 62
5
100
AcDbPolyline
 90
1
 70
1
 10
67.692614
 20
69.757224
 30
0.0
  0
ENDSEC
  0
SECTION
  2
OBJECTS
  0
DICTIONARY
  5
C
330
0
100
AcDbDictionary
  3
ACAD_GROUP
350
D
  3
ACAD_MLINESTYLE
350
17
  0
DICTIONARY
  5
D
330
C
100
AcDbDictionary
  0
DICTIONARY
  5
1A
330
C
100
AcDbDictionary
  0
DICTIONARY
  5
17
330
C
100
AcDbDictionary
  3
STANDARD
350
18
  0
DICTIONARY
  5
19
330
C
100
AcDbDictionary
  0
ENDSEC
  0
EOF
