999
"DXF R12 Output" (www.mydxf.blogspot.com)
 0 
SECTION
 2 
HEADER
 9 
$ACADVER
 1 
AC1009
 9 
$EXTMIN
 10 
 0 
 20 
 0 
 9 
$EXTMAX
 10 
 8.5 
 20 
 11 
 0 
ENDSEC
 0 
SECTION
 2 
ENTITIES
0
LINE
8
Layer_1
10
38.543658
20
0.000291
11
47.494765
21
11.356193
0
LINE
8
Layer_1
10
47.494765
20
11.356193
11
57.653165
21
23.442345
0
LINE
8
Layer_1
10
57.653165
20
23.442345
11
63.047483
21
29.533045
0
LINE
8
Layer_1
10
63.047483
20
29.533045
11
68.578326
21
35.534317
0
LINE
8
Layer_1
10
68.578326
20
35.534317
11
74.190925
21
41.354878
0
LINE
8
Layer_1
10
74.190925
20
41.354878
11
79.829718
21
46.903978
0
LINE
8
Layer_1
10
79.829718
20
46.903978
11
85.440201
21
52.091392
0
LINE
8
Layer_1
10
85.440201
20
52.091392
11
90.966546
21
56.825840
0
LINE
8
Layer_1
10
90.966546
20
56.825840
11
96.354514
21
61.016835
0
LINE
8
Layer_1
10
96.354514
20
61.016835
11
101.548278
21
64.573624
0
LINE
8
Layer_1
10
101.548278
20
64.573624
11
106.493335
21
67.405191
0
LINE
8
Layer_1
10
106.493335
20
67.405191
11
108.855267
21
68.520673
0
LINE
8
Layer_1
10
108.855267
20
68.520673
11
111.134120
21
69.421049
0
LINE
8
Layer_1
10
111.134120
20
69.421049
11
113.323280
21
70.094413
0
LINE
8
Layer_1
10
113.323280
20
70.094413
11
115.415867
21
70.530181
0
LINE
8
Layer_1
10
115.415867
20
70.530181
11
117.405002
21
70.716183
0
LINE
8
Layer_1
10
117.405002
20
70.716183
11
119.283541
21
70.641835
0
LINE
8
Layer_1
10
119.283541
20
70.641835
11
120.583173
21
70.365875
0
LINE
8
Layer_1
10
120.583173
20
70.365875
11
121.914290
21
69.842265
0
LINE
8
Layer_1
10
121.914290
20
69.842265
11
123.272659
21
69.085558
0
LINE
8
Layer_1
10
123.272659
20
69.085558
11
124.654047
21
68.110834
0
LINE
8
Layer_1
10
124.654047
20
68.110834
11
127.470533
21
65.566075
0
LINE
8
Layer_1
10
127.470533
20
65.566075
11
130.331205
21
62.327314
0
LINE
8
Layer_1
10
130.331205
20
62.327314
11
133.203782
21
58.512557
0
LINE
8
Layer_1
10
133.203782
20
58.512557
11
136.055458
21
54.241393
0
LINE
8
Layer_1
10
136.055458
20
54.241393
11
138.854481
21
49.631828
0
LINE
8
Layer_1
10
138.854481
20
49.631828
11
141.568045
21
44.803189
0
LINE
8
Layer_1
10
141.568045
20
44.803189
11
146.609674
21
34.963611
0
LINE
8
Layer_1
10
146.609674
20
34.963611
11
150.921318
21
25.672779
0
LINE
8
Layer_1
10
150.921318
20
25.672779
11
154.243422
21
17.880810
0
LINE
8
Layer_1
10
154.243422
20
17.880810
11
156.317488
21
12.536233
0
LINE
8
Layer_1
10
156.317488
20
12.536233
11
155.126865
21
21.672284
0
LINE
8
Layer_1
10
155.126865
20
21.672284
11
153.641761
21
31.596793
0
LINE
8
Layer_1
10
153.641761
20
31.596793
11
151.854502
21
42.191754
0
LINE
8
Layer_1
10
151.854502
20
42.191754
11
149.757418
21
53.337842
0
LINE
8
Layer_1
10
149.757418
20
53.337842
11
147.343627
21
64.915994
0
LINE
8
Layer_1
10
147.343627
20
64.915994
11
144.605457
21
76.807148
0
LINE
8
Layer_1
10
144.605457
20
76.807148
11
141.535501
21
88.892506
0
LINE
8
Layer_1
10
141.535501
20
88.892506
11
138.126613
21
101.052476
0
LINE
8
Layer_1
10
138.126613
20
101.052476
11
134.370858
21
113.168525
0
LINE
8
Layer_1
10
134.370858
20
113.168525
11
130.261355
21
125.121327
0
LINE
8
Layer_1
10
130.261355
20
125.121327
11
125.790696
21
136.791819
0
LINE
8
Layer_1
10
125.790696
20
136.791819
11
120.951208
21
148.060938
0
LINE
8
Layer_1
10
120.951208
20
148.060938
11
118.390838
21
153.507643
0
LINE
8
Layer_1
10
118.390838
20
153.507643
11
115.735483
21
158.809622
0
LINE
8
Layer_1
10
115.735483
20
158.809622
11
112.984349
21
163.951528
0
LINE
8
Layer_1
10
112.984349
20
163.951528
11
110.136378
21
168.918809
0
LINE
8
Layer_1
10
110.136378
20
168.918809
11
107.190775
21
173.696385
0
LINE
8
Layer_1
10
107.190775
20
173.696385
11
104.146219
21
178.269702
0
LINE
8
Layer_1
10
104.146219
20
178.269702
11
101.002444
21
182.623415
0
LINE
8
Layer_1
10
101.002444
20
182.623415
11
97.757862
21
186.742708
0
LINE
8
Layer_1
10
97.757862
20
186.742708
11
90.901988
21
176.036357
0
LINE
8
Layer_1
10
90.901988
20
176.036357
11
84.454100
21
164.979168
0
LINE
8
Layer_1
10
84.454100
20
164.979168
11
78.416580
21
153.619033
0
LINE
8
Layer_1
10
78.416580
20
153.619033
11
72.792340
21
142.003310
0
LINE
8
Layer_1
10
72.792340
20
142.003310
11
67.584023
21
130.179889
0
LINE
8
Layer_1
10
67.584023
20
130.179889
11
62.794806
21
118.195867
0
LINE
8
Layer_1
10
62.794806
20
118.195867
11
58.426806
21
106.099132
0
LINE
8
Layer_1
10
58.426806
20
106.099132
11
54.483461
21
93.937045
0
LINE
8
Layer_1
10
54.483461
20
93.937045
11
50.967152
21
81.757232
0
LINE
8
Layer_1
10
50.967152
20
81.757232
11
47.880527
21
69.607580
0
LINE
8
Layer_1
10
47.880527
20
69.607580
11
45.226760
21
57.535187
0
LINE
8
Layer_1
10
45.226760
20
57.535187
11
43.008231
21
45.587942
0
LINE
8
Layer_1
10
43.008231
20
45.587942
11
41.228117
21
33.813204
0
LINE
8
Layer_1
10
41.228117
20
33.813204
11
39.888533
21
22.259659
0
LINE
8
Layer_1
10
39.888533
20
22.259659
11
38.992920
21
10.972548
0
LINE
8
Layer_1
10
38.992920
20
10.972548
11
38.543658
21
0.000291
0
LINE
8
Layer_1
10
46.094063
20
20.079495
11
49.388650
21
24.201698
0
LINE
8
Layer_1
10
49.388650
20
24.201698
11
54.168078
21
29.625649
0
LINE
8
Layer_1
10
54.168078
20
29.625649
11
60.128074
21
35.983314
0
LINE
8
Layer_1
10
60.128074
20
35.983314
11
66.964899
21
42.904012
0
LINE
8
Layer_1
10
66.964899
20
42.904012
11
74.374810
21
50.018384
0
LINE
8
Layer_1
10
74.374810
20
50.018384
11
82.053538
21
56.956544
0
LINE
8
Layer_1
10
82.053538
20
56.956544
11
89.697606
21
63.348869
0
LINE
8
Layer_1
10
89.697606
20
63.348869
11
93.411557
21
66.224887
0
LINE
8
Layer_1
10
93.411557
20
66.224887
11
97.002742
21
68.825737
0
LINE
8
Layer_1
10
97.002742
20
68.825737
11
100.897669
21
71.308320
0
LINE
8
Layer_1
10
100.897669
20
71.308320
11
104.574579
21
73.214111
0
LINE
8
Layer_1
10
104.574579
20
73.214111
11
108.035324
21
74.589678
0
LINE
8
Layer_1
10
108.035324
20
74.589678
11
111.281758
21
75.482381
0
LINE
8
Layer_1
10
111.281758
20
75.482381
11
114.315731
21
75.938787
0
LINE
8
Layer_1
10
114.315731
20
75.938787
11
117.138832
21
76.005991
0
LINE
8
Layer_1
10
117.138832
20
76.005991
11
119.752912
21
75.731354
0
LINE
8
Layer_1
10
119.752912
20
75.731354
11
122.159823
21
75.161442
0
LINE
8
Layer_1
10
122.159823
20
75.161442
11
123.534596
21
74.657147
0
LINE
8
Layer_1
10
123.534596
20
74.657147
11
124.862009
21
74.003362
0
LINE
8
Layer_1
10
124.862009
20
74.003362
11
127.459685
21
72.258173
0
LINE
8
Layer_1
10
127.459685
20
72.258173
11
130.121126
21
69.949686
0
LINE
8
Layer_1
10
130.121126
20
69.949686
11
133.014605
21
67.101715
0
LINE
8
Layer_1
10
133.014605
20
67.101715
11
134.476956
21
65.480085
0
LINE
8
Layer_1
10
134.476956
20
65.480085
11
135.953858
21
63.600752
0
LINE
8
Layer_1
10
135.953858
20
63.600752
11
139.010850
21
59.212908
0
LINE
8
Layer_1
10
139.010850
20
59.212908
11
142.303850
21
54.223666
0
LINE
8
Layer_1
10
142.303850
20
54.223666
11
145.952449
21
48.919042
0
LINE
8
Layer_1
10
145.952449
20
48.919042
11
144.212816
21
57.541273
0
LINE
8
Layer_1
10
144.212816
20
57.541273
11
142.287446
21
66.274099
0
LINE
8
Layer_1
10
142.287446
20
66.274099
11
140.180042
21
75.079950
0
LINE
8
Layer_1
10
140.180042
20
75.079950
11
137.893516
21
83.922050
0
LINE
8
Layer_1
10
137.893516
20
83.922050
11
135.431836
21
92.762826
0
LINE
8
Layer_1
10
135.431836
20
92.762826
11
132.798441
21
101.564973
0
LINE
8
Layer_1
10
132.798441
20
101.564973
11
129.996242
21
110.291185
0
LINE
8
Layer_1
10
129.996242
20
110.291185
11
127.028944
21
118.904420
0
LINE
8
Layer_1
10
127.028944
20
118.904420
11
123.899986
21
127.367107
0
LINE
8
Layer_1
10
123.899986
20
127.367107
11
120.612806
21
135.642205
0
LINE
8
Layer_1
10
120.612806
20
135.642205
11
117.170846
21
143.692408
0
LINE
8
Layer_1
10
117.170846
20
143.692408
11
113.577544
21
151.480408
0
LINE
8
Layer_1
10
113.577544
20
151.480408
11
109.836076
21
158.968901
0
LINE
8
Layer_1
10
109.836076
20
158.968901
11
105.950146
21
166.120315
0
LINE
8
Layer_1
10
105.950146
20
166.120315
11
101.922928
21
172.897873
0
LINE
8
Layer_1
10
101.922928
20
172.897873
11
97.757862
21
179.264269
0
LINE
8
Layer_1
10
97.757862
20
179.264269
11
92.931339
21
170.811901
0
LINE
8
Layer_1
10
92.931339
20
170.811901
11
88.241605
21
161.939903
0
LINE
8
Layer_1
10
88.241605
20
161.939903
11
83.705065
21
152.695109
0
LINE
8
Layer_1
10
83.705065
20
152.695109
11
79.338123
21
143.125142
0
LINE
8
Layer_1
10
79.338123
20
143.125142
11
75.157182
21
133.276833
0
LINE
8
Layer_1
10
75.157182
20
133.276833
11
71.178119
21
123.197544
0
LINE
8
Layer_1
10
71.178119
20
123.197544
11
67.417865
21
112.934369
0
LINE
8
Layer_1
10
67.417865
20
112.934369
11
63.892032
21
102.534670
0
LINE
8
Layer_1
10
63.892032
20
102.534670
11
60.617553
21
92.045277
0
LINE
8
Layer_1
10
60.617553
20
92.045277
11
57.610302
21
81.513815
0
LINE
8
Layer_1
10
57.610302
20
81.513815
11
54.886685
21
70.987116
0
LINE
8
Layer_1
10
54.886685
20
70.987116
11
52.463105
21
60.512804
0
LINE
8
Layer_1
10
52.463105
20
60.512804
11
50.355701
21
50.137446
0
LINE
8
Layer_1
10
50.355701
20
50.137446
11
48.580878
21
39.908668
0
LINE
8
Layer_1
10
48.580878
20
39.908668
11
47.154776
21
29.874357
0
LINE
8
Layer_1
10
47.154776
20
29.874357
11
46.094063
21
20.079495
0
LINE
8
Layer_1
10
58.176510
20
42.276156
11
58.727372
21
41.889865
0
LINE
8
Layer_1
10
58.727372
20
41.889865
11
59.337765
21
41.758103
0
LINE
8
Layer_1
10
59.337765
20
41.758103
11
59.955302
21
41.894098
0
LINE
8
Layer_1
10
59.955302
20
41.894098
11
60.526801
21
42.310023
0
LINE
8
Layer_1
10
60.526801
20
42.310023
11
60.992467
21
42.941583
0
LINE
8
Layer_1
10
60.992467
20
42.941583
11
61.162329
21
43.590605
0
LINE
8
Layer_1
10
61.162329
20
43.590605
11
61.039563
21
44.227721
0
LINE
8
Layer_1
10
61.039563
20
44.227721
11
60.627607
21
44.805834
0
LINE
8
Layer_1
10
52.659954
20
45.451946
11
53.792105
21
46.599972
0
LINE
8
Layer_1
10
53.792105
20
46.599972
11
58.176510
21
42.276156
0
LINE
8
Layer_1
10
61.848128
20
45.866812
11
62.572292
21
44.821709
0
LINE
8
Layer_1
10
62.572292
20
44.821709
11
62.749298
21
43.654369
0
LINE
8
Layer_1
10
62.749298
20
43.654369
11
62.404546
21
42.456867
0
LINE
8
Layer_1
10
62.404546
20
42.456867
11
61.555235
21
41.313074
0
LINE
8
Layer_1
10
61.555235
20
41.313074
11
60.433403
21
40.451327
0
LINE
8
Layer_1
10
60.433403
20
40.451327
11
59.287759
21
40.117688
0
LINE
8
Layer_1
10
59.287759
20
40.117688
11
58.166191
21
40.322740
0
LINE
8
Layer_1
10
58.166191
20
40.322740
11
57.106272
21
41.067277
0
LINE
8
Layer_1
10
60.627607
20
44.805834
11
56.265427
21
49.107954
0
LINE
8
Layer_1
10
56.265427
20
49.107954
11
57.397578
21
50.255715
0
LINE
8
Layer_1
10
57.397578
20
50.255715
11
61.848128
21
45.866812
0
LINE
8
Layer_1
10
57.106272
20
41.067277
11
52.659954
21
45.451946
0
LINE
8
Layer_1
10
64.732348
20
47.660156
11
65.749669
21
47.998557
0
LINE
8
Layer_1
10
65.749669
20
47.998557
11
66.514050
21
48.557092
0
LINE
8
Layer_1
10
66.514050
20
48.557092
11
66.897959
21
49.049481
0
LINE
8
Layer_1
10
66.897959
20
49.049481
11
67.069938
21
49.499008
0
LINE
8
Layer_1
10
67.069938
20
49.499008
11
67.029457
21
49.905672
0
LINE
8
Layer_1
10
67.029457
20
49.905672
11
66.776516
21
50.269473
0
LINE
8
Layer_1
10
66.776516
20
50.269473
11
66.390225
21
50.522415
0
LINE
8
Layer_1
10
66.390225
20
50.522415
11
65.903921
21
50.639360
0
LINE
8
Layer_1
10
65.903921
20
50.639360
11
65.226589
21
50.576390
0
LINE
8
Layer_1
10
65.226589
20
50.576390
11
64.267211
21
50.289582
0
LINE
8
Layer_1
10
64.267211
20
50.289582
11
62.671775
21
49.866249
0
LINE
8
Layer_1
10
62.671775
20
49.866249
11
61.703401
21
50.018913
0
LINE
8
Layer_1
10
61.703401
20
50.018913
11
60.825780
21
50.590413
0
LINE
8
Layer_1
10
60.825780
20
50.590413
11
60.260895
21
51.395274
0
LINE
8
Layer_1
10
60.260895
20
51.395274
11
60.091562
21
52.354123
0
LINE
8
Layer_1
10
60.091562
20
52.354123
11
60.324659
21
53.352924
0
LINE
8
Layer_1
10
60.324659
20
53.352924
11
60.958865
21
54.269175
0
LINE
8
Layer_1
10
60.958865
20
54.269175
11
62.008466
21
55.155528
0
LINE
8
Layer_1
10
62.008466
20
55.155528
11
62.981866
21
55.535998
0
LINE
8
Layer_1
10
65.366818
20
46.231937
11
64.732348
21
47.660156
0
LINE
8
Layer_1
10
63.648616
20
54.222608
11
62.716490
21
53.905638
0
LINE
8
Layer_1
10
62.716490
20
53.905638
11
61.971953
21
53.345515
0
LINE
8
Layer_1
10
61.971953
20
53.345515
11
61.683293
21
52.935147
0
LINE
8
Layer_1
10
61.683293
20
52.935147
11
61.587779
21
52.511814
0
LINE
8
Layer_1
10
61.587779
20
52.511814
11
61.673768
21
52.114940
0
LINE
8
Layer_1
10
61.673768
20
52.114940
11
61.929884
21
51.765426
0
LINE
8
Layer_1
10
61.929884
20
51.765426
11
62.289982
21
51.571486
0
LINE
8
Layer_1
10
62.289982
20
51.571486
11
62.805125
21
51.528359
0
LINE
8
Layer_1
10
62.805125
20
51.528359
11
64.299754
21
51.895600
0
LINE
8
Layer_1
10
64.299754
20
51.895600
11
65.803909
21
52.277394
0
LINE
8
Layer_1
10
65.803909
20
52.277394
11
66.860389
21
52.118115
0
LINE
8
Layer_1
10
66.860389
20
52.118115
11
67.808919
21
51.504282
0
LINE
8
Layer_1
10
67.808919
20
51.504282
11
68.385974
21
50.651531
0
LINE
8
Layer_1
10
68.385974
20
50.651531
11
68.519853
21
49.617276
0
LINE
8
Layer_1
10
68.519853
20
49.617276
11
68.204735
21
48.512378
0
LINE
8
Layer_1
10
68.204735
20
48.512378
11
67.426332
21
47.438171
0
LINE
8
Layer_1
10
67.426332
20
47.438171
11
66.472510
21
46.676701
0
LINE
8
Layer_1
10
66.472510
20
46.676701
11
65.366818
21
46.231937
0
LINE
8
Layer_1
10
62.981866
20
55.535998
11
63.648616
21
54.222608
0
LINE
8
Layer_1
10
75.170412
20
55.621458
11
73.396383
21
56.449074
0
LINE
8
Layer_1
10
73.396383
20
56.449074
11
71.201931
21
54.241129
0
LINE
8
Layer_1
10
71.201931
20
54.241129
11
72.062355
21
52.494087
0
LINE
8
Layer_1
10
72.062355
20
52.494087
11
70.798971
21
51.223030
0
LINE
8
Layer_1
10
70.798971
20
51.223030
11
66.820437
21
60.283146
0
LINE
8
Layer_1
10
66.820437
20
60.283146
11
67.318911
21
60.784531
0
LINE
8
Layer_1
10
67.318911
20
60.784531
11
76.425064
21
56.883784
0
LINE
8
Layer_1
10
76.425064
20
56.883784
11
75.170412
21
55.621458
0
LINE
8
Layer_1
10
75.170412
20
55.621458
11
75.170412
21
55.621458
0
LINE
8
Layer_1
10
69.040023
20
58.575527
11
70.650276
21
55.436515
0
LINE
8
Layer_1
10
70.650276
20
55.436515
11
72.188826
21
56.984854
0
LINE
8
Layer_1
10
72.188826
20
56.984854
11
69.040023
21
58.575527
0
LINE
8
Layer_1
10
69.040023
20
58.575527
11
69.040023
21
58.575527
0
LINE
8
Layer_1
10
74.073715
20
65.177932
11
75.516222
21
63.614775
0
LINE
8
Layer_1
10
75.516222
20
63.614775
11
77.863073
21
65.780652
0
LINE
8
Layer_1
10
77.863073
20
65.780652
11
78.792553
21
64.773649
0
LINE
8
Layer_1
10
78.792553
20
64.773649
11
76.445702
21
62.607772
0
LINE
8
Layer_1
10
76.445702
20
62.607772
11
79.263511
21
59.554485
0
LINE
8
Layer_1
10
79.263511
20
59.554485
11
78.078708
21
58.460963
0
LINE
8
Layer_1
10
78.078708
20
58.460963
11
71.917364
21
65.136921
0
LINE
8
Layer_1
10
71.917364
20
65.136921
11
76.314733
21
69.195624
0
LINE
8
Layer_1
10
76.314733
20
69.195624
11
77.286282
21
68.142849
0
LINE
8
Layer_1
10
77.286282
20
68.142849
11
74.073715
21
65.177932
0
LINE
8
Layer_1
10
74.073715
20
65.177932
11
74.073715
21
65.177932
0
LINE
8
Layer_1
10
88.149001
20
67.196171
11
86.474191
21
68.209788
0
LINE
8
Layer_1
10
86.474191
20
68.209788
11
84.055373
21
66.250287
0
LINE
8
Layer_1
10
84.055373
20
66.250287
11
84.723181
21
64.420960
0
LINE
8
Layer_1
10
84.723181
20
64.420960
11
83.330680
21
63.292778
0
LINE
8
Layer_1
10
83.330680
20
63.292778
11
80.348036
21
72.727808
0
LINE
8
Layer_1
10
80.348036
20
72.727808
11
80.897311
21
73.172836
0
LINE
8
Layer_1
10
80.897311
20
73.172836
11
89.531977
21
68.316680
0
LINE
8
Layer_1
10
89.531977
20
68.316680
11
88.149001
21
67.196171
0
LINE
8
Layer_1
10
88.149001
20
67.196171
11
88.149001
21
67.196171
0
LINE
8
Layer_1
10
82.371567
20
70.791589
11
83.635215
21
67.497795
0
LINE
8
Layer_1
10
83.635215
20
67.497795
11
85.331192
21
68.872039
0
LINE
8
Layer_1
10
85.331192
20
68.872039
11
82.371567
21
70.791589
0
LINE
8
Layer_1
10
82.371567
20
70.791589
11
82.371567
21
70.791589
0
LINE
8
Layer_1
10
101.529758
20
75.468887
11
100.113180
21
76.820113
0
LINE
8
Layer_1
10
100.113180
20
76.820113
11
97.328179
21
75.429200
0
LINE
8
Layer_1
10
97.328179
20
75.429200
11
97.585354
21
73.499067
0
LINE
8
Layer_1
10
97.585354
20
73.499067
11
95.981981
21
72.698174
0
LINE
8
Layer_1
10
95.981981
20
72.698174
11
95.107534
21
82.554685
0
LINE
8
Layer_1
10
95.107534
20
82.554685
11
95.739888
21
82.870597
0
LINE
8
Layer_1
10
95.739888
20
82.870597
11
103.122018
21
76.264224
0
LINE
8
Layer_1
10
103.122018
20
76.264224
11
101.529758
21
75.468887
0
LINE
8
Layer_1
10
101.529758
20
75.468887
11
101.529758
21
75.468887
0
LINE
8
Layer_1
10
96.664870
20
80.227413
11
97.187421
21
76.738357
0
LINE
8
Layer_1
10
97.187421
20
76.738357
11
99.140308
21
77.713610
0
LINE
8
Layer_1
10
99.140308
20
77.713610
11
96.664870
21
80.227413
0
LINE
8
Layer_1
10
96.664870
20
80.227413
11
96.664870
21
80.227413
0
LINE
8
Layer_1
10
104.944201
20
78.918256
11
105.990627
21
78.684629
0
LINE
8
Layer_1
10
105.990627
20
78.684629
11
106.933336
21
78.769560
0
LINE
8
Layer_1
10
106.933336
20
78.769560
11
107.516212
21
78.993927
0
LINE
8
Layer_1
10
107.516212
20
78.993927
11
107.894831
21
79.290789
0
LINE
8
Layer_1
10
107.894831
20
79.290789
11
108.069720
21
79.660147
0
LINE
8
Layer_1
10
108.069720
20
79.660147
11
108.040351
21
80.102265
0
LINE
8
Layer_1
10
108.040351
20
80.102265
11
107.839533
21
80.518189
0
LINE
8
Layer_1
10
107.839533
20
80.518189
11
107.482875
21
80.868762
0
LINE
8
Layer_1
10
107.482875
20
80.868762
11
106.869836
21
81.163507
0
LINE
8
Layer_1
10
106.869836
20
81.163507
11
105.899875
21
81.411951
0
LINE
8
Layer_1
10
105.899875
20
81.411951
11
104.314229
21
81.870738
0
LINE
8
Layer_1
10
104.314229
20
81.870738
11
103.562813
21
82.500445
0
LINE
8
Layer_1
10
103.562813
20
82.500445
11
103.104820
21
83.442096
0
LINE
8
Layer_1
10
103.104820
20
83.442096
11
103.035235
21
84.422905
0
LINE
8
Layer_1
10
103.035235
20
84.422905
11
103.383691
21
85.332013
0
LINE
8
Layer_1
10
103.383691
20
85.332013
11
104.098065
21
86.068347
0
LINE
8
Layer_1
10
104.098065
20
86.068347
11
105.113534
21
86.526869
0
LINE
8
Layer_1
10
105.113534
20
86.526869
11
106.469787
21
86.746209
0
LINE
8
Layer_1
10
106.469787
20
86.746209
11
107.500073
21
86.570790
0
LINE
8
Layer_1
10
104.752378
20
77.367535
11
104.944201
21
78.918256
0
LINE
8
Layer_1
10
107.395298
20
85.101561
11
106.433010
21
85.310317
0
LINE
8
Layer_1
10
106.433010
20
85.310317
11
105.506175
21
85.213479
0
LINE
8
Layer_1
10
105.506175
20
85.213479
11
105.047388
21
85.010544
0
LINE
8
Layer_1
10
105.047388
20
85.010544
11
104.747616
21
84.696749
0
LINE
8
Layer_1
10
104.747616
20
84.696749
11
104.616912
21
84.312045
0
LINE
8
Layer_1
10
104.616912
20
84.312045
11
104.656599
21
83.880775
0
LINE
8
Layer_1
10
104.656599
20
83.880775
11
104.865091
21
83.528879
0
LINE
8
Layer_1
10
104.865091
20
83.528879
11
105.284455
21
83.226726
0
LINE
8
Layer_1
10
105.284455
20
83.226726
11
106.754743
21
82.771907
0
LINE
8
Layer_1
10
106.754743
20
82.771907
11
108.240905
21
82.324233
0
LINE
8
Layer_1
10
108.240905
20
82.324233
11
109.064288
21
81.643461
0
LINE
8
Layer_1
10
109.064288
20
81.643461
11
109.561174
21
80.628785
0
LINE
8
Layer_1
10
109.561174
20
80.628785
11
109.616737
21
79.600880
0
LINE
8
Layer_1
10
109.616737
20
79.600880
11
109.198960
21
78.645471
0
LINE
8
Layer_1
10
109.198960
20
78.645471
11
108.359703
21
77.860453
0
LINE
8
Layer_1
10
108.359703
20
77.860453
11
107.138917
21
77.340548
0
LINE
8
Layer_1
10
107.138917
20
77.340548
11
105.929508
21
77.179152
0
LINE
8
Layer_1
10
105.929508
20
77.179152
11
104.752378
21
77.367535
0
LINE
8
Layer_1
10
107.500073
20
86.570790
11
107.395298
21
85.101561
0
LINE
8
Layer_1
10
114.591426
20
86.442732
11
115.034338
21
78.803427
0
LINE
8
Layer_1
10
115.034338
20
78.803427
11
113.424880
21
78.710029
0
LINE
8
Layer_1
10
113.424880
20
78.710029
11
112.981703
21
86.349334
0
LINE
8
Layer_1
10
112.981703
20
86.349334
11
110.096690
21
86.182118
0
LINE
8
Layer_1
10
110.096690
20
86.182118
11
110.013876
21
87.612189
0
LINE
8
Layer_1
10
110.013876
20
87.612189
11
117.523271
21
88.047692
0
LINE
8
Layer_1
10
117.523271
20
88.047692
11
117.606085
21
86.617621
0
LINE
8
Layer_1
10
117.606085
20
86.617621
11
114.591426
21
86.442732
0
LINE
8
Layer_1
10
114.591426
20
86.442732
11
114.591426
21
86.442732
0
LINE
8
Layer_1
10
122.272271
20
81.948790
11
121.279556
21
82.200408
0
LINE
8
Layer_1
10
123.879877
20
77.781078
11
122.272271
21
81.948790
0
LINE
8
Layer_1
10
120.720492
20
87.720403
11
121.755276
21
87.548689
0
LINE
8
Layer_1
10
121.755276
20
87.548689
11
123.204132
21
87.297335
0
LINE
8
Layer_1
10
123.204132
20
87.297335
11
124.651930
21
86.824261
0
LINE
8
Layer_1
10
124.651930
20
86.824261
11
125.607869
21
86.111739
0
LINE
8
Layer_1
10
125.607869
20
86.111739
11
126.072212
21
85.159769
0
LINE
8
Layer_1
10
126.072212
20
85.159769
11
126.044431
21
83.968352
0
LINE
8
Layer_1
10
126.044431
20
83.968352
11
125.770323
21
83.238632
0
LINE
8
Layer_1
10
125.770323
20
83.238632
11
125.277140
21
82.627180
0
LINE
8
Layer_1
10
125.277140
20
82.627180
11
124.633410
21
82.183475
0
LINE
8
Layer_1
10
124.633410
20
82.183475
11
123.908188
21
81.956198
0
LINE
8
Layer_1
10
121.279556
20
82.200408
11
120.504857
21
78.485134
0
LINE
8
Layer_1
10
120.504857
20
78.485134
11
118.865765
21
78.826975
0
LINE
8
Layer_1
10
118.865765
20
78.826975
11
120.720492
21
87.720403
0
LINE
8
Layer_1
10
123.908188
20
81.956198
11
125.701002
21
77.401402
0
LINE
8
Layer_1
10
125.701002
20
77.401402
11
123.879877
21
77.781078
0
LINE
8
Layer_1
10
121.558161
20
83.535759
11
122.218296
21
83.360075
0
LINE
8
Layer_1
10
122.218296
20
83.360075
11
123.088774
21
83.251332
0
LINE
8
Layer_1
10
123.088774
20
83.251332
11
123.721392
21
83.338115
0
LINE
8
Layer_1
10
123.721392
20
83.338115
11
124.153192
21
83.677046
0
LINE
8
Layer_1
10
124.153192
20
83.677046
11
124.409308
21
84.328449
0
LINE
8
Layer_1
10
124.409308
20
84.328449
11
124.402429
21
84.911061
0
LINE
8
Layer_1
10
124.402429
20
84.911061
11
124.108742
21
85.347623
0
LINE
8
Layer_1
10
124.108742
20
85.347623
11
123.516605
21
85.675441
0
LINE
8
Layer_1
10
123.516605
20
85.675441
11
122.615171
21
85.931558
0
LINE
8
Layer_1
10
122.615171
20
85.931558
11
122.073305
21
86.006435
0
LINE
8
Layer_1
10
122.073305
20
86.006435
11
121.558161
21
83.535759
0
LINE
8
Layer_1
10
127.917678
20
81.415390
11
128.973894
21
82.885149
0
LINE
8
Layer_1
10
128.973894
20
82.885149
11
129.627149
21
83.428867
0
LINE
8
Layer_1
10
129.627149
20
83.428867
11
130.363748
21
83.844791
0
LINE
8
Layer_1
10
130.363748
20
83.844791
11
131.147179
21
84.103024
0
LINE
8
Layer_1
10
131.147179
20
84.103024
11
131.932725
21
84.171022
0
LINE
8
Layer_1
10
131.932725
20
84.171022
11
132.720389
21
84.048785
0
LINE
8
Layer_1
10
132.720389
20
84.048785
11
133.510169
21
83.736048
0
LINE
8
Layer_1
10
133.510169
20
83.736048
11
134.294922
21
83.245776
0
LINE
8
Layer_1
10
134.294922
20
83.245776
11
134.907168
21
82.673747
0
LINE
8
Layer_1
10
134.907168
20
82.673747
11
135.347434
21
82.019433
0
LINE
8
Layer_1
10
135.347434
20
82.019433
11
135.615192
21
81.282834
0
LINE
8
Layer_1
10
135.615192
20
81.282834
11
135.711235
21
80.480619
0
LINE
8
Layer_1
10
135.711235
20
80.480619
11
135.636094
21
79.628926
0
LINE
8
Layer_1
10
135.636094
20
79.628926
11
134.972255
21
77.777110
0
LINE
8
Layer_1
10
134.972255
20
77.777110
11
133.828463
21
76.151512
0
LINE
8
Layer_1
10
133.828463
20
76.151512
11
133.153776
21
75.582923
0
LINE
8
Layer_1
10
133.153776
20
75.582923
11
132.410298
21
75.177052
0
LINE
8
Layer_1
10
132.410298
20
75.177052
11
131.621576
21
74.948982
0
LINE
8
Layer_1
10
131.621576
20
74.948982
11
130.805337
21
74.916438
0
LINE
8
Layer_1
10
130.805337
20
74.916438
11
129.961847
21
75.079157
0
LINE
8
Layer_1
10
129.961847
20
75.079157
11
129.090839
21
75.437667
0
LINE
8
Layer_1
10
129.090839
20
75.437667
11
128.361649
21
75.903597
0
LINE
8
Layer_1
10
128.361649
20
75.903597
11
127.800204
21
76.462661
0
LINE
8
Layer_1
10
127.800204
20
76.462661
11
127.406239
21
77.115123
0
LINE
8
Layer_1
10
127.406239
20
77.115123
11
127.179756
21
77.860718
0
LINE
8
Layer_1
10
127.179756
20
77.860718
11
127.121019
21
78.675898
0
LINE
8
Layer_1
10
127.121019
20
78.675898
11
127.224471
21
79.540026
0
LINE
8
Layer_1
10
127.224471
20
79.540026
11
127.917678
21
81.415390
0
LINE
8
Layer_1
10
129.405693
20
80.647835
11
128.877586
21
79.329418
0
LINE
8
Layer_1
10
128.877586
20
79.329418
11
128.754025
21
78.207057
0
LINE
8
Layer_1
10
128.754025
20
78.207057
11
129.041627
21
77.320704
0
LINE
8
Layer_1
10
129.041627
20
77.320704
11
129.747534
21
76.710840
0
LINE
8
Layer_1
10
129.747534
20
76.710840
11
130.792108
21
76.412655
0
LINE
8
Layer_1
10
130.792108
20
76.412655
11
131.776621
21
76.627232
0
LINE
8
Layer_1
10
131.776621
20
76.627232
11
132.683347
21
77.340283
0
LINE
8
Layer_1
10
132.683347
20
77.340283
11
133.483976
21
78.544400
0
LINE
8
Layer_1
10
133.483976
20
78.544400
11
133.993562
21
79.853821
0
LINE
8
Layer_1
10
133.993562
20
79.853821
11
134.058385
21
80.943110
0
LINE
8
Layer_1
10
134.058385
20
80.943110
11
133.678444
21
81.813059
0
LINE
8
Layer_1
10
133.678444
20
81.813059
11
132.853739
21
82.462874
0
LINE
8
Layer_1
10
132.853739
20
82.462874
11
131.906796
21
82.707085
0
LINE
8
Layer_1
10
131.906796
20
82.707085
11
130.984195
21
82.450174
0
LINE
8
Layer_1
10
130.984195
20
82.450174
11
130.135678
21
81.748765
0
LINE
8
Layer_1
10
130.135678
20
81.748765
11
129.405693
21
80.647835
0
LINE
8
Layer_1
10
14.468298
20
97.140616
11
12.203785
21
94.996436
0
LINE
8
Layer_1
10
12.203785
20
94.996436
11
10.134958
21
92.832411
0
LINE
8
Layer_1
10
10.134958
20
92.832411
11
8.260943
21
90.650925
0
LINE
8
Layer_1
10
8.260943
20
90.650925
11
6.580814
21
88.455150
0
LINE
8
Layer_1
10
6.580814
20
88.455150
11
5.093699
21
86.247999
0
LINE
8
Layer_1
10
5.093699
20
86.247999
11
3.798698
21
84.032116
0
LINE
8
Layer_1
10
3.798698
20
84.032116
11
2.694910
21
81.810413
0
LINE
8
Layer_1
10
2.694910
20
81.810413
11
1.781427
21
79.586063
0
LINE
8
Layer_1
10
1.781427
20
79.586063
11
1.057377
21
77.361185
0
LINE
8
Layer_1
10
1.057377
20
77.361185
11
0.521858
21
75.139482
0
LINE
8
Layer_1
10
0.521858
20
75.139482
11
0.173976
21
72.923334
0
LINE
8
Layer_1
10
0.173976
20
72.923334
11
0.012832
21
70.715654
0
LINE
8
Layer_1
10
0.012832
20
70.715654
11
0.037533
21
68.519350
0
LINE
8
Layer_1
10
0.037533
20
68.519350
11
0.247183
21
66.337334
0
LINE
8
Layer_1
10
0.247183
20
66.337334
11
0.640886
21
64.172252
0
LINE
8
Layer_1
10
0.640886
20
64.172252
11
1.217751
21
62.027277
0
LINE
8
Layer_1
10
1.217751
20
62.027277
11
1.976877
21
59.905322
0
LINE
8
Layer_1
10
1.976877
20
59.905322
11
2.917372
21
57.808766
0
LINE
8
Layer_1
10
2.917372
20
57.808766
11
4.038357
21
55.740785
0
LINE
8
Layer_1
10
4.038357
20
55.740785
11
5.338888
21
53.704025
0
LINE
8
Layer_1
10
5.338888
20
53.704025
11
6.818119
21
51.701661
0
LINE
8
Layer_1
10
6.818119
20
51.701661
11
8.475149
21
49.736603
0
LINE
8
Layer_1
10
8.475149
20
49.736603
11
10.309053
21
47.811233
0
LINE
8
Layer_1
10
10.309053
20
47.811233
11
12.318958
21
45.928725
0
LINE
8
Layer_1
10
12.318958
20
45.928725
11
16.863198
21
42.303673
0
LINE
8
Layer_1
10
16.863198
20
42.303673
11
22.100697
21
38.884467
0
LINE
8
Layer_1
10
22.100697
20
38.884467
11
28.024367
21
35.693596
0
LINE
8
Layer_1
10
28.024367
20
35.693596
11
34.626771
21
32.753814
0
LINE
8
Layer_1
10
37.356474
20
50.823775
11
35.574772
21
54.164929
0
LINE
8
Layer_1
10
35.574772
20
54.164929
11
34.153961
21
57.574081
0
LINE
8
Layer_1
10
34.153961
20
57.574081
11
33.090867
21
61.036679
0
LINE
8
Layer_1
10
33.090867
20
61.036679
11
32.381520
21
64.538170
0
LINE
8
Layer_1
10
32.381520
20
64.538170
11
32.022745
21
68.064003
0
LINE
8
Layer_1
10
32.022745
20
68.064003
11
32.011103
21
71.599626
0
LINE
8
Layer_1
10
32.011103
20
71.599626
11
32.342891
21
75.130221
0
LINE
8
Layer_1
10
32.342891
20
75.130221
11
33.014667
21
78.641502
0
LINE
8
Layer_1
10
33.014667
20
78.641502
11
34.022993
21
82.118917
0
LINE
8
Layer_1
10
34.022993
20
82.118917
11
35.364164
21
85.547912
0
LINE
8
Layer_1
10
35.364164
20
85.547912
11
37.035005
21
88.913408
0
LINE
8
Layer_1
10
37.035005
20
88.913408
11
39.031813
21
92.201646
0
LINE
8
Layer_1
10
39.031813
20
92.201646
11
41.350883
21
95.397544
0
LINE
8
Layer_1
10
41.350883
20
95.397544
11
43.989305
21
98.486550
0
LINE
8
Layer_1
10
43.989305
20
98.486550
11
46.942845
21
101.454378
0
LINE
8
Layer_1
10
46.942845
20
101.454378
11
50.208593
21
104.286209
0
LINE
8
Layer_1
10
34.626771
20
32.753814
11
37.356474
21
50.823775
0
LINE
8
Layer_1
10
50.208593
20
104.286209
11
61.297002
21
134.013168
0
LINE
8
Layer_1
10
61.297002
20
134.013168
11
14.468298
21
97.140616
0
LINE
8
Layer_1
10
112.546994
20
110.058881
11
112.546994
21
110.058881
0
LINE
8
Layer_1
10
108.983854
20
113.622021
11
108.983854
21
113.622021
0
LINE
8
Layer_1
10
98.294437
20
98.176459
11
102.156819
21
120.445616
0
LINE
8
Layer_1
10
102.156819
20
120.445616
11
124.429681
21
124.311703
0
LINE
8
Layer_1
10
124.429681
20
124.311703
11
102.156819
21
128.177525
0
LINE
8
Layer_1
10
102.156819
20
128.177525
11
98.294437
21
150.446947
0
LINE
8
Layer_1
10
98.294437
20
150.446947
11
94.431789
21
128.177525
0
LINE
8
Layer_1
10
94.431789
20
128.177525
11
72.159192
21
124.311703
0
LINE
8
Layer_1
10
72.159192
20
124.311703
11
94.431789
21
120.445616
0
LINE
8
Layer_1
10
94.431789
20
120.445616
11
98.294437
21
98.176459
0
LINE
8
Layer_1
10
98.294437
20
98.176459
11
98.294437
21
98.176459
0
LINE
8
Layer_1
10
98.294437
20
104.710336
11
101.191356
21
121.412138
0
LINE
8
Layer_1
10
101.191356
20
121.412138
11
117.895804
21
124.311703
0
LINE
8
Layer_1
10
117.895804
20
124.311703
11
101.191356
21
127.211268
0
LINE
8
Layer_1
10
101.191356
20
127.211268
11
98.294437
21
143.913070
0
LINE
8
Layer_1
10
98.294437
20
143.913070
11
95.397517
21
127.211268
0
LINE
8
Layer_1
10
95.397517
20
127.211268
11
78.693070
21
124.311703
0
LINE
8
Layer_1
10
78.693070
20
124.311703
11
95.397517
21
121.412138
0
LINE
8
Layer_1
10
95.397517
20
121.412138
11
98.294437
21
104.710336
0
LINE
8
Layer_1
10
98.294437
20
104.710336
11
98.294437
21
104.710336
0
LINE
8
Layer_1
10
125.697298
20
153.559237
11
122.668352
21
159.369480
0
LINE
8
Layer_1
10
122.668352
20
159.369480
11
119.653693
21
165.227876
0
LINE
8
Layer_1
10
119.653693
20
165.227876
11
118.091066
21
168.013142
0
LINE
8
Layer_1
10
118.091066
20
168.013142
11
116.765505
21
170.354172
0
LINE
8
Layer_1
10
116.765505
20
170.354172
11
116.612047
21
170.717180
0
LINE
8
Layer_1
10
116.612047
20
170.717180
11
116.843028
21
170.863759
0
LINE
8
Layer_1
10
116.843028
20
170.863759
11
121.199916
21
172.165772
0
LINE
8
Layer_1
10
121.199916
20
172.165772
11
125.670046
21
174.178455
0
LINE
8
Layer_1
10
125.670046
20
174.178455
11
129.763145
21
176.515781
0
LINE
8
Layer_1
10
129.763145
20
176.515781
11
134.703174
21
179.475406
0
LINE
8
Layer_1
10
134.703174
20
179.475406
11
136.579332
21
180.396155
0
LINE
8
Layer_1
10
136.579332
20
180.396155
11
138.291449
21
181.067931
0
LINE
8
Layer_1
10
138.291449
20
181.067931
11
139.711201
21
181.491529
0
LINE
8
Layer_1
10
139.711201
20
181.491529
11
140.877218
21
181.694464
0
LINE
8
Layer_1
10
140.877218
20
181.694464
11
141.835538
21
181.681499
0
LINE
8
Layer_1
10
141.835538
20
181.681499
11
142.632462
21
181.456075
0
LINE
8
Layer_1
10
142.632462
20
181.456075
11
143.344190
21
181.221654
0
LINE
8
Layer_1
10
143.344190
20
181.221654
11
143.885792
21
181.332779
0
LINE
8
Layer_1
10
143.885792
20
181.332779
11
144.499624
21
181.518252
0
LINE
8
Layer_1
10
144.499624
20
181.518252
11
145.157642
21
181.551854
0
LINE
8
Layer_1
10
145.157642
20
181.551854
11
146.499078
21
181.212923
0
LINE
8
Layer_1
10
146.499078
20
181.212923
11
147.693406
21
180.413089
0
LINE
8
Layer_1
10
147.693406
20
180.413089
11
148.523138
21
179.249982
0
LINE
8
Layer_1
10
148.523138
20
179.249982
11
149.476695
21
176.624260
0
LINE
8
Layer_1
10
149.476695
20
176.624260
11
148.068320
21
176.824020
0
LINE
8
Layer_1
10
148.068320
20
176.824020
11
147.151804
21
176.961868
0
LINE
8
Layer_1
10
147.151804
20
176.961868
11
146.475530
21
176.911597
0
LINE
8
Layer_1
10
146.475530
20
176.911597
11
145.811427
21
176.614735
0
LINE
8
Layer_1
10
145.811427
20
176.614735
11
144.931424
21
176.012280
0
LINE
8
Layer_1
10
144.931424
20
176.012280
11
143.128026
21
174.323711
0
LINE
8
Layer_1
10
143.128026
20
174.323711
11
142.490381
21
173.492656
0
LINE
8
Layer_1
10
142.490381
20
173.492656
11
142.242467
21
172.915865
0
LINE
8
Layer_1
10
142.242467
20
172.915865
11
142.676912
21
172.718486
0
LINE
8
Layer_1
10
142.676912
20
172.718486
11
143.685502
21
172.740975
0
LINE
8
Layer_1
10
143.685502
20
172.740975
11
144.826120
21
172.938354
0
LINE
8
Layer_1
10
144.826120
20
172.938354
11
145.657175
21
173.265114
0
LINE
8
Layer_1
10
145.657175
20
173.265114
11
146.417322
21
173.679451
0
LINE
8
Layer_1
10
146.417322
20
173.679451
11
149.120037
21
172.822202
0
LINE
8
Layer_1
10
149.120037
20
172.822202
11
146.170466
21
171.374404
0
LINE
8
Layer_1
10
146.170466
20
171.374404
11
144.379768
21
170.208651
0
LINE
8
Layer_1
10
144.379768
20
170.208651
11
142.527952
21
168.577762
0
LINE
8
Layer_1
10
142.527952
20
168.577762
11
141.358230
21
167.510169
0
LINE
8
Layer_1
10
141.358230
20
167.510169
11
138.095657
21
164.654525
0
LINE
8
Layer_1
10
138.095657
20
164.654525
11
135.039724
21
161.965303
0
LINE
8
Layer_1
10
135.039724
20
161.965303
11
130.676750
21
157.675884
0
LINE
8
Layer_1
10
130.676750
20
157.675884
11
126.984494
21
153.462929
0
LINE
8
Layer_1
10
126.984494
20
153.462929
11
126.324889
21
152.742998
0
LINE
8
Layer_1
10
126.324889
20
152.742998
11
125.697298
21
153.559237
0
LINE
8
Layer_1
10
133.002699
20
175.489993
11
134.057592
21
176.151715
0
LINE
8
Layer_1
10
134.057592
20
176.151715
11
133.486621
21
175.493697
0
LINE
8
Layer_1
10
134.466372
20
174.890712
11
136.118429
21
175.100791
0
LINE
8
Layer_1
10
136.118429
20
175.100791
11
137.434729
21
175.572807
0
LINE
8
Layer_1
10
137.434729
20
175.572807
11
138.447288
21
176.323429
0
LINE
8
Layer_1
10
138.447288
20
176.323429
11
139.187856
21
177.369590
0
LINE
8
Layer_1
10
139.187856
20
177.369590
11
139.533666
21
178.237687
0
LINE
8
Layer_1
10
139.533666
20
178.237687
11
139.456672
21
178.375006
0
LINE
8
Layer_1
10
139.456672
20
178.375006
11
139.214314
21
178.357014
0
LINE
8
Layer_1
10
139.214314
20
178.357014
11
138.834902
21
178.001415
0
LINE
8
Layer_1
10
138.834902
20
178.001415
11
138.398076
21
177.270636
0
LINE
8
Layer_1
10
138.398076
20
177.270636
11
137.680262
21
176.205954
0
LINE
8
Layer_1
10
137.680262
20
176.205954
11
136.795496
21
175.585507
0
LINE
8
Layer_1
10
136.795496
20
175.585507
11
135.812041
21
175.437605
0
LINE
8
Layer_1
10
135.812041
20
175.437605
11
134.799218
21
175.790294
0
LINE
8
Layer_1
10
134.799218
20
175.790294
11
134.175066
21
176.251992
0
LINE
8
Layer_1
10
134.175066
20
176.251992
11
135.087349
21
176.987797
0
LINE
8
Layer_1
10
135.087349
20
176.987797
11
136.527474
21
177.816206
0
LINE
8
Layer_1
10
136.527474
20
177.816206
11
138.688852
21
178.484808
0
LINE
8
Layer_1
10
138.688852
20
178.484808
11
139.514351
21
178.736691
0
LINE
8
Layer_1
10
139.514351
20
178.736691
11
139.668603
21
178.816859
0
LINE
8
Layer_1
10
139.668603
20
178.816859
11
139.610660
21
178.850461
0
LINE
8
Layer_1
10
139.610660
20
178.850461
11
138.193288
21
178.596462
0
LINE
8
Layer_1
10
138.193288
20
178.596462
11
136.475880
21
178.034223
0
LINE
8
Layer_1
10
136.475880
20
178.034223
11
134.989717
21
177.154484
0
LINE
8
Layer_1
10
134.989717
20
177.154484
11
133.126259
21
175.790559
0
LINE
8
Layer_1
10
133.126259
20
175.790559
11
131.582682
21
174.487488
0
LINE
8
Layer_1
10
131.582682
20
174.487488
11
131.054839
21
173.790576
0
LINE
8
Layer_1
10
131.054839
20
173.790576
11
131.622634
21
174.235075
0
LINE
8
Layer_1
10
131.622634
20
174.235075
11
133.002699
21
175.489993
0
LINE
8
Layer_1
10
133.486621
20
175.493697
11
132.734412
21
174.810808
0
LINE
8
Layer_1
10
132.734412
20
174.810808
11
134.466372
21
174.890712
0
LINE
8
Layer_1
10
136.095674
20
176.368673
11
135.807543
21
176.560760
0
LINE
8
Layer_1
10
135.807543
20
176.560760
11
135.519413
21
176.368673
0
LINE
8
Layer_1
10
135.519413
20
176.368673
11
135.807543
21
176.176586
0
LINE
8
Layer_1
10
135.807543
20
176.176586
11
136.095674
21
176.368673
0
LINE
8
Layer_1
10
142.242467
20
179.478846
11
142.052231
21
179.623837
0
LINE
8
Layer_1
10
142.052231
20
179.623837
11
141.673084
21
179.354492
0
LINE
8
Layer_1
10
141.673084
20
179.354492
11
141.582861
21
178.845170
0
LINE
8
Layer_1
10
141.582861
20
178.845170
11
141.751665
21
178.749655
0
LINE
8
Layer_1
10
141.751665
20
178.749655
11
141.983440
21
178.969524
0
LINE
8
Layer_1
10
141.983440
20
178.969524
11
142.242467
21
179.478846
0
LINE
8
Layer 1
10
72.156503
20
124.303253
11
94.429100
21
128.169075
0
LINE
8
Layer 1
10
94.429100
20
128.169075
11
98.291748
21
150.438497
0
LINE
8
Layer 1
10
98.291748
20
150.438497
11
102.154130
21
128.169075
0
LINE
8
Layer 1
10
102.154130
20
128.169075
11
124.426992
21
124.303253
0
LINE
8
Layer 1
10
124.426992
20
124.303253
11
102.154130
21
120.437166
0
LINE
8
Layer 1
10
102.154130
20
120.437166
11
98.291748
21
98.168009
0
LINE
8
Layer 1
10
98.291748
20
98.168009
11
94.429100
21
120.437166
0
LINE
8
Layer 1
10
94.429100
20
120.437166
11
72.156503
21
124.303253
0
LINE
8
Layer 1
10
78.690381
20
124.303253
11
95.394828
21
127.202818
0
LINE
8
Layer 1
10
95.394828
20
127.202818
11
98.291748
21
143.904620
0
LINE
8
Layer 1
10
98.291748
20
143.904620
11
101.188667
21
127.202818
0
LINE
8
Layer 1
10
101.188667
20
127.202818
11
117.893115
21
124.303253
0
LINE
8
Layer 1
10
117.893115
20
124.303253
11
101.188667
21
121.403688
0
LINE
8
Layer 1
10
101.188667
20
121.403688
11
98.291748
21
104.701886
0
LINE
8
Layer 1
10
98.291748
20
104.701886
11
95.394828
21
121.403688
0
LINE
8
Layer 1
10
95.394828
20
121.403688
11
78.690381
21
124.303253
0
LINE
8
Layer 1
10
84.038661
20
138.556075
11
91.010376
21
128.658332
0
LINE
8
Layer 1
10
91.010376
20
128.658332
11
93.510001
21
129.084736
0
LINE
8
Layer 1
10
93.510001
20
129.084736
11
94.009578
21
131.487319
0
LINE
8
Layer 1
10
94.009578
20
131.487319
11
84.038661
21
138.556075
0
LINE
8
Layer 1
10
87.601801
20
134.992935
11
91.366155
21
129.648756
0
LINE
8
Layer 1
10
91.366155
20
129.648756
11
92.722888
21
129.850574
0
LINE
8
Layer 1
10
92.722888
20
129.850574
11
93.032560
21
131.170986
0
LINE
8
Layer 1
10
93.032560
20
131.170986
11
87.601801
21
134.992935
0
LINE
8
Layer 1
10
112.542639
20
110.055325
11
105.570924
21
119.953068
0
LINE
8
Layer 1
10
105.570924
20
119.953068
11
103.071299
21
119.526664
0
LINE
8
Layer 1
10
103.071299
20
119.526664
11
102.571722
21
117.124081
0
LINE
8
Layer 1
10
102.571722
20
117.124081
11
112.542639
21
110.055325
0
LINE
8
Layer 1
10
108.979499
20
113.618465
11
105.215145
21
118.962644
0
LINE
8
Layer 1
10
105.215145
20
118.962644
11
103.858412
21
118.760826
0
LINE
8
Layer 1
10
103.858412
20
118.760826
11
103.548740
21
117.440414
0
LINE
8
Layer 1
10
103.548740
20
117.440414
11
108.979499
21
113.618465
0
LINE
8
Layer 1
10
112.555075
20
138.536639
11
102.657332
21
131.564924
0
LINE
8
Layer 1
10
102.657332
20
131.564924
11
103.083736
21
129.065299
0
LINE
8
Layer 1
10
103.083736
20
129.065299
11
105.486319
21
128.565722
0
LINE
8
Layer 1
10
105.486319
20
128.565722
11
112.555075
21
138.536639
0
LINE
8
Layer 1
10
108.991935
20
134.973499
11
103.647756
21
131.209145
0
LINE
8
Layer 1
10
103.647756
20
131.209145
11
103.849574
21
129.852412
0
LINE
8
Layer 1
10
103.849574
20
129.852412
11
105.169986
21
129.542740
0
LINE
8
Layer 1
10
105.169986
20
129.542740
11
108.991935
21
134.973499
0
LINE
8
Layer 1
10
84.002895
20
110.056661
11
93.900638
21
117.028376
0
LINE
8
Layer 1
10
93.900638
20
117.028376
11
93.474234
21
119.528001
0
LINE
8
Layer 1
10
93.474234
20
119.528001
11
91.071651
21
120.027578
0
LINE
8
Layer 1
10
91.071651
20
120.027578
11
84.002895
21
110.056661
0
LINE
8
Layer 1
10
87.566065
20
113.619801
11
92.910244
21
117.384155
0
LINE
8
Layer 1
10
92.910244
20
117.384155
11
92.708426
21
118.740888
0
LINE
8
Layer 1
10
92.708426
20
118.740888
11
91.388014
21
119.050560
0
LINE
8
Layer 1
10
91.388014
20
119.050560
11
87.566065
21
113.619801
 0 
ENDSEC
 0 
EOF